<svg width="67" height="67" viewBox="0 0 67 67" fill="none" xmlns="http://www.w3.org/2000/svg">
<path d="M49.7849 41.4875H16.5949L5.53162 52.5508V8.29751C5.53162 7.56397 5.82302 6.86047 6.34171 6.34177C6.8604 5.82308 7.5639 5.53168 8.29745 5.53168H49.7849C50.5185 5.53168 51.222 5.82308 51.7407 6.34177C52.2594 6.86047 52.5508 7.56397 52.5508 8.29751V38.7217C52.5508 39.4552 52.2594 40.1587 51.7407 40.6774C51.222 41.1961 50.5185 41.4875 49.7849 41.4875ZM63.6141 24.8925V63.6142L52.5508 52.5508H22.1266C21.3931 52.5508 20.6896 52.2594 20.1709 51.7407C19.6522 51.2221 19.3608 50.5185 19.3608 49.785V47.0192H58.0824V22.1267H60.8483C61.5818 22.1267 62.2853 22.4181 62.804 22.9368C63.3227 23.4555 63.6141 24.159 63.6141 24.8925ZM22.6521 11.0633C20.2458 11.0633 18.3098 11.6165 16.8162 12.6952C15.378 13.8292 14.6589 15.4057 14.6865 17.5907L14.7142 17.6737H20.0522C20.0799 16.8439 20.3288 16.2078 20.8267 15.7653C21.3388 15.3405 21.9869 15.1147 22.6521 15.1291C23.5095 15.1291 24.2286 15.4057 24.7265 15.9036C25.2243 16.4291 25.4456 17.1482 25.4456 17.9779C25.4456 18.863 25.252 19.6098 24.8095 20.2459C24.4223 20.8821 23.8414 21.4352 23.1223 21.8777C21.7117 22.8181 20.7437 23.6479 20.2182 24.3947C19.665 25.1138 19.3608 26.2754 19.3608 27.6583H24.8924C24.8924 26.8009 25.0031 26.1095 25.252 25.6116C25.5009 25.1138 25.9711 24.6159 26.6626 24.1734C27.9072 23.5096 28.9306 22.7075 29.7327 21.6012C30.5347 20.4948 30.9496 19.3608 30.9496 17.9779C30.9496 15.8759 30.2028 14.1887 28.7093 12.9441C27.2434 11.6995 25.2243 11.0633 22.6521 11.0633ZM19.3608 30.4242V35.9558H24.8924V30.4242H19.3608ZM35.9558 35.9558H41.4874V30.4242H35.9558V35.9558ZM35.9558 11.0633V27.6583H41.4874V11.0633H35.9558Z" fill="#F8F8F8"/>
</svg>
