<svg width="24" height="25" viewBox="0 0 24 25" fill="none" xmlns="http://www.w3.org/2000/svg">
<path d="M23.504 5.48781C23.5039 5.7865 23.3943 6.0748 23.1958 6.29801C22.9973 6.52123 22.7238 6.66383 22.4272 6.69878L22.2845 6.70732H21.254L19.7528 21.9756C19.671 22.8041 19.2841 23.5726 18.6672 24.1315C18.0502 24.6905 17.2475 25.0001 16.415 25H7.42228C6.58977 25.0001 5.787 24.6905 5.17008 24.1315C4.55316 23.5726 4.16621 22.8041 4.08447 21.9756L2.58325 6.70732H1.55276C1.22933 6.70732 0.919142 6.57883 0.690439 6.35013C0.461736 6.12143 0.333252 5.81124 0.333252 5.48781C0.333252 5.16437 0.461736 4.85418 0.690439 4.62548C0.919142 4.39678 1.22933 4.26829 1.55276 4.26829H7.65032C7.65032 3.70777 7.76073 3.15274 7.97523 2.63489C8.18973 2.11704 8.50413 1.6465 8.90048 1.25015C9.29683 0.853806 9.76736 0.539406 10.2852 0.324904C10.8031 0.110403 11.3581 0 11.9186 0C12.4791 0 13.0342 0.110403 13.552 0.324904C14.0699 0.539406 14.5404 0.853806 14.9368 1.25015C15.3331 1.6465 15.6475 2.11704 15.862 2.63489C16.0765 3.15274 16.1869 3.70777 16.1869 4.26829H22.2845C22.6079 4.26829 22.9181 4.39678 23.1468 4.62548C23.3755 4.85418 23.504 5.16437 23.504 5.48781ZM14.6625 9.45122C14.4415 9.45123 14.228 9.53127 14.0614 9.67655C13.8948 9.82182 13.7865 10.0225 13.7564 10.2415L13.7479 10.3659V18.9024L13.7564 19.0268C13.7865 19.2457 13.8949 19.4464 14.0615 19.5916C14.228 19.7368 14.4415 19.8168 14.6625 19.8168C14.8835 19.8168 15.097 19.7368 15.2636 19.5916C15.4301 19.4464 15.5385 19.2457 15.5686 19.0268L15.5772 18.9024V10.3659L15.5686 10.2415C15.5386 10.0225 15.4302 9.82182 15.2637 9.67655C15.0971 9.53127 14.8835 9.45123 14.6625 9.45122V9.45122ZM9.17471 9.45122C8.95369 9.45123 8.74015 9.53127 8.57358 9.67655C8.40701 9.82182 8.29868 10.0225 8.26862 10.2415L8.26008 10.3659V18.9024L8.26862 19.0268C8.29874 19.2457 8.4071 19.4464 8.57366 19.5916C8.74023 19.7368 8.95374 19.8168 9.17471 19.8168C9.39569 19.8168 9.6092 19.7368 9.77577 19.5916C9.94233 19.4464 10.0507 19.2457 10.0808 19.0268L10.0893 18.9024V10.3659L10.0808 10.2415C10.0508 10.0225 9.94242 9.82182 9.77585 9.67655C9.60928 9.53127 9.39574 9.45123 9.17471 9.45122V9.45122ZM11.9186 2.43902C11.4335 2.43902 10.9682 2.63175 10.6251 2.97481C10.2821 3.31786 10.0893 3.78314 10.0893 4.26829H13.7479C13.7479 3.78314 13.5552 3.31786 13.2121 2.97481C12.8691 2.63175 12.4038 2.43902 11.9186 2.43902Z" fill="#EB5757"/>
</svg>
