<svg width="38" height="30" viewBox="0 0 38 30" fill="none" xmlns="http://www.w3.org/2000/svg">
<path d="M2.33333 0.416672C1.7808 0.416672 1.25089 0.636166 0.860194 1.02687C0.469493 1.41757 0.25 1.94747 0.25 2.50001C0.25 3.05254 0.469493 3.58244 0.860194 3.97314C1.25089 4.36384 1.7808 4.58334 2.33333 4.58334H35.6667C36.2192 4.58334 36.7491 4.36384 37.1398 3.97314C37.5305 3.58244 37.75 3.05254 37.75 2.50001C37.75 1.94747 37.5305 1.41757 37.1398 1.02687C36.7491 0.636166 36.2192 0.416672 35.6667 0.416672H2.33333ZM2.33333 8.75C1.7808 8.75 1.25089 8.9695 0.860194 9.3602C0.469493 9.7509 0.25 10.2808 0.25 10.8333C0.25 11.3859 0.469493 11.9158 0.860194 12.3065C1.25089 12.6972 1.7808 12.9167 2.33333 12.9167H19C19.5525 12.9167 20.0824 12.6972 20.4731 12.3065C20.8638 11.9158 21.0833 11.3859 21.0833 10.8333C21.0833 10.2808 20.8638 9.7509 20.4731 9.3602C20.0824 8.9695 19.5525 8.75 19 8.75H2.33333ZM0.25 19.1667C0.25 18.6141 0.469493 18.0842 0.860194 17.6935C1.25089 17.3028 1.7808 17.0833 2.33333 17.0833H35.6667C36.2192 17.0833 36.7491 17.3028 37.1398 17.6935C37.5305 18.0842 37.75 18.6141 37.75 19.1667C37.75 19.7192 37.5305 20.2491 37.1398 20.6398C36.7491 21.0305 36.2192 21.25 35.6667 21.25H2.33333C1.7808 21.25 1.25089 21.0305 0.860194 20.6398C0.469493 20.2491 0.25 19.7192 0.25 19.1667ZM2.33333 25.4167C1.7808 25.4167 1.25089 25.6362 0.860194 26.0269C0.469493 26.4176 0.25 26.9475 0.25 27.5C0.25 28.0525 0.469493 28.5824 0.860194 28.9731C1.25089 29.3638 1.7808 29.5833 2.33333 29.5833H19C19.5525 29.5833 20.0824 29.3638 20.4731 28.9731C20.8638 28.5824 21.0833 28.0525 21.0833 27.5C21.0833 26.9475 20.8638 26.4176 20.4731 26.0269C20.0824 25.6362 19.5525 25.4167 19 25.4167H2.33333Z" fill="#EB5757"/>
</svg>
