<svg width="50" height="50" viewBox="0 0 50 50" fill="none" xmlns="http://www.w3.org/2000/svg">
<path d="M49.9854 0H0.0146484C0.00655833 0 0 0.00655833 0 0.0146484V49.9854C0 49.9934 0.00655833 50 0.0146484 50H49.9854C49.9934 50 50 49.9934 50 49.9854V0.0146484C50 0.00655833 49.9934 0 49.9854 0Z" fill="#5865F2"/>
<path d="M37.6953 13.3789C35.3515 12.3047 32.8613 11.5234 30.2441 11.0645C30.1953 11.0645 30.1465 11.0645 30.1269 11.123C29.8047 11.6992 29.4433 12.4414 29.1992 13.0273C26.3672 12.6074 23.584 12.6074 20.83 13.0273C20.5761 12.4219 20.2148 11.6895 19.8535 11.123C19.8242 11.084 19.7851 11.0547 19.7363 11.0645C17.4902 11.5137 14.6191 12.334 12.3144 13.3789C12.2949 13.3789 12.2754 13.3984 12.2656 13.418C7.48044 20.5469 6.21091 27.3828 6.8945 34.2187C6.8945 34.248 6.91403 34.2871 6.94333 34.3164C10.0683 36.6211 13.0957 38.0273 16.084 38.9355C16.1328 38.9355 16.1816 38.9355 16.2109 38.8965C16.914 37.9395 17.539 36.9238 18.0859 35.8496C18.1152 35.791 18.0859 35.7129 18.0175 35.6934C17.041 35.3027 16.0644 34.8535 15.1562 34.3262C15.0879 34.2871 15.0781 34.1797 15.1562 34.1309C15.3515 33.9844 15.5468 33.8379 15.7226 33.6914C15.7519 33.6621 15.8007 33.6621 15.8398 33.6719C21.8359 36.4062 28.3398 36.4062 34.1992 33.6719C34.2383 33.6523 34.2871 33.6621 34.3164 33.6816C34.5019 33.8379 34.6875 33.9844 34.8828 34.1309C34.9511 34.1797 34.9414 34.2871 34.8828 34.3262C33.9746 34.8633 33.0273 35.3027 32.0215 35.6934C31.9531 35.7227 31.9238 35.791 31.9629 35.8594C32.5097 36.9336 33.1445 37.9395 33.8183 38.8867C33.8476 38.9258 33.8965 38.9453 33.9453 38.9258C36.9336 37.998 39.9707 36.6016 43.1054 34.3066C43.1347 34.2871 43.1543 34.2578 43.1543 34.209C43.916 26.3086 41.875 19.4629 37.7441 13.4082C37.7441 13.3887 37.7148 13.3691 37.6953 13.3691V13.3789ZM18.9453 30.0781C17.0898 30.0781 15.625 28.418 15.625 26.3672C15.625 24.3164 17.0898 22.6563 18.9453 22.6563C20.8007 22.6563 22.2656 24.3164 22.2656 26.3672C22.2656 28.418 20.8007 30.0781 18.9453 30.0781ZM31.1523 30.0781C29.2968 30.0781 27.832 28.418 27.832 26.3672C27.832 24.3164 29.2968 22.6563 31.1523 22.6563C33.0078 22.6563 34.4726 24.3164 34.4726 26.3672C34.4726 28.418 33.0078 30.0781 31.1523 30.0781Z" fill="white"/>
</svg>
