<svg width="66" height="71" viewBox="0 0 66 71" fill="none" xmlns="http://www.w3.org/2000/svg">
<path fill-rule="evenodd" clip-rule="evenodd" d="M6.33442 0.499972C4.78704 0.499972 3.30303 1.11467 2.20886 2.20883C1.1147 3.303 0.500003 4.787 0.500003 6.33439V64.6867C0.500003 66.2341 1.1147 67.7181 2.20886 68.8122C3.30303 69.9064 4.78704 70.5211 6.33442 70.5211H51.349C52.8964 70.5211 54.3804 69.9064 55.4746 68.8122C56.2696 68.0172 56.8115 67.0165 57.0484 65.9351C57.7127 65.9284 58.3698 65.7942 58.9838 65.5396C59.614 65.2783 60.1866 64.8954 60.6687 64.4126L60.6695 64.4118L64.4807 60.5923L64.4821 60.5909C65.4542 59.6152 66 58.294 66 56.9166C66 55.5393 65.4542 54.2181 64.4821 53.2424L64.4808 53.2411L60.1307 48.881L60.1298 48.8801L60.1294 48.8797L57.1835 45.9257V6.33439C57.1835 4.78701 56.5688 3.303 55.4746 2.20883C54.3804 1.11467 52.8964 0.499972 51.349 0.499972H6.33442ZM52.1835 40.9121V6.33439C52.1835 6.11308 52.0956 5.90085 51.9391 5.74437C51.7826 5.58788 51.5703 5.49997 51.349 5.49997H6.33442C6.11312 5.49997 5.90088 5.58788 5.7444 5.74437C5.58791 5.90085 5.5 6.11309 5.5 6.33439V64.6867C5.5 64.908 5.58792 65.1202 5.7444 65.2767C5.90088 65.4332 6.11311 65.5211 6.33442 65.5211H51.349C51.5704 65.5211 51.7826 65.4332 51.9391 65.2767C52.0955 65.1202 52.1835 64.908 52.1835 64.6867V63.2705L49.024 60.1038C49.0054 60.0863 48.987 60.0684 48.9688 60.0502L48.8225 59.9035C48.3833 60.2861 47.8092 60.5178 47.181 60.5178H10.5024C9.12167 60.5178 8.00238 59.3985 8.00238 58.0178C8.00238 56.6371 9.12167 55.5178 10.5024 55.5178H44.4476L38.2093 49.2642H10.5024C9.12167 49.2642 8.00238 48.1449 8.00238 46.7642C8.00238 45.3835 9.12167 44.2642 10.5024 44.2642H33.2216L26.9833 38.0105H10.5024C9.12167 38.0105 8.00238 36.8912 8.00238 35.5105C8.00238 34.1298 9.12167 33.0105 10.5024 33.0105H22.1323C21.9294 32.6435 21.8202 32.2278 21.8202 31.801V26.7569H10.5024C9.12167 26.7569 8.00238 25.6376 8.00238 24.2569C8.00238 22.8762 9.12167 21.7569 10.5024 21.7569H24.3202H32.0427C32.7069 21.7569 33.3438 22.0212 33.8129 22.4915L44.3033 33.0105H47.181C48.5617 33.0105 49.681 34.1298 49.681 35.5105C49.681 36.3002 49.3149 37.0043 48.7432 37.4624L52.1835 40.9121ZM10.5024 10.5032C9.12167 10.5032 8.00238 11.6225 8.00238 13.0032C8.00238 14.3839 9.12167 15.5032 10.5024 15.5032H47.181C48.5617 15.5032 49.681 14.3839 49.681 13.0032C49.681 11.6225 48.5617 10.5032 47.181 10.5032H10.5024ZM50.7388 54.7447L54.8286 50.6452L31.0052 26.7569H26.8202V30.7672L29.754 33.7082C29.7792 33.7324 29.8038 33.7572 29.828 33.7824L50.7388 54.7447ZM56.8608 60.8794L54.2716 58.2843L58.3599 54.1853L60.94 56.7713L60.9402 56.7716C60.9785 56.8102 61 56.8623 61 56.9166C61 56.9711 60.9784 57.0234 60.94 57.062L57.1309 60.8794C57.1132 60.8971 57.0921 60.9112 57.0689 60.9208C57.0458 60.9304 57.0209 60.9354 56.9958 60.9354C56.9707 60.9354 56.9459 60.9304 56.9227 60.9208C56.8995 60.9112 56.8785 60.8971 56.8608 60.8794Z" fill="white"/>
</svg>
