<svg id="svg" version="1.1" xmlns="http://www.w3.org/2000/svg" xmlns:xlink="http://www.w3.org/1999/xlink" width="70" height="70" viewBox="0, 0, 400,400"><g id="svgg"><path id="path0" d="M130.000 70.788 C 129.230 70.954,128.093 71.295,127.474 71.545 C 126.855 71.795,125.592 72.000,124.668 72.000 C 123.744 72.000,122.316 72.360,121.496 72.800 C 120.675 73.240,119.595 73.600,119.096 73.600 C 118.596 73.600,117.516 73.960,116.696 74.400 C 115.875 74.840,114.887 75.203,114.501 75.207 C 114.116 75.211,112.900 75.748,111.800 76.400 C 110.700 77.052,109.558 77.589,109.263 77.593 C 108.968 77.597,108.269 77.960,107.709 78.400 C 107.150 78.840,106.384 79.200,106.008 79.200 C 105.632 79.200,105.002 79.555,104.609 79.990 C 104.216 80.424,103.569 80.883,103.171 81.009 C 98.636 82.449,83.345 96.677,80.184 102.400 C 79.758 103.170,79.129 104.160,78.784 104.600 C 76.849 107.071,72.000 116.292,72.000 117.502 C 72.000 117.898,71.745 118.586,71.433 119.031 C 71.121 119.477,70.737 120.552,70.579 121.420 C 70.421 122.289,69.956 123.668,69.546 124.484 C 69.136 125.300,68.800 126.602,68.800 127.376 C 68.800 128.150,68.485 129.552,68.100 130.492 C 67.049 133.057,67.012 274.343,68.062 277.200 C 68.425 278.190,68.827 279.856,68.954 280.903 C 69.081 281.950,69.445 283.210,69.762 283.703 C 70.078 284.196,70.461 285.449,70.612 286.487 C 70.763 287.525,71.137 288.582,71.443 288.836 C 71.750 289.090,72.000 289.681,72.000 290.149 C 72.001 291.050,75.482 298.144,77.439 301.233 C 78.077 302.241,79.140 303.933,79.800 304.994 C 82.756 309.745,92.575 319.778,97.800 323.388 C 99.340 324.451,101.029 325.654,101.554 326.061 C 102.079 326.467,102.837 326.800,103.240 326.800 C 103.642 326.800,104.163 327.158,104.397 327.595 C 104.632 328.033,105.313 328.509,105.912 328.654 C 106.510 328.798,107.478 329.250,108.062 329.658 C 108.646 330.066,109.310 330.400,109.539 330.400 C 109.767 330.400,110.634 330.801,111.464 331.291 C 112.975 332.182,115.415 333.147,118.800 334.193 C 119.790 334.498,121.320 335.022,122.200 335.357 C 123.080 335.691,124.484 335.973,125.320 335.982 C 126.156 335.992,127.416 336.315,128.120 336.700 C 130.041 337.750,272.703 337.997,276.565 336.957 C 277.904 336.596,280.041 336.145,281.312 335.955 C 282.584 335.764,284.120 335.351,284.726 335.038 C 285.332 334.725,286.541 334.340,287.414 334.182 C 288.286 334.025,289.180 333.758,289.400 333.589 C 289.620 333.421,290.610 333.053,291.600 332.772 C 292.590 332.492,293.670 332.047,294.000 331.783 C 294.746 331.188,299.779 328.800,300.287 328.800 C 300.493 328.800,301.083 328.350,301.600 327.800 C 302.117 327.250,302.842 326.800,303.212 326.800 C 303.582 326.800,304.676 326.209,305.642 325.486 C 307.331 324.224,308.579 323.347,310.676 321.950 C 313.145 320.305,324.456 308.485,325.515 306.444 C 325.811 305.873,326.537 304.776,327.127 304.007 C 329.127 301.402,334.000 292.210,334.000 291.043 C 334.000 290.793,334.347 289.940,334.772 289.148 C 335.196 288.356,335.666 287.009,335.817 286.154 C 335.967 285.299,336.349 284.187,336.666 283.682 C 336.983 283.177,337.340 281.827,337.459 280.682 C 337.579 279.537,337.974 277.790,338.338 276.800 C 339.389 273.943,339.352 132.978,338.300 130.651 C 337.915 129.799,337.600 128.397,337.600 127.535 C 337.600 126.673,337.262 125.300,336.848 124.484 C 336.434 123.668,335.970 122.245,335.817 121.323 C 335.663 120.401,335.300 119.449,335.011 119.209 C 334.721 118.968,334.363 118.126,334.215 117.338 C 333.865 115.471,330.965 110.010,326.600 102.998 C 324.007 98.832,314.161 88.464,310.000 85.518 C 305.633 82.426,303.103 80.800,302.658 80.800 C 302.394 80.800,301.870 80.440,301.493 80.000 C 301.116 79.560,300.519 79.200,300.167 79.200 C 299.815 79.200,299.069 78.840,298.509 78.400 C 297.950 77.960,297.243 77.600,296.938 77.600 C 296.633 77.600,295.683 77.157,294.825 76.616 C 293.968 76.075,292.757 75.509,292.133 75.359 C 291.510 75.209,290.332 74.752,289.516 74.343 C 288.700 73.934,287.684 73.600,287.260 73.600 C 286.835 73.600,285.703 73.244,284.744 72.809 C 283.785 72.374,282.348 72.014,281.550 72.009 C 280.753 72.004,279.313 71.685,278.350 71.300 C 276.485 70.554,133.373 70.060,130.000 70.788 M274.064 95.595 C 275.459 96.032,277.102 96.392,277.716 96.395 C 278.330 96.398,279.538 96.760,280.400 97.200 C 281.262 97.640,282.193 98.000,282.467 98.000 C 283.056 98.000,291.305 102.018,291.609 102.453 C 291.925 102.906,294.790 104.800,295.159 104.800 C 296.128 104.800,306.400 116.109,306.400 117.176 C 306.400 117.409,306.728 117.928,307.129 118.329 C 308.128 119.328,311.870 127.075,312.186 128.800 C 312.327 129.570,312.685 130.830,312.980 131.600 C 314.295 135.024,314.425 141.658,314.409 204.400 C 314.399 242.472,314.242 267.609,314.004 269.200 C 313.791 270.630,313.612 272.709,313.608 273.820 C 313.604 274.931,313.400 276.040,313.155 276.285 C 312.910 276.530,312.551 277.582,312.356 278.623 C 311.951 280.792,308.739 287.649,307.340 289.331 C 306.823 289.953,306.400 290.654,306.400 290.889 C 306.400 292.347,297.498 301.450,293.400 304.182 C 289.548 306.751,284.223 309.600,283.275 309.600 C 282.897 309.600,281.945 309.945,281.160 310.366 C 280.374 310.787,278.850 311.264,277.772 311.425 C 276.695 311.587,275.180 312.007,274.407 312.359 C 272.227 313.352,136.719 313.547,133.036 312.563 C 131.696 312.205,129.610 311.692,128.400 311.422 C 127.190 311.153,125.624 310.633,124.920 310.267 C 124.216 309.900,123.369 309.600,123.039 309.600 C 122.166 309.600,116.712 306.657,112.957 304.159 C 108.730 301.348,100.000 292.396,100.000 290.873 C 100.000 290.647,99.573 289.953,99.051 289.331 C 97.791 287.831,94.528 280.894,94.165 278.945 C 94.007 278.095,93.564 276.770,93.180 276.000 C 91.937 273.505,91.800 266.323,91.800 203.800 C 91.800 141.562,91.934 134.709,93.207 131.742 C 93.598 130.830,94.045 129.480,94.199 128.742 C 94.594 126.857,98.182 119.418,99.175 118.425 C 99.629 117.971,100.000 117.410,100.000 117.179 C 100.000 115.977,110.192 104.800,111.288 104.800 C 111.524 104.800,112.456 104.201,113.359 103.469 C 114.261 102.737,115.540 101.870,116.200 101.542 C 116.860 101.215,117.760 100.754,118.200 100.518 C 120.117 99.492,123.446 98.000,123.821 98.000 C 124.046 98.000,124.937 97.640,125.800 97.200 C 126.663 96.760,127.916 96.397,128.585 96.394 C 129.253 96.391,130.880 96.041,132.200 95.616 C 136.018 94.387,270.148 94.367,274.064 95.595 M273.966 115.060 C 272.995 115.350,271.711 115.591,271.112 115.594 C 267.571 115.614,259.200 123.404,259.200 126.680 C 259.200 127.132,258.930 128.149,258.600 128.938 C 257.846 130.743,257.846 134.681,258.600 136.000 C 258.914 136.550,259.181 137.360,259.192 137.800 C 259.203 138.240,259.466 139.050,259.777 139.600 C 260.087 140.150,260.639 141.172,261.003 141.872 C 262.193 144.159,267.079 148.400,268.526 148.400 C 268.793 148.400,269.684 148.760,270.504 149.200 C 272.380 150.205,279.787 150.365,281.538 149.438 C 282.122 149.129,283.617 148.388,284.859 147.793 C 289.801 145.425,294.400 137.945,294.400 132.275 C 294.400 125.264,287.518 116.678,281.000 115.557 C 279.900 115.368,278.265 115.060,277.366 114.872 C 276.255 114.641,275.168 114.701,273.966 115.060 M196.400 134.769 C 195.190 134.939,193.660 135.271,193.000 135.506 C 192.340 135.742,190.562 136.047,189.048 136.184 C 187.535 136.321,185.825 136.670,185.248 136.961 C 184.672 137.251,183.428 137.607,182.485 137.751 C 181.542 137.896,180.105 138.371,179.291 138.807 C 178.478 139.243,177.564 139.600,177.260 139.600 C 176.957 139.600,176.054 139.957,175.254 140.393 C 174.455 140.829,173.350 141.374,172.800 141.603 C 172.250 141.832,170.720 142.635,169.400 143.387 C 168.080 144.139,166.100 145.239,165.000 145.832 C 163.900 146.424,162.629 147.289,162.175 147.755 C 161.721 148.220,160.935 148.870,160.429 149.200 C 156.615 151.688,149.415 158.816,146.908 162.586 C 145.878 164.134,144.713 165.722,144.318 166.116 C 143.923 166.509,143.600 166.988,143.600 167.181 C 143.600 167.373,142.964 168.491,142.187 169.665 C 141.410 170.839,140.663 172.250,140.526 172.800 C 140.390 173.350,139.945 174.229,139.539 174.754 C 139.133 175.279,138.800 176.060,138.800 176.491 C 138.800 176.921,138.440 177.731,138.000 178.291 C 137.560 178.850,137.200 179.691,137.200 180.160 C 137.200 180.628,136.853 181.660,136.428 182.452 C 136.004 183.244,135.541 184.591,135.401 185.446 C 135.260 186.301,134.813 187.990,134.408 189.200 C 132.572 194.679,132.570 213.353,134.404 218.800 C 134.811 220.010,135.260 221.699,135.401 222.554 C 135.541 223.409,136.004 224.756,136.428 225.548 C 136.853 226.340,137.200 227.372,137.200 227.840 C 137.200 228.309,137.560 229.150,138.000 229.709 C 138.440 230.269,138.800 231.090,138.800 231.535 C 138.800 231.979,139.077 232.620,139.417 232.960 C 139.756 233.299,140.238 234.167,140.488 234.888 C 140.874 236.000,141.965 237.963,143.800 240.848 C 148.121 247.643,154.977 255.127,160.000 258.534 C 161.210 259.355,162.650 260.359,163.200 260.765 C 165.286 262.307,167.960 263.933,168.862 264.208 C 169.378 264.366,170.070 264.727,170.400 265.010 C 171.152 265.657,177.001 268.400,177.627 268.400 C 177.882 268.400,178.746 268.734,179.546 269.143 C 181.424 270.103,185.454 271.154,189.018 271.614 C 190.568 271.814,192.616 272.253,193.568 272.589 C 195.995 273.445,210.455 273.470,212.485 272.622 C 213.246 272.304,215.293 271.866,217.034 271.648 C 220.885 271.166,224.898 270.142,226.854 269.143 C 227.654 268.734,228.518 268.400,228.773 268.400 C 229.254 268.400,234.242 266.079,236.000 265.038 C 236.550 264.712,238.279 263.722,239.842 262.839 C 246.312 259.182,256.572 250.089,259.294 245.600 C 259.894 244.610,260.974 242.971,261.693 241.958 C 263.668 239.174,265.328 236.358,265.898 234.827 C 266.179 234.071,266.677 233.157,267.004 232.795 C 267.332 232.433,267.600 231.820,267.600 231.432 C 267.600 231.044,267.960 230.269,268.400 229.709 C 268.840 229.150,269.200 228.309,269.200 227.840 C 269.200 227.372,269.560 226.316,270.000 225.496 C 270.440 224.675,270.804 223.417,270.809 222.701 C 270.814 221.986,271.191 220.590,271.647 219.600 C 273.865 214.787,273.865 193.213,271.647 188.400 C 271.191 187.410,270.814 186.014,270.809 185.299 C 270.804 184.583,270.440 183.325,270.000 182.504 C 269.560 181.684,269.200 180.628,269.200 180.160 C 269.200 179.691,268.840 178.850,268.400 178.291 C 267.960 177.731,267.600 176.921,267.600 176.491 C 267.600 176.060,267.267 175.279,266.861 174.754 C 266.455 174.229,266.004 173.318,265.860 172.728 C 265.717 172.138,265.363 171.418,265.076 171.128 C 264.788 170.838,264.023 169.610,263.376 168.400 C 262.729 167.190,262.081 166.109,261.935 165.998 C 261.790 165.887,260.823 164.537,259.786 162.998 C 257.056 158.946,249.883 151.758,246.016 149.200 C 245.518 148.870,244.520 148.150,243.799 147.600 C 241.051 145.504,230.187 139.600,229.078 139.600 C 228.809 139.600,227.922 139.243,227.109 138.807 C 226.295 138.371,224.858 137.896,223.915 137.751 C 222.972 137.607,221.719 137.246,221.131 136.950 C 220.543 136.654,218.743 136.295,217.131 136.153 C 215.519 136.011,213.570 135.636,212.800 135.321 C 211.171 134.653,199.919 134.274,196.400 134.769 M210.600 160.000 C 212.139 160.440,214.028 160.801,214.799 160.803 C 215.569 160.804,216.740 161.163,217.400 161.600 C 218.060 162.037,219.071 162.396,219.646 162.397 C 220.221 162.399,221.150 162.760,221.709 163.200 C 222.269 163.640,223.096 164.000,223.548 164.000 C 223.999 164.000,224.691 164.338,225.084 164.750 C 225.478 165.163,226.237 165.635,226.772 165.800 C 229.326 166.587,236.921 173.353,239.587 177.216 C 240.428 178.435,241.405 179.672,241.758 179.965 C 242.111 180.258,242.400 180.800,242.400 181.169 C 242.400 181.538,242.568 182.011,242.773 182.220 C 243.401 182.859,245.600 187.244,245.600 187.857 C 245.600 188.173,245.960 189.138,246.400 190.000 C 246.840 190.862,247.200 192.118,247.200 192.789 C 247.200 193.461,247.560 195.309,248.000 196.897 C 248.566 198.941,248.800 201.013,248.800 203.993 C 248.800 207.003,248.572 208.999,248.000 211.000 C 247.560 212.539,247.200 214.384,247.200 215.100 C 247.200 215.817,246.840 217.075,246.400 217.896 C 245.960 218.716,245.600 219.719,245.600 220.123 C 245.600 220.527,245.163 221.610,244.629 222.529 C 244.095 223.448,243.240 225.013,242.729 226.007 C 239.840 231.628,230.558 240.880,226.524 242.160 C 226.074 242.303,225.384 242.776,224.991 243.210 C 224.598 243.645,223.876 244.000,223.387 244.000 C 222.898 244.000,222.278 244.265,222.009 244.589 C 221.740 244.914,220.863 245.298,220.060 245.443 C 219.257 245.589,217.932 246.044,217.116 246.454 C 216.300 246.864,215.039 247.200,214.315 247.200 C 213.590 247.200,211.739 247.560,210.200 248.000 C 208.201 248.572,206.203 248.800,203.200 248.800 C 200.197 248.800,198.199 248.572,196.200 248.000 C 194.661 247.560,192.769 247.200,191.995 247.200 C 191.221 247.200,189.961 246.866,189.194 246.459 C 188.427 246.051,187.143 245.596,186.340 245.448 C 185.537 245.300,184.660 244.914,184.391 244.589 C 184.122 244.265,183.481 244.000,182.967 244.000 C 182.452 244.000,181.709 243.677,181.316 243.282 C 180.922 242.887,180.087 242.342,179.460 242.072 C 174.246 239.825,166.136 231.179,162.696 224.200 C 160.178 219.093,159.583 217.363,158.430 211.796 C 157.350 206.585,157.338 201.143,158.397 196.725 C 158.836 194.896,159.197 192.860,159.200 192.200 C 159.203 191.540,159.563 190.460,160.000 189.800 C 160.437 189.140,160.796 188.309,160.797 187.953 C 160.801 187.110,164.177 180.497,165.150 179.426 C 165.563 178.972,166.362 177.880,166.925 177.000 C 168.863 173.971,178.228 165.600,179.678 165.600 C 179.896 165.600,180.531 165.240,181.091 164.800 C 181.650 164.360,182.419 164.000,182.800 164.000 C 183.181 164.000,183.950 163.640,184.509 163.200 C 185.069 162.760,186.038 162.399,186.663 162.397 C 187.288 162.396,188.340 162.037,189.000 161.600 C 189.660 161.163,190.830 160.803,191.600 160.801 C 192.370 160.799,194.170 160.451,195.600 160.029 C 199.337 158.925,206.792 158.911,210.600 160.000 " stroke="none" fill="#fbfbfb" fill-rule="evenodd"></path><path id="path1" d="M19.600 0.400 C 19.600 0.620,18.880 0.800,18.000 0.800 C 16.667 0.800,16.400 0.933,16.400 1.600 C 16.400 2.252,16.133 2.400,14.963 2.400 C 13.862 2.400,13.476 2.587,13.316 3.200 C 13.200 3.643,12.770 4.000,12.353 4.000 C 11.867 4.000,11.600 4.283,11.600 4.800 C 11.600 5.428,11.333 5.600,10.363 5.600 C 9.462 5.600,9.068 5.817,8.916 6.400 C 8.800 6.843,8.370 7.200,7.953 7.200 C 7.482 7.200,7.200 7.482,7.200 7.953 C 7.200 8.370,6.843 8.800,6.400 8.916 C 5.817 9.068,5.600 9.462,5.600 10.363 C 5.600 11.333,5.428 11.600,4.800 11.600 C 4.283 11.600,4.000 11.867,4.000 12.353 C 4.000 12.770,3.643 13.200,3.200 13.316 C 2.587 13.476,2.400 13.862,2.400 14.963 C 2.400 16.133,2.252 16.400,1.600 16.400 C 0.933 16.400,0.800 16.667,0.800 18.000 C 0.800 18.880,0.620 19.600,0.400 19.600 C 0.134 19.600,0.000 80.000,0.000 200.000 C 0.000 320.000,0.134 380.400,0.400 380.400 C 0.620 380.400,0.800 381.120,0.800 382.000 C 0.800 383.333,0.933 383.600,1.600 383.600 C 2.252 383.600,2.400 383.867,2.400 385.037 C 2.400 386.138,2.587 386.524,3.200 386.684 C 3.643 386.800,4.000 387.230,4.000 387.647 C 4.000 388.133,4.283 388.400,4.800 388.400 C 5.448 388.400,5.600 388.667,5.600 389.800 C 5.600 390.933,5.752 391.200,6.400 391.200 C 6.933 391.200,7.200 391.467,7.200 392.000 C 7.200 392.517,7.467 392.800,7.953 392.800 C 8.370 392.800,8.800 393.157,8.916 393.600 C 9.068 394.183,9.462 394.400,10.363 394.400 C 11.333 394.400,11.600 394.572,11.600 395.200 C 11.600 395.717,11.867 396.000,12.353 396.000 C 12.770 396.000,13.200 396.357,13.316 396.800 C 13.476 397.413,13.862 397.600,14.963 397.600 C 16.133 397.600,16.400 397.748,16.400 398.400 C 16.400 399.067,16.667 399.200,18.000 399.200 C 18.880 399.200,19.600 399.380,19.600 399.600 C 19.600 399.866,80.000 400.000,200.000 400.000 C 320.000 400.000,380.400 399.866,380.400 399.600 C 380.400 399.380,381.120 399.200,382.000 399.200 C 383.333 399.200,383.600 399.067,383.600 398.400 C 383.600 397.748,383.867 397.600,385.037 397.600 C 386.138 397.600,386.524 397.413,386.684 396.800 C 386.800 396.357,387.230 396.000,387.647 396.000 C 388.133 396.000,388.400 395.717,388.400 395.200 C 388.400 394.572,388.667 394.400,389.637 394.400 C 390.538 394.400,390.932 394.183,391.084 393.600 C 391.200 393.157,391.630 392.800,392.047 392.800 C 392.533 392.800,392.800 392.517,392.800 392.000 C 392.800 391.467,393.067 391.200,393.600 391.200 C 394.248 391.200,394.400 390.933,394.400 389.800 C 394.400 388.667,394.552 388.400,395.200 388.400 C 395.717 388.400,396.000 388.133,396.000 387.647 C 396.000 387.230,396.357 386.800,396.800 386.684 C 397.413 386.524,397.600 386.138,397.600 385.037 C 397.600 383.867,397.748 383.600,398.400 383.600 C 399.067 383.600,399.200 383.333,399.200 382.000 C 399.200 381.120,399.380 380.400,399.600 380.400 C 399.866 380.400,400.000 320.000,400.000 200.000 C 400.000 80.000,399.866 19.600,399.600 19.600 C 399.380 19.600,399.200 18.880,399.200 18.000 C 399.200 16.667,399.067 16.400,398.400 16.400 C 397.748 16.400,397.600 16.133,397.600 14.963 C 397.600 13.862,397.413 13.476,396.800 13.316 C 396.357 13.200,396.000 12.770,396.000 12.353 C 396.000 11.867,395.717 11.600,395.200 11.600 C 394.572 11.600,394.400 11.333,394.400 10.363 C 394.400 9.462,394.183 9.068,393.600 8.916 C 393.157 8.800,392.800 8.370,392.800 7.953 C 392.800 7.482,392.518 7.200,392.047 7.200 C 391.630 7.200,391.200 6.843,391.084 6.400 C 390.932 5.817,390.538 5.600,389.637 5.600 C 388.667 5.600,388.400 5.428,388.400 4.800 C 388.400 4.283,388.133 4.000,387.647 4.000 C 387.230 4.000,386.800 3.643,386.684 3.200 C 386.524 2.587,386.138 2.400,385.037 2.400 C 383.867 2.400,383.600 2.252,383.600 1.600 C 383.600 0.933,383.333 0.800,382.000 0.800 C 381.120 0.800,380.400 0.620,380.400 0.400 C 380.400 0.134,320.000 0.000,200.000 0.000 C 80.000 0.000,19.600 0.134,19.600 0.400 M278.350 71.300 C 279.313 71.685,280.753 72.004,281.550 72.009 C 282.348 72.014,283.785 72.374,284.744 72.809 C 285.703 73.244,286.835 73.600,287.260 73.600 C 287.684 73.600,288.700 73.934,289.516 74.343 C 290.332 74.752,291.510 75.209,292.133 75.359 C 292.757 75.509,293.968 76.075,294.825 76.616 C 295.683 77.157,296.633 77.600,296.938 77.600 C 297.243 77.600,297.950 77.960,298.509 78.400 C 299.069 78.840,299.815 79.200,300.167 79.200 C 300.519 79.200,301.116 79.560,301.493 80.000 C 301.870 80.440,302.394 80.800,302.658 80.800 C 303.103 80.800,305.633 82.426,310.000 85.518 C 314.161 88.464,324.007 98.832,326.600 102.998 C 330.965 110.010,333.865 115.471,334.215 117.338 C 334.363 118.126,334.721 118.968,335.011 119.209 C 335.300 119.449,335.663 120.401,335.817 121.323 C 335.970 122.245,336.434 123.668,336.848 124.484 C 337.262 125.300,337.600 126.673,337.600 127.535 C 337.600 128.397,337.915 129.799,338.300 130.651 C 339.352 132.978,339.389 273.943,338.338 276.800 C 337.974 277.790,337.579 279.537,337.459 280.682 C 337.340 281.827,336.983 283.177,336.666 283.682 C 336.349 284.187,335.967 285.299,335.817 286.154 C 335.666 287.009,335.196 288.356,334.772 289.148 C 334.347 289.940,334.000 290.793,334.000 291.043 C 334.000 292.210,329.127 301.402,327.127 304.007 C 326.537 304.776,325.811 305.873,325.515 306.444 C 324.456 308.485,313.145 320.305,310.676 321.950 C 308.579 323.347,307.331 324.224,305.642 325.486 C 304.676 326.209,303.582 326.800,303.212 326.800 C 302.842 326.800,302.117 327.250,301.600 327.800 C 301.083 328.350,300.493 328.800,300.287 328.800 C 299.779 328.800,294.746 331.188,294.000 331.783 C 293.670 332.047,292.590 332.492,291.600 332.772 C 290.610 333.053,289.620 333.421,289.400 333.589 C 289.180 333.758,288.286 334.025,287.414 334.182 C 286.541 334.340,285.332 334.725,284.726 335.038 C 284.120 335.351,282.584 335.764,281.312 335.955 C 280.041 336.145,277.904 336.596,276.565 336.957 C 272.703 337.997,130.041 337.750,128.120 336.700 C 127.416 336.315,126.156 335.992,125.320 335.982 C 124.484 335.973,123.080 335.691,122.200 335.357 C 121.320 335.022,119.790 334.498,118.800 334.193 C 115.415 333.147,112.975 332.182,111.464 331.291 C 110.634 330.801,109.767 330.400,109.539 330.400 C 109.310 330.400,108.646 330.066,108.062 329.658 C 107.478 329.250,106.510 328.798,105.912 328.654 C 105.313 328.509,104.632 328.033,104.397 327.595 C 104.163 327.158,103.642 326.800,103.240 326.800 C 102.837 326.800,102.079 326.467,101.554 326.061 C 101.029 325.654,99.340 324.451,97.800 323.388 C 92.575 319.778,82.756 309.745,79.800 304.994 C 79.140 303.933,78.077 302.241,77.439 301.233 C 75.482 298.144,72.001 291.050,72.000 290.149 C 72.000 289.681,71.750 289.090,71.443 288.836 C 71.137 288.582,70.763 287.525,70.612 286.487 C 70.461 285.449,70.078 284.196,69.762 283.703 C 69.445 283.210,69.081 281.950,68.954 280.903 C 68.827 279.856,68.425 278.190,68.062 277.200 C 67.012 274.343,67.049 133.057,68.100 130.492 C 68.485 129.552,68.800 128.150,68.800 127.376 C 68.800 126.602,69.136 125.300,69.546 124.484 C 69.956 123.668,70.421 122.289,70.579 121.420 C 70.737 120.552,71.121 119.477,71.433 119.031 C 71.745 118.586,72.000 117.898,72.000 117.502 C 72.000 116.292,76.849 107.071,78.784 104.600 C 79.129 104.160,79.758 103.170,80.184 102.400 C 83.345 96.677,98.636 82.449,103.171 81.009 C 103.569 80.883,104.216 80.424,104.609 79.990 C 105.002 79.555,105.632 79.200,106.008 79.200 C 106.384 79.200,107.150 78.840,107.709 78.400 C 108.269 77.960,108.968 77.597,109.263 77.593 C 109.558 77.589,110.700 77.052,111.800 76.400 C 112.900 75.748,114.116 75.211,114.501 75.207 C 114.887 75.203,115.875 74.840,116.696 74.400 C 117.516 73.960,118.596 73.600,119.096 73.600 C 119.595 73.600,120.675 73.240,121.496 72.800 C 122.316 72.360,123.744 72.000,124.668 72.000 C 125.592 72.000,126.855 71.795,127.474 71.545 C 128.093 71.295,129.230 70.954,130.000 70.788 C 133.373 70.060,276.485 70.554,278.350 71.300 M132.200 95.616 C 130.880 96.041,129.253 96.391,128.585 96.394 C 127.916 96.397,126.663 96.760,125.800 97.200 C 124.937 97.640,124.046 98.000,123.821 98.000 C 123.446 98.000,120.117 99.492,118.200 100.518 C 117.760 100.754,116.860 101.215,116.200 101.542 C 115.540 101.870,114.261 102.737,113.359 103.469 C 112.456 104.201,111.524 104.800,111.288 104.800 C 110.192 104.800,100.000 115.977,100.000 117.179 C 100.000 117.410,99.629 117.971,99.175 118.425 C 98.182 119.418,94.594 126.857,94.199 128.742 C 94.045 129.480,93.598 130.830,93.207 131.742 C 91.934 134.709,91.800 141.562,91.800 203.800 C 91.800 266.323,91.937 273.505,93.180 276.000 C 93.564 276.770,94.007 278.095,94.165 278.945 C 94.528 280.894,97.791 287.831,99.051 289.331 C 99.573 289.953,100.000 290.647,100.000 290.873 C 100.000 292.396,108.730 301.348,112.957 304.159 C 116.712 306.657,122.166 309.600,123.039 309.600 C 123.369 309.600,124.216 309.900,124.920 310.267 C 125.624 310.633,127.190 311.153,128.400 311.422 C 129.610 311.692,131.696 312.205,133.036 312.563 C 136.719 313.547,272.227 313.352,274.407 312.359 C 275.180 312.007,276.695 311.587,277.772 311.425 C 278.850 311.264,280.374 310.787,281.160 310.366 C 281.945 309.945,282.897 309.600,283.275 309.600 C 284.223 309.600,289.548 306.751,293.400 304.182 C 297.498 301.450,306.400 292.347,306.400 290.889 C 306.400 290.654,306.823 289.953,307.340 289.331 C 308.739 287.649,311.951 280.792,312.356 278.623 C 312.551 277.582,312.910 276.530,313.155 276.285 C 313.400 276.040,313.604 274.931,313.608 273.820 C 313.612 272.709,313.791 270.630,314.004 269.200 C 314.242 267.609,314.399 242.472,314.409 204.400 C 314.425 141.658,314.295 135.024,312.980 131.600 C 312.685 130.830,312.327 129.570,312.186 128.800 C 311.870 127.075,308.128 119.328,307.129 118.329 C 306.728 117.928,306.400 117.409,306.400 117.176 C 306.400 116.109,296.128 104.800,295.159 104.800 C 294.790 104.800,291.925 102.906,291.609 102.453 C 291.305 102.018,283.056 98.000,282.467 98.000 C 282.193 98.000,281.262 97.640,280.400 97.200 C 279.538 96.760,278.330 96.398,277.716 96.395 C 277.102 96.392,275.459 96.032,274.064 95.595 C 270.148 94.367,136.018 94.387,132.200 95.616 M281.000 115.557 C 287.518 116.678,294.400 125.264,294.400 132.275 C 294.400 137.945,289.801 145.425,284.859 147.793 C 283.617 148.388,282.122 149.129,281.538 149.438 C 279.787 150.365,272.380 150.205,270.504 149.200 C 269.684 148.760,268.793 148.400,268.526 148.400 C 267.079 148.400,262.193 144.159,261.003 141.872 C 260.639 141.172,260.087 140.150,259.777 139.600 C 259.466 139.050,259.203 138.240,259.192 137.800 C 259.181 137.360,258.914 136.550,258.600 136.000 C 257.846 134.681,257.846 130.743,258.600 128.938 C 258.930 128.149,259.200 127.132,259.200 126.680 C 259.200 123.404,267.571 115.614,271.112 115.594 C 271.711 115.591,272.995 115.350,273.966 115.060 C 275.168 114.701,276.255 114.641,277.366 114.872 C 278.265 115.060,279.900 115.368,281.000 115.557 M212.800 135.321 C 213.570 135.636,215.519 136.011,217.131 136.153 C 218.743 136.295,220.543 136.654,221.131 136.950 C 221.719 137.246,222.972 137.607,223.915 137.751 C 224.858 137.896,226.295 138.371,227.109 138.807 C 227.922 139.243,228.809 139.600,229.078 139.600 C 230.187 139.600,241.051 145.504,243.799 147.600 C 244.520 148.150,245.518 148.870,246.016 149.200 C 249.883 151.758,257.056 158.946,259.786 162.998 C 260.823 164.537,261.790 165.887,261.935 165.998 C 262.081 166.109,262.729 167.190,263.376 168.400 C 264.023 169.610,264.788 170.838,265.076 171.128 C 265.363 171.418,265.717 172.138,265.860 172.728 C 266.004 173.318,266.455 174.229,266.861 174.754 C 267.267 175.279,267.600 176.060,267.600 176.491 C 267.600 176.921,267.960 177.731,268.400 178.291 C 268.840 178.850,269.200 179.691,269.200 180.160 C 269.200 180.628,269.560 181.684,270.000 182.504 C 270.440 183.325,270.804 184.583,270.809 185.299 C 270.814 186.014,271.191 187.410,271.647 188.400 C 273.865 193.213,273.865 214.787,271.647 219.600 C 271.191 220.590,270.814 221.986,270.809 222.701 C 270.804 223.417,270.440 224.675,270.000 225.496 C 269.560 226.316,269.200 227.372,269.200 227.840 C 269.200 228.309,268.840 229.150,268.400 229.709 C 267.960 230.269,267.600 231.044,267.600 231.432 C 267.600 231.820,267.332 232.433,267.004 232.795 C 266.677 233.157,266.179 234.071,265.898 234.827 C 265.328 236.358,263.668 239.174,261.693 241.958 C 260.974 242.971,259.894 244.610,259.294 245.600 C 256.572 250.089,246.312 259.182,239.842 262.839 C 238.279 263.722,236.550 264.712,236.000 265.038 C 234.242 266.079,229.254 268.400,228.773 268.400 C 228.518 268.400,227.654 268.734,226.854 269.143 C 224.898 270.142,220.885 271.166,217.034 271.648 C 215.293 271.866,213.246 272.304,212.485 272.622 C 210.455 273.470,195.995 273.445,193.568 272.589 C 192.616 272.253,190.568 271.814,189.018 271.614 C 185.454 271.154,181.424 270.103,179.546 269.143 C 178.746 268.734,177.882 268.400,177.627 268.400 C 177.001 268.400,171.152 265.657,170.400 265.010 C 170.070 264.727,169.378 264.366,168.862 264.208 C 167.960 263.933,165.286 262.307,163.200 260.765 C 162.650 260.359,161.210 259.355,160.000 258.534 C 154.977 255.127,148.121 247.643,143.800 240.848 C 141.965 237.963,140.874 236.000,140.488 234.888 C 140.238 234.167,139.756 233.299,139.417 232.960 C 139.077 232.620,138.800 231.979,138.800 231.535 C 138.800 231.090,138.440 230.269,138.000 229.709 C 137.560 229.150,137.200 228.309,137.200 227.840 C 137.200 227.372,136.853 226.340,136.428 225.548 C 136.004 224.756,135.541 223.409,135.401 222.554 C 135.260 221.699,134.811 220.010,134.404 218.800 C 132.570 213.353,132.572 194.679,134.408 189.200 C 134.813 187.990,135.260 186.301,135.401 185.446 C 135.541 184.591,136.004 183.244,136.428 182.452 C 136.853 181.660,137.200 180.628,137.200 180.160 C 137.200 179.691,137.560 178.850,138.000 178.291 C 138.440 177.731,138.800 176.921,138.800 176.491 C 138.800 176.060,139.133 175.279,139.539 174.754 C 139.945 174.229,140.390 173.350,140.526 172.800 C 140.663 172.250,141.410 170.839,142.187 169.665 C 142.964 168.491,143.600 167.373,143.600 167.181 C 143.600 166.988,143.923 166.509,144.318 166.116 C 144.713 165.722,145.878 164.134,146.908 162.586 C 149.415 158.816,156.615 151.688,160.429 149.200 C 160.935 148.870,161.721 148.220,162.175 147.755 C 162.629 147.289,163.900 146.424,165.000 145.832 C 166.100 145.239,168.080 144.139,169.400 143.387 C 170.720 142.635,172.250 141.832,172.800 141.603 C 173.350 141.374,174.455 140.829,175.254 140.393 C 176.054 139.957,176.957 139.600,177.260 139.600 C 177.564 139.600,178.478 139.243,179.291 138.807 C 180.105 138.371,181.542 137.896,182.485 137.751 C 183.428 137.607,184.672 137.251,185.248 136.961 C 185.825 136.670,187.535 136.321,189.048 136.184 C 190.562 136.047,192.340 135.742,193.000 135.506 C 196.331 134.316,210.036 134.188,212.800 135.321 M195.600 160.029 C 194.170 160.451,192.370 160.799,191.600 160.801 C 190.830 160.803,189.660 161.163,189.000 161.600 C 188.340 162.037,187.288 162.396,186.663 162.397 C 186.038 162.399,185.069 162.760,184.509 163.200 C 183.950 163.640,183.181 164.000,182.800 164.000 C 182.419 164.000,181.650 164.360,181.091 164.800 C 180.531 165.240,179.896 165.600,179.678 165.600 C 178.228 165.600,168.863 173.971,166.925 177.000 C 166.362 177.880,165.563 178.972,165.150 179.426 C 164.177 180.497,160.801 187.110,160.797 187.953 C 160.796 188.309,160.437 189.140,160.000 189.800 C 159.563 190.460,159.203 191.540,159.200 192.200 C 159.197 192.860,158.836 194.896,158.397 196.725 C 156.450 204.847,157.982 214.637,162.696 224.200 C 166.136 231.179,174.246 239.825,179.460 242.072 C 180.087 242.342,180.922 242.887,181.316 243.282 C 181.709 243.677,182.452 244.000,182.967 244.000 C 183.481 244.000,184.122 244.265,184.391 244.589 C 184.660 244.914,185.537 245.300,186.340 245.448 C 187.143 245.596,188.427 246.051,189.194 246.459 C 189.961 246.866,191.221 247.200,191.995 247.200 C 192.769 247.200,194.661 247.560,196.200 248.000 C 198.199 248.572,200.197 248.800,203.200 248.800 C 206.203 248.800,208.201 248.572,210.200 248.000 C 211.739 247.560,213.590 247.200,214.315 247.200 C 215.039 247.200,216.300 246.864,217.116 246.454 C 217.932 246.044,219.257 245.589,220.060 245.443 C 220.863 245.298,221.740 244.914,222.009 244.589 C 222.278 244.265,222.898 244.000,223.387 244.000 C 223.876 244.000,224.598 243.645,224.991 243.210 C 225.384 242.776,226.074 242.303,226.524 242.160 C 230.558 240.880,239.840 231.628,242.729 226.007 C 243.240 225.013,244.095 223.448,244.629 222.529 C 245.163 221.610,245.600 220.527,245.600 220.123 C 245.600 219.719,245.960 218.716,246.400 217.896 C 246.840 217.075,247.200 215.817,247.200 215.100 C 247.200 214.384,247.560 212.539,248.000 211.000 C 248.572 208.999,248.800 207.003,248.800 203.993 C 248.800 201.013,248.566 198.941,248.000 196.897 C 247.560 195.309,247.200 193.461,247.200 192.789 C 247.200 192.118,246.840 190.862,246.400 190.000 C 245.960 189.138,245.600 188.173,245.600 187.857 C 245.600 187.244,243.401 182.859,242.773 182.220 C 242.568 182.011,242.400 181.538,242.400 181.169 C 242.400 180.800,242.111 180.258,241.758 179.965 C 241.405 179.672,240.428 178.435,239.587 177.216 C 236.921 173.353,229.326 166.587,226.772 165.800 C 226.237 165.635,225.478 165.163,225.084 164.750 C 224.691 164.338,223.999 164.000,223.548 164.000 C 223.096 164.000,222.269 163.640,221.709 163.200 C 221.150 162.760,220.221 162.399,219.646 162.397 C 219.071 162.396,218.060 162.037,217.400 161.600 C 216.740 161.163,215.569 160.804,214.799 160.803 C 214.028 160.801,212.139 160.440,210.600 160.000 C 206.792 158.911,199.337 158.925,195.600 160.029 " stroke="none" fill="#54ccf4" fill-rule="evenodd"></path></g></svg>