<svg id="svg" version="1.1" xmlns="http://www.w3.org/2000/svg" xmlns:xlink="http://www.w3.org/1999/xlink" width="400" height="400" viewBox="0, 0, 400,400"><g id="svgg"><path id="path0" d="M93.988 59.032 C 93.734 59.699,93.632 97.776,93.698 166.866 L 93.800 273.668 108.024 287.734 C 152.812 332.026,156.920 335.999,157.464 335.547 C 157.908 335.178,158.000 322.447,158.000 260.984 C 158.000 220.219,158.102 186.601,158.226 186.277 C 158.827 184.711,155.687 181.676,227.818 253.546 C 299.337 324.805,311.362 336.594,312.081 336.150 C 312.256 336.042,312.400 315.830,312.400 291.236 L 312.400 246.519 295.071 229.359 C 270.212 204.743,249.899 184.728,248.834 183.800 C 247.931 183.013,247.197 182.997,203.058 182.800 L 158.200 182.600 158.097 151.820 L 157.995 121.040 126.441 89.520 C 109.086 72.184,94.773 58.000,94.634 58.000 C 94.494 58.000,94.204 58.464,93.988 59.032 M248.643 59.033 C 248.509 59.381,248.395 86.066,248.390 118.333 L 248.379 177.000 266.090 194.541 C 275.830 204.188,289.929 218.183,297.419 225.641 C 304.909 233.098,311.344 239.200,311.719 239.200 C 312.357 239.200,312.400 235.491,312.400 180.058 L 312.400 120.916 281.700 90.271 C 247.278 55.911,249.159 57.688,248.643 59.033 " stroke="none" fill="#fbfbfb" fill-rule="evenodd"></path><path id="path1" d="M20.000 0.400 C 20.000 0.620,19.263 0.800,18.363 0.800 C 17.062 0.800,16.682 0.964,16.516 1.600 C 16.357 2.206,15.970 2.400,14.916 2.400 C 13.862 2.400,13.475 2.594,13.316 3.200 C 13.200 3.643,12.770 4.000,12.353 4.000 C 11.867 4.000,11.600 4.283,11.600 4.800 C 11.600 5.382,11.333 5.600,10.623 5.600 C 10.085 5.600,9.410 5.927,9.123 6.326 C 8.835 6.726,8.285 7.170,7.900 7.314 C 7.515 7.457,7.200 7.807,7.200 8.091 C 7.200 8.375,6.840 8.832,6.400 9.107 C 5.948 9.390,5.600 10.040,5.600 10.603 C 5.600 11.333,5.386 11.600,4.800 11.600 C 4.283 11.600,4.000 11.867,4.000 12.353 C 4.000 12.770,3.643 13.200,3.200 13.316 C 2.587 13.476,2.400 13.862,2.400 14.963 C 2.400 16.133,2.252 16.400,1.600 16.400 C 0.919 16.400,0.800 16.667,0.800 18.200 C 0.800 19.190,0.620 20.000,0.400 20.000 C 0.134 20.000,0.000 80.267,0.000 200.000 C 0.000 319.733,0.134 380.000,0.400 380.000 C 0.620 380.000,0.800 380.737,0.800 381.637 C 0.800 382.938,0.964 383.318,1.600 383.484 C 2.206 383.643,2.400 384.030,2.400 385.084 C 2.400 386.138,2.594 386.525,3.200 386.684 C 3.643 386.800,4.000 387.230,4.000 387.647 C 4.000 388.133,4.283 388.400,4.800 388.400 C 5.428 388.400,5.600 388.667,5.600 389.637 C 5.600 390.538,5.817 390.932,6.400 391.084 C 6.840 391.199,7.200 391.559,7.200 391.884 C 7.200 392.209,7.560 392.569,8.000 392.684 C 8.440 392.799,8.800 393.123,8.800 393.404 C 8.800 393.974,9.670 394.400,10.833 394.400 C 11.333 394.400,11.600 394.678,11.600 395.200 C 11.600 395.717,11.867 396.000,12.353 396.000 C 12.770 396.000,13.200 396.357,13.316 396.800 C 13.475 397.406,13.862 397.600,14.916 397.600 C 15.970 397.600,16.357 397.794,16.516 398.400 C 16.682 399.036,17.062 399.200,18.363 399.200 C 19.263 399.200,20.000 399.380,20.000 399.600 C 20.000 399.866,80.267 400.000,200.000 400.000 C 319.733 400.000,380.000 399.866,380.000 399.600 C 380.000 399.380,380.737 399.200,381.637 399.200 C 382.938 399.200,383.318 399.036,383.484 398.400 C 383.643 397.794,384.030 397.600,385.084 397.600 C 386.138 397.600,386.525 397.406,386.684 396.800 C 386.800 396.357,387.230 396.000,387.647 396.000 C 388.133 396.000,388.400 395.717,388.400 395.200 C 388.400 394.678,388.667 394.400,389.167 394.400 C 390.330 394.400,391.200 393.974,391.200 393.404 C 391.200 393.123,391.560 392.799,392.000 392.684 C 392.440 392.569,392.800 392.209,392.800 391.884 C 392.800 391.559,393.160 391.199,393.600 391.084 C 394.183 390.932,394.400 390.538,394.400 389.637 C 394.400 388.667,394.572 388.400,395.200 388.400 C 395.717 388.400,396.000 388.133,396.000 387.647 C 396.000 387.230,396.357 386.800,396.800 386.684 C 397.406 386.525,397.600 386.138,397.600 385.084 C 397.600 384.030,397.794 383.643,398.400 383.484 C 399.036 383.318,399.200 382.938,399.200 381.637 C 399.200 380.737,399.380 380.000,399.600 380.000 C 399.866 380.000,400.000 319.733,400.000 200.000 C 400.000 80.267,399.866 20.000,399.600 20.000 C 399.380 20.000,399.200 19.263,399.200 18.363 C 399.200 17.062,399.036 16.682,398.400 16.516 C 397.794 16.357,397.600 15.970,397.600 14.916 C 397.600 13.862,397.406 13.475,396.800 13.316 C 396.357 13.200,396.000 12.770,396.000 12.353 C 396.000 11.867,395.717 11.600,395.200 11.600 C 394.614 11.600,394.400 11.333,394.400 10.603 C 394.400 10.040,394.052 9.390,393.600 9.107 C 393.160 8.832,392.800 8.375,392.800 8.091 C 392.800 7.807,392.485 7.457,392.100 7.314 C 391.715 7.170,391.165 6.726,390.877 6.326 C 390.590 5.927,389.915 5.600,389.377 5.600 C 388.667 5.600,388.400 5.382,388.400 4.800 C 388.400 4.283,388.133 4.000,387.647 4.000 C 387.230 4.000,386.800 3.643,386.684 3.200 C 386.525 2.594,386.138 2.400,385.084 2.400 C 384.030 2.400,383.643 2.206,383.484 1.600 C 383.318 0.964,382.938 0.800,381.637 0.800 C 380.737 0.800,380.000 0.620,380.000 0.400 C 380.000 0.134,319.733 0.000,200.000 0.000 C 80.267 0.000,20.000 0.134,20.000 0.400 M126.441 89.520 L 157.995 121.040 158.097 151.820 L 158.200 182.600 203.058 182.800 C 247.197 182.997,247.931 183.013,248.834 183.800 C 249.899 184.728,270.212 204.743,295.071 229.359 L 312.400 246.519 312.400 291.236 C 312.400 315.830,312.256 336.042,312.081 336.150 C 311.362 336.594,299.337 324.805,227.818 253.546 C 155.687 181.676,158.827 184.711,158.226 186.277 C 158.102 186.601,158.000 220.219,158.000 260.984 C 158.000 322.447,157.908 335.178,157.464 335.547 C 156.920 335.999,152.812 332.026,108.024 287.734 L 93.800 273.668 93.698 166.866 C 93.601 65.863,93.669 58.000,94.634 58.000 C 94.773 58.000,109.086 72.184,126.441 89.520 M250.200 59.026 C 250.640 59.356,264.815 73.417,281.700 90.271 L 312.400 120.916 312.400 180.058 C 312.400 235.491,312.357 239.200,311.719 239.200 C 311.344 239.200,304.909 233.098,297.419 225.641 C 289.929 218.183,275.830 204.188,266.090 194.541 L 248.379 177.000 248.390 118.333 C 248.395 86.066,248.509 59.381,248.643 59.033 C 248.940 58.258,249.176 58.257,250.200 59.026 " stroke="none" fill="#54ccf4" fill-rule="evenodd"></path></g></svg>