<svg id="svg" version="1.1" xmlns="http://www.w3.org/2000/svg" xmlns:xlink="http://www.w3.org/1999/xlink" width="70" height="70" viewBox="0, 0, 400,400"><g id="svgg"><path id="path0" d="M156.430 81.227 C 155.457 81.422,153.837 81.842,152.830 82.160 C 151.824 82.478,149.920 82.859,148.600 83.007 C 147.280 83.156,146.020 83.419,145.800 83.593 C 145.580 83.767,144.590 84.033,143.600 84.184 C 142.610 84.334,140.764 84.805,139.498 85.229 C 138.233 85.653,136.767 86.000,136.242 86.000 C 135.717 86.000,134.503 86.356,133.544 86.791 C 132.585 87.226,131.293 87.586,130.674 87.591 C 130.054 87.596,129.163 87.806,128.692 88.058 C 128.222 88.309,127.019 88.748,126.018 89.032 C 122.910 89.916,112.149 93.704,110.772 94.400 C 110.426 94.574,108.896 95.199,107.372 95.788 C 103.636 97.232,99.974 98.818,99.000 99.415 C 98.560 99.684,97.750 100.022,97.200 100.166 C 96.298 100.401,92.532 105.004,92.044 106.469 C 91.947 106.759,91.291 107.817,90.586 108.821 C 89.880 109.824,89.183 111.023,89.036 111.486 C 88.890 111.948,88.506 112.427,88.185 112.550 C 87.863 112.674,87.600 113.096,87.599 113.487 C 87.599 113.879,86.900 115.206,86.047 116.436 C 85.193 117.666,84.376 119.045,84.232 119.500 C 84.087 119.955,83.706 120.546,83.385 120.813 C 83.063 121.080,82.800 121.608,82.800 121.987 C 82.800 122.366,82.440 123.002,82.000 123.400 C 81.560 123.798,81.200 124.445,81.200 124.838 C 81.200 125.231,81.030 125.658,80.822 125.786 C 80.614 125.915,79.432 128.040,78.194 130.510 C 76.956 132.979,75.783 135.270,75.587 135.600 C 75.391 135.930,74.763 137.280,74.191 138.600 C 73.619 139.920,72.982 141.270,72.775 141.600 C 72.568 141.930,72.214 142.650,71.988 143.200 C 71.763 143.750,71.289 144.830,70.935 145.600 C 68.350 151.223,67.279 154.020,67.042 155.768 C 66.924 156.630,66.683 157.440,66.505 157.568 C 66.007 157.925,64.000 161.999,64.000 162.653 C 64.000 162.971,63.640 163.938,63.200 164.800 C 62.760 165.662,62.400 166.785,62.400 167.295 C 62.400 167.805,62.145 168.586,61.833 169.031 C 61.521 169.477,61.141 170.552,60.988 171.420 C 60.835 172.289,60.465 173.392,60.164 173.872 C 59.864 174.351,59.499 175.521,59.354 176.472 C 59.208 177.422,58.869 178.650,58.600 179.200 C 58.331 179.750,57.994 180.963,57.852 181.894 C 57.709 182.826,57.343 184.176,57.038 184.894 C 56.733 185.613,56.299 187.100,56.073 188.200 C 55.847 189.300,55.476 190.920,55.249 191.800 C 54.128 196.131,53.200 200.543,53.200 201.542 C 53.200 202.154,52.844 203.992,52.409 205.627 C 51.975 207.262,51.611 209.320,51.601 210.200 C 51.591 211.080,51.311 212.970,50.978 214.400 C 50.603 216.010,50.229 220.809,49.995 227.000 C 49.788 232.500,49.438 238.170,49.217 239.600 C 48.605 243.567,48.715 259.783,49.396 266.200 C 49.724 269.280,49.993 273.447,49.996 275.460 L 50.000 279.121 52.300 281.074 C 53.565 282.148,55.320 283.509,56.200 284.098 C 57.080 284.688,58.571 285.717,59.514 286.385 C 60.457 287.053,61.374 287.600,61.552 287.600 C 61.730 287.600,62.202 287.960,62.600 288.400 C 62.998 288.840,63.474 289.200,63.658 289.200 C 63.841 289.200,65.028 289.920,66.296 290.799 C 67.563 291.679,68.737 292.399,68.904 292.399 C 69.071 292.400,70.061 292.989,71.104 293.709 C 72.147 294.429,73.450 295.243,74.000 295.517 C 74.550 295.791,75.720 296.450,76.600 296.980 C 77.480 297.511,78.740 298.224,79.400 298.564 C 80.060 298.905,80.915 299.368,81.300 299.592 C 82.672 300.392,83.470 300.799,89.200 303.624 C 92.390 305.197,95.270 306.646,95.600 306.844 C 95.930 307.043,96.470 307.317,96.800 307.453 C 97.130 307.590,98.334 308.129,99.475 308.651 C 100.617 309.173,101.727 309.600,101.943 309.600 C 102.159 309.600,102.845 309.861,103.468 310.180 C 105.624 311.286,108.205 312.354,109.400 312.636 C 110.060 312.792,110.955 313.163,111.389 313.460 C 111.823 313.757,112.460 314.000,112.804 314.000 C 113.149 314.000,114.116 314.350,114.954 314.777 C 115.792 315.204,117.013 315.671,117.666 315.814 C 118.319 315.958,119.337 316.327,119.927 316.635 C 120.517 316.943,121.360 317.197,121.800 317.200 C 122.240 317.203,123.078 317.454,123.661 317.759 C 127.416 319.718,128.595 319.532,130.419 316.693 C 131.158 315.542,131.901 314.542,132.069 314.471 C 132.237 314.400,132.953 313.320,133.661 312.071 C 134.368 310.822,135.050 309.710,135.175 309.600 C 135.709 309.130,137.600 306.121,137.600 305.740 C 137.600 305.511,137.960 304.998,138.400 304.600 C 138.840 304.202,139.200 303.566,139.200 303.187 C 139.200 302.808,139.463 302.280,139.784 302.013 C 140.105 301.747,140.924 300.420,141.602 299.064 C 142.974 296.326,143.432 295.508,144.491 293.906 C 145.320 292.653,144.851 291.383,143.401 290.954 C 142.463 290.676,139.593 289.423,137.600 288.421 C 136.830 288.034,135.661 287.586,135.002 287.426 C 134.343 287.266,133.623 286.985,133.402 286.802 C 133.181 286.618,130.480 285.186,127.400 283.618 C 119.115 279.402,118.788 278.860,122.787 275.963 C 124.922 274.417,126.530 274.366,129.196 275.760 C 130.290 276.332,131.399 276.800,131.661 276.800 C 131.923 276.800,132.421 277.038,132.769 277.328 C 133.116 277.619,134.030 278.054,134.800 278.296 C 135.570 278.537,137.460 279.209,139.000 279.789 C 140.540 280.369,142.430 281.020,143.200 281.236 C 143.970 281.451,145.050 281.868,145.600 282.162 C 146.150 282.456,147.320 282.826,148.200 282.984 C 149.080 283.142,150.000 283.437,150.245 283.639 C 150.490 283.841,151.700 284.194,152.935 284.422 C 154.169 284.650,155.679 285.097,156.290 285.416 C 156.900 285.734,157.899 285.996,158.510 285.998 C 159.120 285.999,160.644 286.360,161.896 286.800 C 163.148 287.240,164.757 287.600,165.472 287.600 C 166.187 287.600,167.548 287.863,168.497 288.186 C 169.445 288.508,171.747 288.951,173.611 289.170 C 175.475 289.389,177.630 289.759,178.400 289.991 C 179.170 290.223,182.320 290.592,185.400 290.811 C 188.480 291.031,192.710 291.383,194.800 291.594 C 199.702 292.090,208.313 292.086,213.400 291.587 C 215.600 291.371,219.830 291.017,222.800 290.801 C 225.770 290.585,228.830 290.218,229.600 289.986 C 230.370 289.753,232.468 289.404,234.263 289.210 C 236.058 289.016,238.359 288.574,239.377 288.228 C 240.395 287.883,241.987 287.599,242.914 287.598 C 243.841 287.596,245.114 287.327,245.742 287.000 C 246.370 286.672,247.900 286.237,249.142 286.032 C 250.384 285.828,252.069 285.377,252.887 285.030 C 253.705 284.684,254.785 284.399,255.287 284.398 C 255.789 284.396,256.703 284.133,257.317 283.812 C 257.931 283.492,259.101 283.113,259.917 282.970 C 260.733 282.827,261.763 282.484,262.206 282.208 C 262.649 281.931,263.639 281.574,264.406 281.413 C 265.173 281.253,266.163 280.893,266.606 280.613 C 267.049 280.334,268.039 279.968,268.806 279.801 C 269.573 279.634,270.555 279.251,270.989 278.949 C 271.423 278.647,272.019 278.400,272.314 278.400 C 272.608 278.400,273.873 277.930,275.125 277.355 C 280.090 275.076,280.628 274.855,281.400 274.783 C 283.026 274.631,283.540 274.835,285.548 276.434 C 289.031 279.208,288.915 279.335,277.891 284.844 C 271.055 288.259,269.017 289.200,268.455 289.200 C 268.203 289.200,267.325 289.560,266.504 290.000 C 265.684 290.440,264.797 290.800,264.535 290.800 C 263.325 290.800,262.332 292.873,263.115 293.765 C 263.518 294.224,264.062 295.050,264.325 295.600 C 265.299 297.640,267.722 301.780,268.252 302.309 C 268.554 302.611,268.800 303.101,268.800 303.400 C 268.800 303.699,269.034 304.181,269.319 304.471 C 269.822 304.982,271.881 308.314,273.281 310.881 C 273.656 311.568,274.106 312.236,274.281 312.365 C 274.457 312.494,274.780 312.888,275.000 313.241 C 278.805 319.340,279.198 319.639,282.024 318.587 C 283.001 318.223,284.610 317.677,285.600 317.374 C 288.617 316.449,292.177 315.145,292.600 314.809 C 292.820 314.635,293.630 314.358,294.400 314.193 C 295.170 314.028,296.427 313.557,297.194 313.147 C 297.961 312.736,298.871 312.400,299.218 312.400 C 299.564 312.400,300.196 312.136,300.624 311.813 C 301.051 311.490,301.636 311.220,301.925 311.213 C 302.213 311.206,303.473 310.740,304.725 310.179 C 305.976 309.617,307.540 308.920,308.200 308.629 C 314.503 305.854,324.810 300.673,330.800 297.268 C 332.010 296.580,333.540 295.719,334.200 295.355 C 334.860 294.990,336.390 294.062,337.600 293.292 C 338.810 292.521,340.700 291.318,341.800 290.618 C 342.900 289.918,344.931 288.592,346.313 287.672 C 347.694 286.753,348.991 286.000,349.193 286.000 C 349.395 286.000,349.704 285.769,349.880 285.486 C 350.056 285.203,351.190 284.323,352.400 283.530 C 353.610 282.737,355.370 281.393,356.312 280.544 L 358.024 279.000 358.658 273.800 C 360.081 262.125,359.568 235.510,357.604 219.200 C 357.113 215.115,355.894 207.286,355.176 203.600 C 354.287 199.031,353.115 193.349,352.783 192.000 C 351.734 187.728,351.480 186.791,350.773 184.600 C 350.348 183.280,350.000 181.655,350.000 180.989 C 350.000 180.323,349.753 179.423,349.452 178.989 C 349.150 178.555,348.695 177.222,348.440 176.027 C 348.186 174.832,347.823 173.662,347.635 173.427 C 347.446 173.192,347.103 172.190,346.871 171.200 C 346.290 168.714,345.247 165.608,344.568 164.338 C 344.256 163.754,344.000 163.027,344.000 162.723 C 344.000 162.418,343.650 161.484,343.223 160.646 C 342.796 159.808,342.323 158.554,342.172 157.861 C 342.021 157.167,341.651 156.245,341.349 155.811 C 341.047 155.377,340.800 154.744,340.800 154.405 C 340.800 154.066,340.440 153.116,340.000 152.296 C 339.560 151.475,339.200 150.557,339.200 150.255 C 339.200 149.954,338.840 149.250,338.400 148.691 C 337.960 148.131,337.600 147.378,337.600 147.016 C 337.600 146.654,337.254 145.693,336.831 144.879 C 336.407 144.066,335.315 141.780,334.402 139.800 C 333.490 137.820,332.587 135.930,332.396 135.600 C 332.204 135.270,331.002 132.965,329.724 130.477 C 327.227 125.618,326.508 124.293,325.014 121.800 C 324.487 120.920,323.773 119.660,323.428 119.000 C 323.084 118.340,322.441 117.260,322.000 116.600 C 321.559 115.940,320.939 114.846,320.622 114.168 C 320.305 113.491,319.766 112.704,319.423 112.419 C 319.080 112.135,318.800 111.709,318.800 111.473 C 318.800 111.236,318.373 110.403,317.852 109.622 C 317.330 108.840,316.212 107.120,315.366 105.800 C 312.176 100.819,312.455 101.040,305.000 97.589 C 304.120 97.182,302.320 96.448,301.000 95.959 C 299.680 95.470,297.868 94.739,296.974 94.335 C 296.079 93.931,295.134 93.600,294.872 93.600 C 294.611 93.600,293.725 93.240,292.904 92.800 C 292.084 92.360,291.088 92.000,290.692 92.000 C 290.296 92.000,289.573 91.750,289.086 91.445 C 288.599 91.140,287.480 90.763,286.600 90.609 C 285.720 90.455,284.785 90.151,284.522 89.933 C 284.258 89.716,283.088 89.300,281.922 89.010 C 280.755 88.719,279.260 88.302,278.600 88.083 C 274.042 86.567,272.110 86.000,271.502 86.000 C 271.117 86.000,269.767 85.655,268.502 85.233 C 267.236 84.812,265.349 84.351,264.309 84.210 C 263.269 84.069,262.323 83.798,262.205 83.608 C 262.088 83.418,260.778 83.135,259.296 82.978 C 257.813 82.822,255.542 82.358,254.248 81.947 C 250.182 80.656,247.795 80.894,246.705 82.700 C 244.898 85.696,240.400 95.138,240.400 95.936 C 240.400 97.340,236.510 97.387,227.800 96.088 C 221.237 95.110,187.032 95.105,180.400 96.081 C 170.031 97.607,167.200 97.378,167.200 95.012 C 167.200 94.482,166.461 92.790,165.012 90.000 C 159.795 79.961,160.279 80.455,156.430 81.227 M157.248 181.186 C 158.924 181.401,160.814 181.842,161.448 182.166 C 162.082 182.489,163.409 183.145,164.398 183.622 C 166.259 184.520,169.459 186.965,171.200 188.819 C 173.266 191.020,174.624 192.691,175.109 193.630 C 175.385 194.164,176.139 195.569,176.785 196.753 C 177.431 197.937,178.080 199.467,178.226 200.153 C 178.373 200.839,178.659 201.607,178.862 201.860 C 179.547 202.712,180.091 209.762,179.844 214.574 C 179.540 220.496,178.437 224.152,175.260 229.766 C 173.312 233.209,165.786 240.400,164.131 240.400 C 163.997 240.400,163.148 240.742,162.244 241.161 C 160.310 242.056,154.080 243.600,152.400 243.600 C 148.722 243.600,138.032 239.703,137.434 238.145 C 137.319 237.845,136.974 237.600,136.667 237.600 C 136.147 237.600,134.388 235.843,131.311 232.252 C 130.023 230.749,128.774 228.687,128.008 226.800 C 127.785 226.250,127.435 225.530,127.230 225.200 C 124.423 220.668,123.933 207.428,126.326 200.800 C 130.278 189.857,138.604 182.442,148.516 181.039 C 150.542 180.752,152.650 180.580,153.200 180.656 C 153.750 180.732,155.572 180.970,157.248 181.186 M260.448 181.186 C 263.495 181.577,263.923 181.726,267.953 183.798 C 270.558 185.138,270.848 185.373,274.799 189.336 C 276.889 191.432,278.342 193.318,279.182 195.024 C 279.873 196.428,280.610 197.683,280.819 197.812 C 281.029 197.941,281.200 198.406,281.200 198.846 C 281.200 199.285,281.556 200.426,281.992 201.381 C 283.646 205.013,283.627 218.621,281.963 222.278 C 281.544 223.201,281.200 224.253,281.200 224.615 C 281.200 224.977,280.840 225.731,280.400 226.291 C 279.960 226.850,279.600 227.555,279.600 227.858 C 279.600 229.192,274.138 236.012,271.836 237.553 C 270.976 238.129,269.806 238.914,269.236 239.298 C 260.614 245.105,248.348 244.382,239.942 237.570 C 237.306 235.434,233.563 231.228,232.928 229.688 C 232.669 229.060,232.174 228.311,231.828 228.024 C 231.483 227.737,231.200 227.096,231.200 226.600 C 231.200 226.104,230.935 225.478,230.611 225.209 C 230.286 224.940,229.898 224.063,229.748 223.260 C 229.597 222.457,229.229 221.211,228.929 220.492 C 227.175 216.291,228.363 200.939,230.640 198.369 C 230.948 198.021,231.200 197.460,231.200 197.122 C 231.200 196.784,231.559 196.051,231.999 195.493 C 232.438 194.934,232.943 194.083,233.121 193.601 C 234.058 191.068,239.821 185.688,243.600 183.818 C 244.810 183.219,246.290 182.468,246.889 182.149 C 248.106 181.500,254.849 180.441,256.400 180.656 C 256.950 180.732,258.772 180.970,260.448 181.186 " stroke="none" fill="#fbfbfb" fill-rule="evenodd"></path><path id="path1" d="M20.000 0.400 C 20.000 0.620,19.263 0.800,18.363 0.800 C 17.062 0.800,16.682 0.964,16.516 1.600 C 16.357 2.206,15.970 2.400,14.916 2.400 C 13.862 2.400,13.475 2.594,13.316 3.200 C 13.200 3.643,12.770 4.000,12.353 4.000 C 11.867 4.000,11.600 4.283,11.600 4.800 C 11.600 5.382,11.333 5.600,10.623 5.600 C 10.085 5.600,9.410 5.927,9.123 6.326 C 8.835 6.726,8.285 7.170,7.900 7.314 C 7.515 7.457,7.200 7.807,7.200 8.091 C 7.200 8.375,6.840 8.832,6.400 9.107 C 5.948 9.390,5.600 10.040,5.600 10.603 C 5.600 11.333,5.386 11.600,4.800 11.600 C 4.283 11.600,4.000 11.867,4.000 12.353 C 4.000 12.770,3.643 13.200,3.200 13.316 C 2.587 13.476,2.400 13.862,2.400 14.963 C 2.400 16.133,2.252 16.400,1.600 16.400 C 0.919 16.400,0.800 16.667,0.800 18.200 C 0.800 19.190,0.620 20.000,0.400 20.000 C 0.134 20.000,0.000 80.267,0.000 200.000 C 0.000 319.733,0.134 380.000,0.400 380.000 C 0.620 380.000,0.800 380.737,0.800 381.637 C 0.800 382.938,0.964 383.318,1.600 383.484 C 2.206 383.643,2.400 384.030,2.400 385.084 C 2.400 386.138,2.594 386.525,3.200 386.684 C 3.643 386.800,4.000 387.230,4.000 387.647 C 4.000 388.133,4.283 388.400,4.800 388.400 C 5.428 388.400,5.600 388.667,5.600 389.637 C 5.600 390.538,5.817 390.932,6.400 391.084 C 6.840 391.199,7.200 391.559,7.200 391.884 C 7.200 392.209,7.560 392.569,8.000 392.684 C 8.440 392.799,8.800 393.123,8.800 393.404 C 8.800 393.974,9.670 394.400,10.833 394.400 C 11.333 394.400,11.600 394.678,11.600 395.200 C 11.600 395.717,11.867 396.000,12.353 396.000 C 12.770 396.000,13.200 396.357,13.316 396.800 C 13.475 397.406,13.862 397.600,14.916 397.600 C 15.970 397.600,16.357 397.794,16.516 398.400 C 16.682 399.036,17.062 399.200,18.363 399.200 C 19.263 399.200,20.000 399.380,20.000 399.600 C 20.000 399.866,80.267 400.000,200.000 400.000 C 319.733 400.000,380.000 399.866,380.000 399.600 C 380.000 399.380,380.737 399.200,381.637 399.200 C 382.938 399.200,383.318 399.036,383.484 398.400 C 383.643 397.794,384.030 397.600,385.084 397.600 C 386.138 397.600,386.525 397.406,386.684 396.800 C 386.800 396.357,387.230 396.000,387.647 396.000 C 388.133 396.000,388.400 395.717,388.400 395.200 C 388.400 394.678,388.667 394.400,389.167 394.400 C 390.330 394.400,391.200 393.974,391.200 393.404 C 391.200 393.123,391.560 392.799,392.000 392.684 C 392.440 392.569,392.800 392.209,392.800 391.884 C 392.800 391.559,393.160 391.199,393.600 391.084 C 394.183 390.932,394.400 390.538,394.400 389.637 C 394.400 388.667,394.572 388.400,395.200 388.400 C 395.717 388.400,396.000 388.133,396.000 387.647 C 396.000 387.230,396.357 386.800,396.800 386.684 C 397.406 386.525,397.600 386.138,397.600 385.084 C 397.600 384.030,397.794 383.643,398.400 383.484 C 399.036 383.318,399.200 382.938,399.200 381.637 C 399.200 380.737,399.380 380.000,399.600 380.000 C 399.866 380.000,400.000 319.733,400.000 200.000 C 400.000 80.267,399.866 20.000,399.600 20.000 C 399.380 20.000,399.200 19.263,399.200 18.363 C 399.200 17.062,399.036 16.682,398.400 16.516 C 397.794 16.357,397.600 15.970,397.600 14.916 C 397.600 13.862,397.406 13.475,396.800 13.316 C 396.357 13.200,396.000 12.770,396.000 12.353 C 396.000 11.867,395.717 11.600,395.200 11.600 C 394.614 11.600,394.400 11.333,394.400 10.603 C 394.400 10.040,394.052 9.390,393.600 9.107 C 393.160 8.832,392.800 8.375,392.800 8.091 C 392.800 7.807,392.485 7.457,392.100 7.314 C 391.715 7.170,391.165 6.726,390.877 6.326 C 390.590 5.927,389.915 5.600,389.377 5.600 C 388.667 5.600,388.400 5.382,388.400 4.800 C 388.400 4.283,388.133 4.000,387.647 4.000 C 387.230 4.000,386.800 3.643,386.684 3.200 C 386.525 2.594,386.138 2.400,385.084 2.400 C 384.030 2.400,383.643 2.206,383.484 1.600 C 383.318 0.964,382.938 0.800,381.637 0.800 C 380.737 0.800,380.000 0.620,380.000 0.400 C 380.000 0.134,319.733 0.000,200.000 0.000 C 80.267 0.000,20.000 0.134,20.000 0.400 M160.466 81.528 C 160.689 81.757,161.938 84.085,165.012 90.000 C 166.461 92.790,167.200 94.482,167.200 95.012 C 167.200 97.378,170.031 97.607,180.400 96.081 C 187.032 95.105,221.237 95.110,227.800 96.088 C 236.510 97.387,240.400 97.340,240.400 95.936 C 240.400 95.138,244.898 85.696,246.705 82.700 C 247.795 80.894,250.182 80.656,254.248 81.947 C 255.542 82.358,257.813 82.822,259.296 82.978 C 260.778 83.135,262.088 83.418,262.205 83.608 C 262.323 83.798,263.269 84.069,264.309 84.210 C 265.349 84.351,267.236 84.812,268.502 85.233 C 269.767 85.655,271.117 86.000,271.502 86.000 C 272.110 86.000,274.042 86.567,278.600 88.083 C 279.260 88.302,280.755 88.719,281.922 89.010 C 283.088 89.300,284.258 89.716,284.522 89.933 C 284.785 90.151,285.720 90.455,286.600 90.609 C 287.480 90.763,288.599 91.140,289.086 91.445 C 289.573 91.750,290.296 92.000,290.692 92.000 C 291.088 92.000,292.084 92.360,292.904 92.800 C 293.725 93.240,294.611 93.600,294.872 93.600 C 295.134 93.600,296.079 93.931,296.974 94.335 C 297.868 94.739,299.680 95.470,301.000 95.959 C 302.320 96.448,304.120 97.182,305.000 97.589 C 312.455 101.040,312.176 100.819,315.366 105.800 C 316.212 107.120,317.330 108.840,317.852 109.622 C 318.373 110.403,318.800 111.236,318.800 111.473 C 318.800 111.709,319.080 112.135,319.423 112.419 C 319.766 112.704,320.305 113.491,320.622 114.168 C 320.939 114.846,321.559 115.940,322.000 116.600 C 322.441 117.260,323.084 118.340,323.428 119.000 C 323.773 119.660,324.487 120.920,325.014 121.800 C 326.508 124.293,327.227 125.618,329.724 130.477 C 331.002 132.965,332.204 135.270,332.396 135.600 C 332.587 135.930,333.490 137.820,334.402 139.800 C 335.315 141.780,336.407 144.066,336.831 144.879 C 337.254 145.693,337.600 146.654,337.600 147.016 C 337.600 147.378,337.960 148.131,338.400 148.691 C 338.840 149.250,339.200 149.954,339.200 150.255 C 339.200 150.557,339.560 151.475,340.000 152.296 C 340.440 153.116,340.800 154.066,340.800 154.405 C 340.800 154.744,341.047 155.377,341.349 155.811 C 341.651 156.245,342.021 157.167,342.172 157.861 C 342.323 158.554,342.796 159.808,343.223 160.646 C 343.650 161.484,344.000 162.418,344.000 162.723 C 344.000 163.027,344.256 163.754,344.568 164.338 C 345.247 165.608,346.290 168.714,346.871 171.200 C 347.103 172.190,347.446 173.192,347.635 173.427 C 347.823 173.662,348.186 174.832,348.440 176.027 C 348.695 177.222,349.150 178.555,349.452 178.989 C 349.753 179.423,350.000 180.323,350.000 180.989 C 350.000 181.655,350.348 183.280,350.773 184.600 C 351.480 186.791,351.734 187.728,352.783 192.000 C 353.115 193.349,354.287 199.031,355.176 203.600 C 355.894 207.286,357.113 215.115,357.604 219.200 C 359.568 235.510,360.081 262.125,358.658 273.800 L 358.024 279.000 356.312 280.544 C 355.370 281.393,353.610 282.737,352.400 283.530 C 351.190 284.323,350.056 285.203,349.880 285.486 C 349.704 285.769,349.395 286.000,349.193 286.000 C 348.991 286.000,347.694 286.753,346.313 287.672 C 344.931 288.592,342.900 289.918,341.800 290.618 C 340.700 291.318,338.810 292.521,337.600 293.292 C 336.390 294.062,334.860 294.990,334.200 295.355 C 333.540 295.719,332.010 296.580,330.800 297.268 C 324.810 300.673,314.503 305.854,308.200 308.629 C 307.540 308.920,305.976 309.617,304.725 310.179 C 303.473 310.740,302.213 311.206,301.925 311.213 C 301.636 311.220,301.051 311.490,300.624 311.813 C 300.196 312.136,299.564 312.400,299.218 312.400 C 298.871 312.400,297.961 312.736,297.194 313.147 C 296.427 313.557,295.170 314.028,294.400 314.193 C 293.630 314.358,292.820 314.635,292.600 314.809 C 292.177 315.145,288.617 316.449,285.600 317.374 C 284.610 317.677,283.001 318.223,282.024 318.587 C 279.198 319.639,278.805 319.340,275.000 313.241 C 274.780 312.888,274.457 312.494,274.281 312.365 C 274.106 312.236,273.656 311.568,273.281 310.881 C 271.881 308.314,269.822 304.982,269.319 304.471 C 269.034 304.181,268.800 303.699,268.800 303.400 C 268.800 303.101,268.554 302.611,268.252 302.309 C 267.722 301.780,265.299 297.640,264.325 295.600 C 264.062 295.050,263.518 294.224,263.115 293.765 C 262.332 292.873,263.325 290.800,264.535 290.800 C 264.797 290.800,265.684 290.440,266.504 290.000 C 267.325 289.560,268.203 289.200,268.455 289.200 C 269.017 289.200,271.055 288.259,277.891 284.844 C 288.915 279.335,289.031 279.208,285.548 276.434 C 283.540 274.835,283.026 274.631,281.400 274.783 C 280.628 274.855,280.090 275.076,275.125 277.355 C 273.873 277.930,272.608 278.400,272.314 278.400 C 272.019 278.400,271.423 278.647,270.989 278.949 C 270.555 279.251,269.573 279.634,268.806 279.801 C 268.039 279.968,267.049 280.334,266.606 280.613 C 266.163 280.893,265.173 281.253,264.406 281.413 C 263.639 281.574,262.649 281.931,262.206 282.208 C 261.763 282.484,260.733 282.827,259.917 282.970 C 259.101 283.113,257.931 283.492,257.317 283.812 C 256.703 284.133,255.789 284.396,255.287 284.398 C 254.785 284.399,253.705 284.684,252.887 285.030 C 252.069 285.377,250.384 285.828,249.142 286.032 C 247.900 286.237,246.370 286.672,245.742 287.000 C 245.114 287.327,243.841 287.596,242.914 287.598 C 241.987 287.599,240.395 287.883,239.377 288.228 C 238.359 288.574,236.058 289.016,234.263 289.210 C 232.468 289.404,230.370 289.753,229.600 289.986 C 228.830 290.218,225.770 290.585,222.800 290.801 C 219.830 291.017,215.600 291.371,213.400 291.587 C 208.313 292.086,199.702 292.090,194.800 291.594 C 192.710 291.383,188.480 291.031,185.400 290.811 C 182.320 290.592,179.170 290.223,178.400 289.991 C 177.630 289.759,175.475 289.389,173.611 289.170 C 171.747 288.951,169.445 288.508,168.497 288.186 C 167.548 287.863,166.187 287.600,165.472 287.600 C 164.757 287.600,163.148 287.240,161.896 286.800 C 160.644 286.360,159.120 285.999,158.510 285.998 C 157.899 285.996,156.900 285.734,156.290 285.416 C 155.679 285.097,154.169 284.650,152.935 284.422 C 151.700 284.194,150.490 283.841,150.245 283.639 C 150.000 283.437,149.080 283.142,148.200 282.984 C 147.320 282.826,146.150 282.456,145.600 282.162 C 145.050 281.868,143.970 281.451,143.200 281.236 C 142.430 281.020,140.540 280.369,139.000 279.789 C 137.460 279.209,135.570 278.537,134.800 278.296 C 134.030 278.054,133.116 277.619,132.769 277.328 C 132.421 277.038,131.923 276.800,131.661 276.800 C 131.399 276.800,130.290 276.332,129.196 275.760 C 126.530 274.366,124.922 274.417,122.787 275.963 C 118.788 278.860,119.115 279.402,127.400 283.618 C 130.480 285.186,133.181 286.618,133.402 286.802 C 133.623 286.985,134.343 287.266,135.002 287.426 C 135.661 287.586,136.830 288.034,137.600 288.421 C 139.593 289.423,142.463 290.676,143.401 290.954 C 144.851 291.383,145.320 292.653,144.491 293.906 C 143.432 295.508,142.974 296.326,141.602 299.064 C 140.924 300.420,140.105 301.747,139.784 302.013 C 139.463 302.280,139.200 302.808,139.200 303.187 C 139.200 303.566,138.840 304.202,138.400 304.600 C 137.960 304.998,137.600 305.511,137.600 305.740 C 137.600 306.121,135.709 309.130,135.175 309.600 C 135.050 309.710,134.368 310.822,133.661 312.071 C 132.953 313.320,132.237 314.400,132.069 314.471 C 131.901 314.542,131.158 315.542,130.419 316.693 C 128.595 319.532,127.416 319.718,123.661 317.759 C 123.078 317.454,122.240 317.203,121.800 317.200 C 121.360 317.197,120.517 316.943,119.927 316.635 C 119.337 316.327,118.319 315.958,117.666 315.814 C 117.013 315.671,115.792 315.204,114.954 314.777 C 114.116 314.350,113.149 314.000,112.804 314.000 C 112.460 314.000,111.823 313.757,111.389 313.460 C 110.955 313.163,110.060 312.792,109.400 312.636 C 108.205 312.354,105.624 311.286,103.468 310.180 C 102.845 309.861,102.159 309.600,101.943 309.600 C 101.727 309.600,100.617 309.173,99.475 308.651 C 98.334 308.129,97.130 307.590,96.800 307.453 C 96.470 307.317,95.930 307.043,95.600 306.844 C 95.270 306.646,92.390 305.197,89.200 303.624 C 83.470 300.799,82.672 300.392,81.300 299.592 C 80.915 299.368,80.060 298.905,79.400 298.564 C 78.740 298.224,77.480 297.511,76.600 296.980 C 75.720 296.450,74.550 295.791,74.000 295.517 C 73.450 295.243,72.147 294.429,71.104 293.709 C 70.061 292.989,69.071 292.400,68.904 292.399 C 68.737 292.399,67.563 291.679,66.296 290.799 C 65.028 289.920,63.841 289.200,63.658 289.200 C 63.474 289.200,62.998 288.840,62.600 288.400 C 62.202 287.960,61.730 287.600,61.552 287.600 C 61.374 287.600,60.457 287.053,59.514 286.385 C 58.571 285.717,57.080 284.688,56.200 284.098 C 55.320 283.509,53.565 282.148,52.300 281.074 L 50.000 279.121 49.996 275.460 C 49.993 273.447,49.724 269.280,49.396 266.200 C 48.715 259.783,48.605 243.567,49.217 239.600 C 49.438 238.170,49.788 232.500,49.995 227.000 C 50.229 220.809,50.603 216.010,50.978 214.400 C 51.311 212.970,51.591 211.080,51.601 210.200 C 51.611 209.320,51.975 207.262,52.409 205.627 C 52.844 203.992,53.200 202.154,53.200 201.542 C 53.200 200.543,54.128 196.131,55.249 191.800 C 55.476 190.920,55.847 189.300,56.073 188.200 C 56.299 187.100,56.733 185.613,57.038 184.894 C 57.343 184.176,57.709 182.826,57.852 181.894 C 57.994 180.963,58.331 179.750,58.600 179.200 C 58.869 178.650,59.208 177.422,59.354 176.472 C 59.499 175.521,59.864 174.351,60.164 173.872 C 60.465 173.392,60.835 172.289,60.988 171.420 C 61.141 170.552,61.521 169.477,61.833 169.031 C 62.145 168.586,62.400 167.805,62.400 167.295 C 62.400 166.785,62.760 165.662,63.200 164.800 C 63.640 163.938,64.000 162.971,64.000 162.653 C 64.000 161.999,66.007 157.925,66.505 157.568 C 66.683 157.440,66.924 156.630,67.042 155.768 C 67.279 154.020,68.350 151.223,70.935 145.600 C 71.289 144.830,71.763 143.750,71.988 143.200 C 72.214 142.650,72.568 141.930,72.775 141.600 C 72.982 141.270,73.619 139.920,74.191 138.600 C 74.763 137.280,75.391 135.930,75.587 135.600 C 75.783 135.270,76.956 132.979,78.194 130.510 C 79.432 128.040,80.614 125.915,80.822 125.786 C 81.030 125.658,81.200 125.231,81.200 124.838 C 81.200 124.445,81.560 123.798,82.000 123.400 C 82.440 123.002,82.800 122.366,82.800 121.987 C 82.800 121.608,83.063 121.080,83.385 120.813 C 83.706 120.546,84.087 119.955,84.232 119.500 C 84.376 119.045,85.193 117.666,86.047 116.436 C 86.900 115.206,87.599 113.879,87.599 113.487 C 87.600 113.096,87.863 112.674,88.185 112.550 C 88.506 112.427,88.890 111.948,89.036 111.486 C 89.183 111.023,89.880 109.824,90.586 108.821 C 91.291 107.817,91.947 106.759,92.044 106.469 C 92.532 105.004,96.298 100.401,97.200 100.166 C 97.750 100.022,98.560 99.684,99.000 99.415 C 99.974 98.818,103.636 97.232,107.372 95.788 C 108.896 95.199,110.426 94.574,110.772 94.400 C 112.149 93.704,122.910 89.916,126.018 89.032 C 127.019 88.748,128.222 88.309,128.692 88.058 C 129.163 87.806,130.054 87.596,130.674 87.591 C 131.293 87.586,132.585 87.226,133.544 86.791 C 134.503 86.356,135.717 86.000,136.242 86.000 C 136.767 86.000,138.233 85.653,139.498 85.229 C 140.764 84.805,142.610 84.334,143.600 84.184 C 144.590 84.033,145.580 83.767,145.800 83.593 C 146.020 83.419,147.280 83.156,148.600 83.007 C 149.920 82.859,151.824 82.478,152.830 82.160 C 156.752 80.922,159.639 80.683,160.466 81.528 M148.516 181.039 C 138.604 182.442,130.278 189.857,126.326 200.800 C 123.933 207.428,124.423 220.668,127.230 225.200 C 127.435 225.530,127.785 226.250,128.008 226.800 C 128.774 228.687,130.023 230.749,131.311 232.252 C 134.388 235.843,136.147 237.600,136.667 237.600 C 136.974 237.600,137.319 237.845,137.434 238.145 C 138.032 239.703,148.722 243.600,152.400 243.600 C 154.080 243.600,160.310 242.056,162.244 241.161 C 163.148 240.742,163.997 240.400,164.131 240.400 C 165.786 240.400,173.312 233.209,175.260 229.766 C 178.437 224.152,179.540 220.496,179.844 214.574 C 180.091 209.762,179.547 202.712,178.862 201.860 C 178.659 201.607,178.373 200.839,178.226 200.153 C 178.080 199.467,177.431 197.937,176.785 196.753 C 176.139 195.569,175.385 194.164,175.109 193.630 C 174.624 192.691,173.266 191.020,171.200 188.819 C 169.459 186.965,166.259 184.520,164.398 183.622 C 163.409 183.145,162.082 182.489,161.448 182.166 C 160.814 181.842,158.924 181.401,157.248 181.186 C 155.572 180.970,153.750 180.732,153.200 180.656 C 152.650 180.580,150.542 180.752,148.516 181.039 M251.689 181.042 C 249.648 181.331,247.488 181.829,246.889 182.149 C 246.290 182.468,244.810 183.219,243.600 183.818 C 239.821 185.688,234.058 191.068,233.121 193.601 C 232.943 194.083,232.438 194.934,231.999 195.493 C 231.559 196.051,231.200 196.784,231.200 197.122 C 231.200 197.460,230.948 198.021,230.640 198.369 C 228.363 200.939,227.175 216.291,228.929 220.492 C 229.229 221.211,229.597 222.457,229.748 223.260 C 229.898 224.063,230.286 224.940,230.611 225.209 C 230.935 225.478,231.200 226.104,231.200 226.600 C 231.200 227.096,231.483 227.737,231.828 228.024 C 232.174 228.311,232.669 229.060,232.928 229.688 C 233.563 231.228,237.306 235.434,239.942 237.570 C 248.348 244.382,260.614 245.105,269.236 239.298 C 269.806 238.914,270.976 238.129,271.836 237.553 C 274.138 236.012,279.600 229.192,279.600 227.858 C 279.600 227.555,279.960 226.850,280.400 226.291 C 280.840 225.731,281.200 224.977,281.200 224.615 C 281.200 224.253,281.544 223.201,281.963 222.278 C 283.627 218.621,283.646 205.013,281.992 201.381 C 281.556 200.426,281.200 199.285,281.200 198.846 C 281.200 198.406,281.029 197.941,280.819 197.812 C 280.610 197.683,279.873 196.428,279.182 195.024 C 278.342 193.318,276.889 191.432,274.799 189.336 C 270.848 185.373,270.558 185.138,267.953 183.798 C 263.923 181.726,263.495 181.577,260.448 181.186 C 258.772 180.970,256.950 180.732,256.400 180.656 C 255.850 180.580,253.730 180.754,251.689 181.042 " stroke="none" fill="#54ccf4" fill-rule="evenodd"></path></g></svg>