<svg width="70" height="70" viewBox="0 0 70 70" fill="none" xmlns="http://www.w3.org/2000/svg">
<path fill-rule="evenodd" clip-rule="evenodd" d="M22.75 12.3879C22.6152 12.417 22.4163 12.4766 22.3079 12.5204C22.1996 12.5641 21.9786 12.6 21.8169 12.6C21.6552 12.6 21.4053 12.663 21.2618 12.74C21.1181 12.817 20.9291 12.88 20.8418 12.88C20.7543 12.88 20.5653 12.943 20.4218 13.02C20.2781 13.097 20.1052 13.1605 20.0377 13.1612C19.9703 13.1619 19.7575 13.2559 19.565 13.37C19.3725 13.4841 19.1726 13.5781 19.121 13.5788C19.0694 13.5795 18.9471 13.643 18.8491 13.72C18.7512 13.797 18.6172 13.86 18.5514 13.86C18.4856 13.86 18.3753 13.9221 18.3066 13.9983C18.2378 14.0742 18.1246 14.1545 18.0549 14.1766C17.2613 14.4286 14.5854 16.9185 14.0322 17.92C13.9576 18.0548 13.8476 18.228 13.7872 18.305C13.4486 18.7374 12.6 20.3511 12.6 20.5629C12.6 20.6322 12.5554 20.7526 12.5008 20.8304C12.4462 20.9085 12.379 21.0966 12.3513 21.2485C12.3237 21.4006 12.2423 21.6419 12.1705 21.7847C12.0988 21.9275 12.04 22.1554 12.04 22.2908C12.04 22.4263 11.9849 22.6716 11.9175 22.8361C11.7336 23.285 11.7271 48.01 11.9108 48.51C11.9744 48.6833 12.0447 48.9748 12.0669 49.158C12.0892 49.3413 12.1529 49.5618 12.2083 49.648C12.2636 49.7343 12.3307 49.9536 12.3571 50.1352C12.3835 50.3169 12.449 50.5019 12.5025 50.5463C12.5562 50.5908 12.6 50.6942 12.6 50.7761C12.6002 50.9338 13.2093 52.1752 13.5518 52.7158C13.6635 52.8922 13.8495 53.1883 13.965 53.374C14.4823 54.2054 16.2006 55.9612 17.115 56.5929C17.3845 56.7789 17.6801 56.9895 17.7719 57.0607C17.8638 57.1317 17.9965 57.19 18.067 57.19C18.1373 57.19 18.2285 57.2527 18.2695 57.3291C18.3106 57.4058 18.4298 57.4891 18.5346 57.5145C18.6392 57.5397 18.8086 57.6188 18.9108 57.6902C19.013 57.7616 19.1292 57.82 19.1693 57.82C19.2092 57.82 19.3609 57.8902 19.5062 57.9759C19.7706 58.1319 20.1976 58.3007 20.79 58.4838C20.9632 58.5372 21.231 58.6289 21.385 58.6875C21.539 58.7459 21.7847 58.7953 21.931 58.7969C22.0773 58.7986 22.2978 58.8551 22.421 58.9225C22.7572 59.1063 47.723 59.1495 48.3989 58.9675C48.6332 58.9043 49.0072 58.8254 49.2296 58.7921C49.4522 58.7587 49.721 58.6864 49.827 58.6317C49.9331 58.5769 50.1447 58.5095 50.2974 58.4819C50.45 58.4544 50.6065 58.4077 50.645 58.3781C50.6835 58.3487 50.8567 58.2843 51.03 58.2351C51.2032 58.1861 51.3922 58.1082 51.45 58.062C51.5805 57.9579 52.4613 57.54 52.5502 57.54C52.5863 57.54 52.6895 57.4613 52.78 57.365C52.8705 57.2688 52.9973 57.19 53.0621 57.19C53.1268 57.19 53.3183 57.0866 53.4873 56.9601C53.7829 56.7392 54.0013 56.5857 54.3683 56.3413C54.8004 56.0534 56.7798 53.9849 56.9651 53.6277C57.0169 53.5278 57.144 53.3358 57.2472 53.2012C57.5972 52.7454 58.45 51.1368 58.45 50.9325C58.45 50.8888 58.5107 50.7395 58.5851 50.6009C58.6593 50.4623 58.7415 50.2266 58.768 50.077C58.7942 49.9273 58.8611 49.7327 58.9165 49.6444C58.972 49.556 59.0345 49.3197 59.0553 49.1194C59.0763 48.919 59.1454 48.6133 59.2091 48.44C59.3931 47.94 59.3866 23.2712 59.2025 22.8639C59.1351 22.7148 59.08 22.4695 59.08 22.3186C59.08 22.1678 59.0208 21.9275 58.9484 21.7847C58.8759 21.6419 58.7947 21.3929 58.768 21.2315C58.741 21.0702 58.6775 20.9036 58.6269 20.8616C58.5762 20.8194 58.5135 20.6721 58.4876 20.5342C58.4264 20.2074 57.9189 19.2518 57.155 18.0247C56.7012 17.2956 54.9782 15.4812 54.25 14.9657C53.4858 14.4246 53.043 14.14 52.9651 14.14C52.9189 14.14 52.8272 14.077 52.7613 14C52.6953 13.923 52.5908 13.86 52.5292 13.86C52.4676 13.86 52.3371 13.797 52.2391 13.72C52.1412 13.643 52.0175 13.58 51.9641 13.58C51.9108 13.58 51.7445 13.5025 51.5944 13.4078C51.4444 13.3131 51.2325 13.2141 51.1233 13.1878C51.0142 13.1616 50.8081 13.0816 50.6653 13.01C50.5225 12.9385 50.3447 12.88 50.2705 12.88C50.1961 12.88 49.998 12.8177 49.8302 12.7416C49.6624 12.6655 49.4109 12.6025 49.2712 12.6016C49.1318 12.6007 48.8798 12.5449 48.7112 12.4775C48.3849 12.347 23.3403 12.2605 22.75 12.3879ZM47.9612 16.7291C48.2053 16.8056 48.4928 16.8686 48.6003 16.8691C48.7077 16.8697 48.9191 16.933 49.07 17.01C49.2208 17.087 49.3838 17.15 49.4317 17.15C49.5348 17.15 50.9784 17.8532 51.0316 17.9293C51.0869 18.0086 51.5882 18.34 51.6528 18.34C51.8224 18.34 53.62 20.3191 53.62 20.5058C53.62 20.5466 53.6774 20.6374 53.7476 20.7076C53.9224 20.8824 54.5772 22.2381 54.6325 22.54C54.6572 22.6748 54.7199 22.8953 54.7715 23.03C55.0016 23.6292 55.0244 24.7902 55.0216 35.77C55.0198 42.4326 54.9923 46.8316 54.9507 47.11C54.9134 47.3603 54.8821 47.7241 54.8814 47.9185C54.8807 48.1129 54.845 48.307 54.8021 48.3499C54.7592 48.3928 54.6964 48.5769 54.6623 48.759C54.5914 49.1386 54.0293 50.3386 53.7845 50.6329C53.694 50.7418 53.62 50.8645 53.62 50.9056C53.62 51.1607 52.0621 52.7538 51.345 53.2319C50.6709 53.6814 49.739 54.18 49.5731 54.18C49.507 54.18 49.3404 54.2404 49.203 54.3141C49.0654 54.3877 48.7987 54.4712 48.6101 54.4994C48.4216 54.5277 48.1565 54.6012 48.0212 54.6628C47.6397 54.8366 23.9258 54.8707 23.2813 54.6985C23.0468 54.6359 22.6817 54.5461 22.47 54.4989C22.2582 54.4518 21.9842 54.3608 21.861 54.2967C21.7378 54.2325 21.5896 54.18 21.5318 54.18C21.379 54.18 20.4246 53.665 19.7675 53.2278C19.0277 52.7359 17.5 51.1693 17.5 50.9028C17.5 50.8632 17.4253 50.7418 17.3339 50.6329C17.1134 50.3704 16.5424 49.1565 16.4789 48.8154C16.4512 48.6666 16.3737 48.4348 16.3065 48.3C16.089 47.8634 16.065 46.6065 16.065 35.665C16.065 24.7734 16.0884 23.5741 16.3112 23.0549C16.3796 22.8953 16.4579 22.659 16.4848 22.5299C16.5539 22.2 17.1818 20.8982 17.3556 20.7244C17.4351 20.6449 17.5 20.5468 17.5 20.5063C17.5 20.296 19.2836 18.34 19.4754 18.34C19.5167 18.34 19.6798 18.2352 19.8378 18.1071C19.9957 17.979 20.2195 17.8273 20.335 17.7699C20.4505 17.7126 20.608 17.632 20.685 17.5907C21.0205 17.4111 21.603 17.15 21.6687 17.15C21.708 17.15 21.864 17.087 22.015 17.01C22.166 16.933 22.3853 16.8695 22.5024 16.869C22.6193 16.8684 22.904 16.8072 23.135 16.7328C23.8031 16.5177 47.2759 16.5142 47.9612 16.7291ZM47.944 20.1355C47.7741 20.1863 47.5494 20.2284 47.4446 20.229C46.8249 20.2325 45.36 21.5957 45.36 22.169C45.36 22.2481 45.3127 22.4261 45.255 22.5642C45.123 22.88 45.123 23.5692 45.255 23.8C45.3099 23.8963 45.3567 24.038 45.3586 24.115C45.3605 24.192 45.4065 24.3338 45.461 24.43C45.5152 24.5263 45.6118 24.7051 45.6755 24.8276C45.8838 25.2278 46.7388 25.97 46.992 25.97C47.0388 25.97 47.1947 26.033 47.3382 26.11C47.6665 26.2859 48.9627 26.3139 49.2691 26.1517C49.3713 26.0976 49.633 25.9679 49.8503 25.8638C50.7152 25.4494 51.52 24.1404 51.52 23.1481C51.52 21.9212 50.3156 20.4187 49.175 20.2225C48.9825 20.1894 48.6964 20.1355 48.539 20.1026C48.3446 20.0622 48.1544 20.0727 47.944 20.1355ZM34.37 23.5846C34.1582 23.6143 33.8905 23.6724 33.775 23.7136C33.6595 23.7549 33.3483 23.8082 33.0834 23.8322C32.8186 23.8562 32.5194 23.9173 32.4184 23.9682C32.3176 24.0189 32.0999 24.0812 31.9349 24.1064C31.7698 24.1318 31.5184 24.2149 31.3759 24.2912C31.2336 24.3675 31.0737 24.43 31.0205 24.43C30.9675 24.43 30.8094 24.4925 30.6694 24.5688C30.5296 24.6451 30.3362 24.7405 30.24 24.7805C30.1437 24.8206 29.876 24.9611 29.645 25.0927C29.414 25.2243 29.0675 25.4168 28.875 25.5206C28.6825 25.6242 28.4601 25.7756 28.3806 25.8571C28.3012 25.9385 28.1636 26.0523 28.0751 26.11C27.4076 26.5454 26.1476 27.7928 25.7089 28.4526C25.5286 28.7235 25.3248 29.0014 25.2556 29.0703C25.1865 29.1391 25.13 29.2229 25.13 29.2567C25.13 29.2903 25.0187 29.4859 24.8827 29.6914C24.7467 29.8968 24.616 30.1438 24.592 30.24C24.5682 30.3363 24.4904 30.4901 24.4193 30.582C24.3483 30.6738 24.29 30.8105 24.29 30.8859C24.29 30.9612 24.227 31.1029 24.15 31.2009C24.073 31.2988 24.01 31.4459 24.01 31.528C24.01 31.6099 23.9493 31.7905 23.8749 31.9291C23.8007 32.0677 23.7197 32.3034 23.6952 32.4531C23.6705 32.6027 23.5923 32.8983 23.5214 33.11C23.2001 34.0688 23.1997 37.3368 23.5207 38.29C23.5919 38.5018 23.6705 38.7973 23.6952 38.947C23.7197 39.0966 23.8007 39.3323 23.8749 39.4709C23.9493 39.6095 24.01 39.7901 24.01 39.872C24.01 39.9541 24.073 40.1013 24.15 40.1991C24.227 40.2971 24.29 40.4408 24.29 40.5186C24.29 40.5963 24.3385 40.7085 24.398 40.768C24.4573 40.8273 24.5416 40.9792 24.5854 41.1054C24.6529 41.3 24.8439 41.6435 25.165 42.1484C25.9212 43.3375 27.121 44.6472 28 45.2435C28.2117 45.3871 28.4637 45.5628 28.56 45.6339C28.925 45.9037 29.393 46.1883 29.5508 46.2364C29.6411 46.2641 29.7622 46.3272 29.82 46.3768C29.9516 46.49 30.9752 46.97 31.0847 46.97C31.1293 46.97 31.2805 47.0285 31.4205 47.1C31.7492 47.268 32.4544 47.452 33.0781 47.5325C33.3494 47.5675 33.7078 47.6443 33.8744 47.7031C34.2991 47.8529 36.8296 47.8573 37.1849 47.7089C37.318 47.6532 37.6763 47.5766 37.9809 47.5384C38.6549 47.4541 39.3571 47.2749 39.6994 47.1C39.8394 47.0285 39.9906 46.97 40.0353 46.97C40.1194 46.97 40.9923 46.5638 41.3 46.3817C41.3962 46.3246 41.6988 46.1514 41.9723 45.9968C43.1046 45.3569 44.9001 43.7656 45.3764 42.98C45.4814 42.8068 45.6704 42.5199 45.7963 42.3427C46.1419 41.8555 46.4324 41.3627 46.5321 41.0947C46.5813 40.9624 46.6685 40.8025 46.7257 40.7391C46.7831 40.6758 46.83 40.5685 46.83 40.5006C46.83 40.4327 46.893 40.2971 46.97 40.1991C47.047 40.1013 47.11 39.9541 47.11 39.872C47.11 39.7901 47.173 39.6053 47.25 39.4618C47.327 39.3181 47.3907 39.098 47.3916 38.9727C47.3924 38.8476 47.4584 38.6033 47.5382 38.43C47.9264 37.5877 47.9264 33.8123 47.5382 32.97C47.4584 32.7968 47.3924 32.5525 47.3916 32.4273C47.3907 32.302 47.327 32.0819 47.25 31.9382C47.173 31.7947 47.11 31.6099 47.11 31.528C47.11 31.4459 47.047 31.2988 46.97 31.2009C46.893 31.1029 46.83 30.9612 46.83 30.8859C46.83 30.8105 46.7717 30.6738 46.7007 30.582C46.6296 30.4901 46.5507 30.3307 46.5255 30.2274C46.5005 30.1242 46.4385 29.9982 46.3883 29.9474C46.3379 29.8967 46.204 29.6818 46.0908 29.47C45.9776 29.2583 45.8642 29.0691 45.8386 29.0497C45.8132 29.0302 45.644 28.794 45.4625 28.5247C44.9848 27.8156 43.7295 26.5577 43.0528 26.11C42.9656 26.0523 42.791 25.9263 42.6648 25.83C42.1839 25.4632 40.2827 24.43 40.0886 24.43C40.0416 24.43 39.8863 24.3675 39.7441 24.2912C39.6016 24.2149 39.3501 24.1318 39.1851 24.1064C39.0201 24.0812 38.8008 24.0181 38.6979 23.9663C38.595 23.9145 38.28 23.8516 37.9979 23.8268C37.7158 23.8019 37.3747 23.7363 37.24 23.6812C36.9549 23.5643 34.9858 23.498 34.37 23.5846ZM36.855 28C37.1243 28.077 37.4549 28.1402 37.5898 28.1405C37.7246 28.1407 37.9295 28.2035 38.045 28.28C38.1605 28.3565 38.3374 28.4193 38.438 28.4195C38.5387 28.4198 38.7012 28.483 38.7991 28.56C38.8971 28.637 39.0418 28.7 39.1209 28.7C39.1998 28.7 39.3209 28.7592 39.3897 28.8313C39.4586 28.9035 39.5915 28.9861 39.6851 29.015C40.132 29.1527 41.4612 30.3368 41.9277 31.0128C42.0749 31.2261 42.2459 31.4426 42.3076 31.4939C42.3694 31.5452 42.42 31.64 42.42 31.7046C42.42 31.7692 42.4494 31.8519 42.4853 31.8885C42.5952 32.0003 42.98 32.7677 42.98 32.875C42.98 32.9303 43.043 33.0992 43.12 33.25C43.197 33.4009 43.26 33.6207 43.26 33.7381C43.26 33.8557 43.323 34.1791 43.4 34.457C43.499 34.8147 43.54 35.1773 43.54 35.6988C43.54 36.2255 43.5001 36.5748 43.4 36.925C43.323 37.1943 43.26 37.5172 43.26 37.6425C43.26 37.768 43.197 37.9881 43.12 38.1318C43.043 38.2753 42.98 38.4508 42.98 38.5215C42.98 38.5922 42.9035 38.7818 42.8101 38.9426C42.7166 39.1034 42.567 39.3773 42.4776 39.5512C41.972 40.5349 40.3476 42.154 39.6417 42.378C39.5629 42.403 39.4422 42.4858 39.3734 42.5618C39.3046 42.6379 39.1783 42.7 39.0927 42.7C39.0071 42.7 38.8986 42.7464 38.8516 42.8031C38.8045 42.86 38.651 42.9272 38.5105 42.9525C38.37 42.9781 38.1381 43.0577 37.9953 43.1295C37.8525 43.2012 37.6318 43.26 37.5051 43.26C37.3782 43.26 37.0543 43.323 36.785 43.4C36.4352 43.5001 36.0855 43.54 35.56 43.54C35.0345 43.54 34.6848 43.5001 34.335 43.4C34.0657 43.323 33.7346 43.26 33.5991 43.26C33.4637 43.26 33.2432 43.2016 33.1089 43.1303C32.9747 43.0589 32.75 42.9793 32.6095 42.9534C32.469 42.9275 32.3155 42.86 32.2684 42.8031C32.2213 42.7464 32.1092 42.7 32.0192 42.7C31.9291 42.7 31.7991 42.6435 31.7303 42.5744C31.6613 42.5052 31.5152 42.4099 31.4055 42.3626C30.493 41.9694 29.0738 40.4563 28.4718 39.235C28.0311 38.3413 27.927 38.0385 27.7252 37.0643C27.5362 36.1524 27.5341 35.2 27.7195 34.4269C27.7963 34.1068 27.8595 33.7505 27.86 33.635C27.8605 33.5195 27.9235 33.3305 28 33.215C28.0765 33.0995 28.1393 32.9541 28.1395 32.8918C28.1402 32.7443 28.731 31.587 28.9012 31.3996C28.9735 31.3201 29.1133 31.129 29.2119 30.975C29.551 30.4449 31.1899 28.98 31.4436 28.98C31.4818 28.98 31.5929 28.917 31.6909 28.84C31.7887 28.763 31.9233 28.7 31.99 28.7C32.0567 28.7 32.1912 28.637 32.2891 28.56C32.3871 28.483 32.5566 28.4198 32.666 28.4195C32.7754 28.4193 32.9595 28.3565 33.075 28.28C33.1905 28.2035 33.3952 28.1405 33.53 28.1402C33.6647 28.1398 33.9797 28.0789 34.23 28.0051C34.884 27.8119 36.1886 27.8094 36.855 28Z" fill="#FBFBFB"/>
<path fill-rule="evenodd" clip-rule="evenodd" d="M3.43 0.07C3.43 0.1085 3.304 0.14 3.15 0.14C2.91672 0.14 2.87 0.163275 2.87 0.28C2.87 0.3941 2.82328 0.42 2.61853 0.42C2.42585 0.42 2.3583 0.452725 2.3303 0.56C2.31 0.637525 2.23475 0.7 2.16177 0.7C2.07673 0.7 2.03 0.749525 2.03 0.84C2.03 0.9499 1.98327 0.98 1.81352 0.98C1.65585 0.98 1.5869 1.01797 1.5603 1.12C1.54 1.19753 1.46475 1.26 1.39178 1.26C1.30935 1.26 1.26 1.30935 1.26 1.39178C1.26 1.46475 1.19753 1.54 1.12 1.5603C1.01797 1.5869 0.98 1.65585 0.98 1.81352C0.98 1.98327 0.9499 2.03 0.84 2.03C0.749525 2.03 0.7 2.07673 0.7 2.16177C0.7 2.23475 0.637525 2.31 0.56 2.3303C0.452725 2.3583 0.42 2.42585 0.42 2.61853C0.42 2.82328 0.3941 2.87 0.28 2.87C0.163275 2.87 0.14 2.91672 0.14 3.15C0.14 3.304 0.1085 3.43 0.07 3.43C0.02345 3.43 0 14 0 35C0 56 0.02345 66.57 0.07 66.57C0.1085 66.57 0.14 66.696 0.14 66.85C0.14 67.0833 0.163275 67.13 0.28 67.13C0.3941 67.13 0.42 67.1767 0.42 67.3815C0.42 67.5742 0.452725 67.6417 0.56 67.6697C0.637525 67.69 0.7 67.7653 0.7 67.8382C0.7 67.9233 0.749525 67.97 0.84 67.97C0.9534 67.97 0.98 68.0167 0.98 68.215C0.98 68.4133 1.0066 68.46 1.12 68.46C1.21327 68.46 1.26 68.5067 1.26 68.6C1.26 68.6905 1.30673 68.74 1.39178 68.74C1.46475 68.74 1.54 68.8025 1.5603 68.88C1.5869 68.982 1.65585 69.02 1.81352 69.02C1.98327 69.02 2.03 69.0501 2.03 69.16C2.03 69.2505 2.07673 69.3 2.16177 69.3C2.23475 69.3 2.31 69.3625 2.3303 69.44C2.3583 69.5473 2.42585 69.58 2.61853 69.58C2.82328 69.58 2.87 69.6059 2.87 69.72C2.87 69.8367 2.91672 69.86 3.15 69.86C3.304 69.86 3.43 69.8915 3.43 69.93C3.43 69.9765 14 70 35 70C56 70 66.57 69.9765 66.57 69.93C66.57 69.8915 66.696 69.86 66.85 69.86C67.0833 69.86 67.13 69.8367 67.13 69.72C67.13 69.6059 67.1767 69.58 67.3815 69.58C67.5742 69.58 67.6417 69.5473 67.6697 69.44C67.69 69.3625 67.7653 69.3 67.8382 69.3C67.9233 69.3 67.97 69.2505 67.97 69.16C67.97 69.0501 68.0167 69.02 68.1865 69.02C68.3441 69.02 68.4131 68.982 68.4397 68.88C68.46 68.8025 68.5352 68.74 68.6082 68.74C68.6933 68.74 68.74 68.6905 68.74 68.6C68.74 68.5067 68.7867 68.46 68.88 68.46C68.9934 68.46 69.02 68.4133 69.02 68.215C69.02 68.0167 69.0466 67.97 69.16 67.97C69.2505 67.97 69.3 67.9233 69.3 67.8382C69.3 67.7653 69.3625 67.69 69.44 67.6697C69.5473 67.6417 69.58 67.5742 69.58 67.3815C69.58 67.1767 69.6059 67.13 69.72 67.13C69.8367 67.13 69.86 67.0833 69.86 66.85C69.86 66.696 69.8915 66.57 69.93 66.57C69.9765 66.57 70 56 70 35C70 14 69.9765 3.43 69.93 3.43C69.8915 3.43 69.86 3.304 69.86 3.15C69.86 2.91672 69.8367 2.87 69.72 2.87C69.6059 2.87 69.58 2.82328 69.58 2.61853C69.58 2.42585 69.5473 2.3583 69.44 2.3303C69.3625 2.31 69.3 2.23475 69.3 2.16177C69.3 2.07673 69.2505 2.03 69.16 2.03C69.0501 2.03 69.02 1.98327 69.02 1.81352C69.02 1.65585 68.982 1.5869 68.88 1.5603C68.8025 1.54 68.74 1.46475 68.74 1.39178C68.74 1.30935 68.6907 1.26 68.6082 1.26C68.5352 1.26 68.46 1.19753 68.4397 1.12C68.4131 1.01797 68.3441 0.98 68.1865 0.98C68.0167 0.98 67.97 0.9499 67.97 0.84C67.97 0.749525 67.9233 0.7 67.8382 0.7C67.7653 0.7 67.69 0.637525 67.6697 0.56C67.6417 0.452725 67.5742 0.42 67.3815 0.42C67.1767 0.42 67.13 0.3941 67.13 0.28C67.13 0.163275 67.0833 0.14 66.85 0.14C66.696 0.14 66.57 0.1085 66.57 0.07C66.57 0.02345 56 0 35 0C14 0 3.43 0.02345 3.43 0.07ZM48.7113 12.4775C48.8798 12.5449 49.1318 12.6007 49.2712 12.6016C49.4109 12.6025 49.6624 12.6654 49.8302 12.7416C49.998 12.8177 50.1961 12.88 50.2705 12.88C50.3447 12.88 50.5225 12.9384 50.6653 13.01C50.8081 13.0816 51.0142 13.1616 51.1233 13.1878C51.2325 13.2141 51.4444 13.3131 51.5944 13.4078C51.7445 13.5025 51.9108 13.58 51.9641 13.58C52.0175 13.58 52.1413 13.643 52.2391 13.72C52.3371 13.797 52.4676 13.86 52.5292 13.86C52.5908 13.86 52.6953 13.923 52.7613 14C52.8273 14.077 52.9189 14.14 52.9651 14.14C53.043 14.14 53.4858 14.4245 54.25 14.9656C54.9782 15.4812 56.7012 17.2956 57.155 18.0247C57.9189 19.2517 58.4264 20.2074 58.4876 20.5341C58.5135 20.672 58.5762 20.8194 58.6269 20.8616C58.6775 20.9036 58.741 21.0702 58.768 21.2315C58.7947 21.3929 58.8759 21.6419 58.9484 21.7847C59.0208 21.9275 59.08 22.1678 59.08 22.3186C59.08 22.4695 59.1351 22.7148 59.2025 22.8639C59.3866 23.2712 59.3931 47.94 59.2092 48.44C59.1455 48.6132 59.0763 48.919 59.0553 49.1194C59.0345 49.3197 58.972 49.556 58.9165 49.6444C58.8611 49.7327 58.7942 49.9273 58.768 50.0769C58.7415 50.2266 58.6593 50.4623 58.5851 50.6009C58.5107 50.7395 58.45 50.8888 58.45 50.9325C58.45 51.1367 57.5972 52.7453 57.2472 53.2012C57.144 53.3358 57.0169 53.5278 56.9651 53.6277C56.7798 53.9849 54.8004 56.0534 54.3683 56.3413C54.0013 56.5857 53.7829 56.7392 53.4874 56.96C53.3183 57.0866 53.1269 57.19 53.0621 57.19C52.9973 57.19 52.8705 57.2687 52.78 57.365C52.6895 57.4612 52.5863 57.54 52.5502 57.54C52.4613 57.54 51.5805 57.9579 51.45 58.062C51.3923 58.1082 51.2033 58.1861 51.03 58.2351C50.8568 58.2843 50.6835 58.3487 50.645 58.3781C50.6065 58.4076 50.4501 58.4544 50.2975 58.4818C50.1447 58.5095 49.9331 58.5769 49.8271 58.6316C49.721 58.6864 49.4522 58.7587 49.2296 58.7921C49.0072 58.8254 48.6332 58.9043 48.3989 58.9675C47.723 59.1495 22.7572 59.1063 22.421 58.9225C22.2978 58.8551 22.0773 58.7986 21.931 58.7968C21.7847 58.7953 21.539 58.7459 21.385 58.6875C21.231 58.6288 20.9633 58.5371 20.79 58.4838C20.1976 58.3007 19.7706 58.1318 19.5062 57.9759C19.3609 57.8902 19.2092 57.82 19.1693 57.82C19.1292 57.82 19.013 57.7615 18.9108 57.6901C18.8086 57.6187 18.6392 57.5396 18.5346 57.5144C18.4298 57.4891 18.3106 57.4058 18.2695 57.3291C18.2285 57.2526 18.1374 57.19 18.067 57.19C17.9965 57.19 17.8638 57.1317 17.7719 57.0607C17.6801 56.9894 17.3845 56.7789 17.115 56.5929C16.2006 55.9611 14.4823 54.2054 13.965 53.3739C13.8495 53.1883 13.6635 52.8922 13.5518 52.7158C13.2094 52.1752 12.6002 50.9337 12.6 50.7761C12.6 50.6942 12.5562 50.5907 12.5025 50.5463C12.449 50.5019 12.3835 50.3169 12.3571 50.1352C12.3307 49.9536 12.2636 49.7343 12.2084 49.648C12.1529 49.5617 12.0892 49.3413 12.0669 49.158C12.0447 48.9748 11.9744 48.6833 11.9108 48.51C11.7271 48.01 11.7336 23.285 11.9175 22.8361C11.9849 22.6716 12.04 22.4263 12.04 22.2908C12.04 22.1553 12.0988 21.9275 12.1705 21.7847C12.2423 21.6419 12.3237 21.4006 12.3513 21.2485C12.379 21.0966 12.4462 20.9085 12.5008 20.8304C12.5554 20.7526 12.6 20.6321 12.6 20.5628C12.6 20.3511 13.4486 18.7374 13.7872 18.305C13.8476 18.228 13.9576 18.0548 14.0322 17.92C14.5854 16.9185 17.2613 14.4286 18.0549 14.1766C18.1246 14.1545 18.2378 14.0742 18.3066 13.9982C18.3753 13.9221 18.4856 13.86 18.5514 13.86C18.6172 13.86 18.7512 13.797 18.8491 13.72C18.9471 13.643 19.0694 13.5795 19.121 13.5788C19.1726 13.5781 19.3725 13.4841 19.565 13.37C19.7575 13.2559 19.9703 13.1619 20.0377 13.1612C20.1052 13.1605 20.2781 13.097 20.4218 13.02C20.5653 12.943 20.7543 12.88 20.8418 12.88C20.9291 12.88 21.1181 12.817 21.2618 12.74C21.4053 12.663 21.6552 12.6 21.8169 12.6C21.9786 12.6 22.1996 12.5641 22.3079 12.5204C22.4163 12.4766 22.6152 12.417 22.75 12.3879C23.3403 12.2605 48.3849 12.347 48.7113 12.4775ZM23.135 16.7328C22.904 16.8072 22.6193 16.8684 22.5024 16.8689C22.3853 16.8695 22.166 16.933 22.015 17.01C21.864 17.087 21.708 17.15 21.6687 17.15C21.6031 17.15 21.0205 17.4111 20.685 17.5906C20.608 17.6319 20.4505 17.7126 20.335 17.7698C20.2195 17.8272 19.9957 17.979 19.8378 18.1071C19.6798 18.2352 19.5167 18.34 19.4754 18.34C19.2836 18.34 17.5 20.296 17.5 20.5063C17.5 20.5467 17.4351 20.6449 17.3556 20.7244C17.1819 20.8981 16.5539 22.2 16.4848 22.5299C16.4579 22.659 16.3797 22.8953 16.3112 23.0548C16.0884 23.5741 16.065 24.7733 16.065 35.665C16.065 46.6065 16.089 47.8634 16.3065 48.3C16.3737 48.4347 16.4512 48.6666 16.4789 48.8154C16.5424 49.1565 17.1134 50.3704 17.3339 50.6329C17.4253 50.7418 17.5 50.8632 17.5 50.9028C17.5 51.1693 19.0278 52.7359 19.7675 53.2278C20.4246 53.665 21.379 54.18 21.5318 54.18C21.5896 54.18 21.7378 54.2325 21.861 54.2967C21.9842 54.3608 22.2582 54.4518 22.47 54.4988C22.6817 54.5461 23.0468 54.6359 23.2813 54.6985C23.9258 54.8707 47.6397 54.8366 48.0212 54.6628C48.1565 54.6012 48.4216 54.5277 48.6101 54.4994C48.7987 54.4712 49.0654 54.3877 49.203 54.314C49.3404 54.2404 49.507 54.18 49.5731 54.18C49.739 54.18 50.6709 53.6814 51.345 53.2318C52.0621 52.7537 53.62 51.1607 53.62 50.9056C53.62 50.8645 53.694 50.7418 53.7845 50.6329C54.0293 50.3386 54.5914 49.1386 54.6623 48.759C54.6964 48.5768 54.7593 48.3927 54.8021 48.3499C54.845 48.307 54.8807 48.1129 54.8814 47.9185C54.8821 47.7241 54.9134 47.3603 54.9507 47.11C54.9923 46.8316 55.0198 42.4326 55.0216 35.77C55.0244 24.7901 55.0016 23.6292 54.7715 23.03C54.7199 22.8953 54.6572 22.6747 54.6325 22.54C54.5773 22.2381 53.9224 20.8824 53.7476 20.7076C53.6774 20.6374 53.62 20.5466 53.62 20.5058C53.62 20.3191 51.8224 18.34 51.6528 18.34C51.5882 18.34 51.0869 18.0086 51.0316 17.9293C50.9784 17.8531 49.5348 17.15 49.4317 17.15C49.3838 17.15 49.2208 17.087 49.07 17.01C48.9191 16.933 48.7077 16.8696 48.6003 16.8691C48.4929 16.8686 48.2053 16.8056 47.9612 16.7291C47.2759 16.5142 23.8031 16.5177 23.135 16.7328ZM49.175 20.2225C50.3157 20.4186 51.52 21.9212 51.52 23.1481C51.52 24.1404 50.7152 25.4494 49.8503 25.8638C49.633 25.9679 49.3713 26.0976 49.2691 26.1516C48.9627 26.3139 47.6665 26.2859 47.3382 26.11C47.1947 26.033 47.0388 25.97 46.9921 25.97C46.7388 25.97 45.8838 25.2278 45.6755 24.8276C45.6118 24.7051 45.5152 24.5263 45.461 24.43C45.4066 24.3337 45.3605 24.192 45.3586 24.115C45.3567 24.038 45.31 23.8962 45.255 23.8C45.1231 23.5692 45.1231 22.88 45.255 22.5641C45.3128 22.4261 45.36 22.2481 45.36 22.169C45.36 21.5957 46.8249 20.2325 47.4446 20.229C47.5494 20.2284 47.7741 20.1862 47.944 20.1355C48.1544 20.0727 48.3446 20.0622 48.539 20.1026C48.6964 20.1355 48.9825 20.1894 49.175 20.2225ZM37.24 23.6812C37.3747 23.7363 37.7158 23.8019 37.9979 23.8268C38.28 23.8516 38.595 23.9144 38.6979 23.9662C38.8008 24.018 39.0201 24.0812 39.1851 24.1064C39.3501 24.1318 39.6016 24.2149 39.7441 24.2912C39.8863 24.3675 40.0416 24.43 40.0886 24.43C40.2827 24.43 42.1839 25.4632 42.6648 25.83C42.791 25.9263 42.9656 26.0522 43.0528 26.11C43.7295 26.5576 44.9848 27.8155 45.4626 28.5247C45.644 28.794 45.8132 29.0302 45.8386 29.0497C45.8642 29.0691 45.9776 29.2582 46.0908 29.47C46.204 29.6817 46.3379 29.8967 46.3883 29.9474C46.4385 29.9981 46.5005 30.1241 46.5255 30.2274C46.5507 30.3306 46.6296 30.4901 46.7007 30.5819C46.7717 30.6738 46.83 30.8105 46.83 30.8859C46.83 30.9612 46.893 31.1029 46.97 31.2009C47.047 31.2987 47.11 31.4459 47.11 31.528C47.11 31.6099 47.173 31.7947 47.25 31.9382C47.327 32.0819 47.3907 32.302 47.3916 32.4273C47.3924 32.5524 47.4584 32.7967 47.5382 32.97C47.9264 33.8123 47.9264 37.5877 47.5382 38.43C47.4584 38.6032 47.3924 38.8475 47.3916 38.9727C47.3907 39.098 47.327 39.3181 47.25 39.4618C47.173 39.6053 47.11 39.7901 47.11 39.872C47.11 39.9541 47.047 40.1012 46.97 40.1991C46.893 40.2971 46.83 40.4327 46.83 40.5006C46.83 40.5685 46.7831 40.6758 46.7257 40.7391C46.6685 40.8025 46.5813 40.9624 46.5322 41.0947C46.4324 41.3626 46.1419 41.8554 45.7963 42.3426C45.6704 42.5199 45.4814 42.8068 45.3764 42.98C44.9001 43.7656 43.1046 45.3568 41.9723 45.9968C41.6988 46.1513 41.3962 46.3246 41.3 46.3816C40.9923 46.5638 40.1194 46.97 40.0353 46.97C39.9907 46.97 39.8395 47.0285 39.6995 47.1C39.3572 47.2748 38.6549 47.4541 37.9809 47.5384C37.6763 47.5765 37.3181 47.6532 37.1849 47.7089C36.8296 47.8573 34.2991 47.8529 33.8744 47.7031C33.7078 47.6443 33.3494 47.5675 33.0782 47.5325C32.4544 47.452 31.7492 47.268 31.4206 47.1C31.2806 47.0285 31.1293 46.97 31.0847 46.97C30.9752 46.97 29.9516 46.49 29.82 46.3768C29.7622 46.3272 29.6411 46.264 29.5508 46.2364C29.393 46.1883 28.925 45.9037 28.56 45.6339C28.4637 45.5628 28.2118 45.3871 28 45.2435C27.121 44.6472 25.9212 43.3375 25.165 42.1484C24.8439 41.6435 24.653 41.3 24.5854 41.1054C24.5417 40.9792 24.4573 40.8273 24.398 40.768C24.3385 40.7085 24.29 40.5963 24.29 40.5186C24.29 40.4408 24.227 40.2971 24.15 40.1991C24.073 40.1012 24.01 39.9541 24.01 39.872C24.01 39.7901 23.9493 39.6095 23.8749 39.4709C23.8007 39.3323 23.7197 39.0966 23.6952 38.9469C23.6705 38.7973 23.5919 38.5018 23.5207 38.29C23.1998 37.3368 23.2001 34.0688 23.5214 33.11C23.5923 32.8983 23.6705 32.6027 23.6952 32.453C23.7197 32.3034 23.8007 32.0677 23.8749 31.9291C23.9493 31.7905 24.01 31.6099 24.01 31.528C24.01 31.4459 24.073 31.2987 24.15 31.2009C24.227 31.1029 24.29 30.9612 24.29 30.8859C24.29 30.8105 24.3483 30.6738 24.4193 30.5819C24.4904 30.4901 24.5683 30.3363 24.5921 30.24C24.616 30.1437 24.7467 29.8968 24.8827 29.6914C25.0187 29.4859 25.13 29.2903 25.13 29.2567C25.13 29.2229 25.1865 29.1391 25.2556 29.0703C25.3248 29.0013 25.5287 28.7234 25.7089 28.4525C26.1476 27.7928 27.4076 26.5454 28.0751 26.11C28.1636 26.0522 28.3012 25.9385 28.3806 25.8571C28.4601 25.7756 28.6825 25.6242 28.875 25.5206C29.0675 25.4168 29.414 25.2243 29.645 25.0927C29.876 24.9611 30.1437 24.8206 30.24 24.7805C30.3363 24.7404 30.5296 24.6451 30.6694 24.5688C30.8094 24.4925 30.9675 24.43 31.0205 24.43C31.0737 24.43 31.2337 24.3675 31.3759 24.2912C31.5184 24.2149 31.7698 24.1318 31.9349 24.1064C32.0999 24.0812 32.3176 24.0189 32.4184 23.9682C32.5194 23.9172 32.8186 23.8562 33.0834 23.8322C33.3484 23.8082 33.6595 23.7548 33.775 23.7135C34.3579 23.5053 36.7563 23.4829 37.24 23.6812ZM34.23 28.0051C33.9798 28.0789 33.6647 28.1398 33.53 28.1402C33.3953 28.1405 33.1905 28.2035 33.075 28.28C32.9595 28.3565 32.7754 28.4193 32.666 28.4195C32.5566 28.4198 32.3871 28.483 32.2891 28.56C32.1912 28.637 32.0567 28.7 31.99 28.7C31.9233 28.7 31.7887 28.763 31.6909 28.84C31.5929 28.917 31.4818 28.98 31.4436 28.98C31.1899 28.98 29.551 30.4449 29.2119 30.975C29.1133 31.129 28.9735 31.3201 28.9012 31.3995C28.731 31.587 28.1402 32.7443 28.1395 32.8918C28.1393 32.9541 28.0765 33.0995 28 33.215C27.9235 33.3305 27.8605 33.5195 27.86 33.635C27.8595 33.7505 27.7963 34.1068 27.7195 34.4269C27.3787 35.8482 27.6468 37.5615 28.4718 39.235C29.0738 40.4563 30.4931 41.9694 31.4055 42.3626C31.5152 42.4099 31.6613 42.5052 31.7303 42.5743C31.7991 42.6435 31.9291 42.7 32.0192 42.7C32.1092 42.7 32.2214 42.7464 32.2684 42.8031C32.3155 42.86 32.469 42.9275 32.6095 42.9534C32.75 42.9793 32.9747 43.0589 33.1089 43.1303C33.2432 43.2015 33.4637 43.26 33.5991 43.26C33.7346 43.26 34.0657 43.323 34.335 43.4C34.6848 43.5001 35.0345 43.54 35.56 43.54C36.0855 43.54 36.4352 43.5001 36.785 43.4C37.0543 43.323 37.3783 43.26 37.5051 43.26C37.6318 43.26 37.8525 43.2012 37.9953 43.1294C38.1381 43.0577 38.37 42.9781 38.5105 42.9525C38.651 42.9271 38.8045 42.86 38.8516 42.8031C38.8987 42.7464 39.0071 42.7 39.0927 42.7C39.1783 42.7 39.3046 42.6379 39.3734 42.5618C39.4422 42.4858 39.563 42.403 39.6417 42.378C40.3476 42.154 41.972 40.5349 42.4776 39.5512C42.567 39.3773 42.7166 39.1034 42.8101 38.9426C42.9035 38.7817 42.98 38.5922 42.98 38.5215C42.98 38.4508 43.043 38.2753 43.12 38.1318C43.197 37.9881 43.26 37.768 43.26 37.6425C43.26 37.5172 43.323 37.1943 43.4 36.925C43.5001 36.5748 43.54 36.2255 43.54 35.6988C43.54 35.1773 43.4991 34.8147 43.4 34.457C43.323 34.1791 43.26 33.8557 43.26 33.7381C43.26 33.6207 43.197 33.4008 43.12 33.25C43.043 33.0991 42.98 32.9303 42.98 32.875C42.98 32.7677 42.5952 32.0003 42.4853 31.8885C42.4494 31.8519 42.42 31.7691 42.42 31.7046C42.42 31.64 42.3694 31.5451 42.3076 31.4939C42.2459 31.4426 42.0749 31.2261 41.9277 31.0128C41.4612 30.3368 40.132 29.1527 39.6851 29.015C39.5915 28.9861 39.4586 28.9035 39.3897 28.8312C39.3209 28.7591 39.1998 28.7 39.1209 28.7C39.0418 28.7 38.8971 28.637 38.7991 28.56C38.7012 28.483 38.5387 28.4198 38.438 28.4195C38.3374 28.4193 38.1605 28.3565 38.045 28.28C37.9295 28.2035 37.7246 28.1407 37.5898 28.1405C37.4549 28.1402 37.1243 28.077 36.855 28C36.1886 27.8094 34.884 27.8119 34.23 28.0051Z" fill="#EB5757"/>
</svg>
