<svg width="22" height="22" viewBox="0 0 19 18" fill="none" xmlns="http://www.w3.org/2000/svg">
<path d="M15.4899 15.3372H12.7963V11.1604C12.7963 10.1644 12.7783 8.88221 11.3953 8.88221C9.99235 8.88221 9.77769 9.96739 9.77769 11.0879V15.3369H7.08403V6.74767H9.66994V7.92148H9.70614C9.96493 7.48337 10.3389 7.12295 10.7882 6.87862C11.2375 6.63429 11.7453 6.5152 12.2575 6.53402C14.9877 6.53402 15.4911 8.31211 15.4911 10.6253L15.4899 15.3372ZM4.04469 5.57358C3.73553 5.57363 3.43328 5.48291 3.17619 5.31289C2.9191 5.14286 2.71871 4.90117 2.60035 4.61837C2.48199 4.33558 2.45097 4.02438 2.51123 3.72413C2.57149 3.42388 2.72032 3.14807 2.93889 2.93157C3.15747 2.71507 3.43597 2.56761 3.73918 2.50784C4.0424 2.44806 4.35669 2.47866 4.64235 2.59575C4.928 2.71285 5.17217 2.91119 5.34397 3.16569C5.51578 3.42018 5.60752 3.71941 5.60757 4.02553C5.60761 4.22879 5.56721 4.43006 5.48869 4.61786C5.41016 4.80566 5.29507 4.9763 5.14994 5.12005C5.00481 5.2638 4.8325 5.37784 4.64286 5.45566C4.45322 5.53347 4.24997 5.57354 4.04469 5.57358ZM5.39152 15.3372H2.69506V6.74767H5.39152V15.3372ZM16.8328 0.00122637H1.3415C0.98989 -0.00270246 0.651072 0.131748 0.399528 0.375032C0.147984 0.618316 0.0042912 0.95053 0 1.29867V16.7011C0.00414433 17.0494 0.147753 17.3818 0.399288 17.6254C0.650824 17.8689 0.989716 18.0036 1.3415 17.9999H16.8328C17.1853 18.0043 17.5251 17.8699 17.7777 17.6264C18.0302 17.3829 18.1748 17.0501 18.1797 16.7011V1.29756C18.1746 0.948728 18.03 0.616136 17.7774 0.372858C17.5249 0.12958 17.1851 -0.00448607 16.8328 0.000114616" fill="#0A66C2"/>
</svg>
