<svg width="70" height="70" viewBox="0 0 70 70" fill="none" xmlns="http://www.w3.org/2000/svg">
<path fill-rule="evenodd" clip-rule="evenodd" d="M16.4479 10.3306C16.4034 10.4473 16.3856 17.1108 16.3971 29.2015L16.415 47.8919L18.9042 50.3534C26.7421 58.1045 27.461 58.7998 27.5562 58.7207C27.6339 58.6561 27.65 56.4282 27.65 45.6722C27.65 38.5383 27.6678 32.6552 27.6895 32.5985C27.7947 32.3244 27.2452 31.7933 39.8681 44.3705C52.3839 56.8409 54.4883 58.9039 54.6141 58.8262C54.6447 58.8073 54.6699 55.2702 54.6699 50.9663V43.1408L51.6374 40.1378C47.2871 35.83 43.7323 32.3274 43.5459 32.165C43.3879 32.0273 43.2594 32.0245 35.5351 31.99L27.685 31.955L27.6669 26.5685L27.6491 21.182L22.1271 15.666C19.09 12.6322 16.5852 10.15 16.5609 10.15C16.5364 10.15 16.4857 10.2312 16.4479 10.3306ZM43.5125 10.3308C43.489 10.3917 43.4691 15.0615 43.4682 20.7083L43.4663 30.975L46.5657 34.0447C48.2702 35.7329 50.7375 38.182 52.0483 39.4872C53.359 40.7921 54.4851 41.86 54.5508 41.86C54.6624 41.86 54.6699 41.2109 54.6699 31.5101V21.1603L49.2975 15.7974C43.2736 9.78442 43.6028 10.0954 43.5125 10.3308Z" fill="#FBFBFB"/>
<path fill-rule="evenodd" clip-rule="evenodd" d="M3.5 0.07C3.5 0.1085 3.37103 0.14 3.21353 0.14C2.98585 0.14 2.91935 0.1687 2.8903 0.28C2.86248 0.38605 2.79475 0.42 2.6103 0.42C2.42585 0.42 2.35812 0.45395 2.3303 0.56C2.31 0.637525 2.23475 0.7 2.16177 0.7C2.07673 0.7 2.03 0.749525 2.03 0.84C2.03 0.94185 1.98327 0.98 1.85903 0.98C1.76488 0.98 1.64675 1.03723 1.59652 1.10705C1.54613 1.17705 1.44987 1.25475 1.3825 1.27995C1.31512 1.30498 1.26 1.36622 1.26 1.41592C1.26 1.46562 1.197 1.5456 1.12 1.59373C1.0409 1.64325 0.98 1.757 0.98 1.85552C0.98 1.98327 0.94255 2.03 0.84 2.03C0.749525 2.03 0.7 2.07673 0.7 2.16177C0.7 2.23475 0.637525 2.31 0.56 2.3303C0.452725 2.3583 0.42 2.42585 0.42 2.61853C0.42 2.82328 0.3941 2.87 0.28 2.87C0.160825 2.87 0.14 2.91673 0.14 3.185C0.14 3.35825 0.1085 3.5 0.07 3.5C0.02345 3.5 0 14.0467 0 35C0 55.9533 0.02345 66.5 0.07 66.5C0.1085 66.5 0.14 66.629 0.14 66.7865C0.14 67.0141 0.1687 67.0807 0.28 67.1097C0.38605 67.1375 0.42 67.2053 0.42 67.3897C0.42 67.5742 0.45395 67.6419 0.56 67.6697C0.637525 67.69 0.7 67.7653 0.7 67.8382C0.7 67.9233 0.749525 67.97 0.84 67.97C0.9499 67.97 0.98 68.0167 0.98 68.1865C0.98 68.3441 1.01797 68.4131 1.12 68.4397C1.197 68.4598 1.26 68.5228 1.26 68.5797C1.26 68.6366 1.323 68.6996 1.4 68.7197C1.477 68.7398 1.54 68.7965 1.54 68.8457C1.54 68.9454 1.69225 69.02 1.89577 69.02C1.98328 69.02 2.03 69.0686 2.03 69.16C2.03 69.2505 2.07673 69.3 2.16177 69.3C2.23475 69.3 2.31 69.3625 2.3303 69.44C2.35812 69.546 2.42585 69.58 2.6103 69.58C2.79475 69.58 2.86248 69.6139 2.8903 69.72C2.91935 69.8313 2.98585 69.86 3.21353 69.86C3.37103 69.86 3.5 69.8915 3.5 69.93C3.5 69.9765 14.0467 70 35 70C55.9533 70 66.5 69.9765 66.5 69.93C66.5 69.8915 66.629 69.86 66.7865 69.86C67.0141 69.86 67.0807 69.8313 67.1097 69.72C67.1375 69.6139 67.2053 69.58 67.3897 69.58C67.5742 69.58 67.6419 69.546 67.6697 69.44C67.69 69.3625 67.7653 69.3 67.8382 69.3C67.9233 69.3 67.97 69.2505 67.97 69.16C67.97 69.0686 68.0167 69.02 68.1042 69.02C68.3077 69.02 68.46 68.9454 68.46 68.8457C68.46 68.7965 68.523 68.7398 68.6 68.7197C68.677 68.6996 68.74 68.6366 68.74 68.5797C68.74 68.5228 68.803 68.4598 68.88 68.4397C68.982 68.4131 69.02 68.3441 69.02 68.1865C69.02 68.0167 69.0501 67.97 69.16 67.97C69.2505 67.97 69.3 67.9233 69.3 67.8382C69.3 67.7653 69.3625 67.69 69.44 67.6697C69.546 67.6419 69.58 67.5742 69.58 67.3897C69.58 67.2053 69.6139 67.1375 69.72 67.1097C69.8313 67.0807 69.86 67.0141 69.86 66.7865C69.86 66.629 69.8915 66.5 69.93 66.5C69.9765 66.5 70 55.9533 70 35C70 14.0467 69.9765 3.5 69.93 3.5C69.8915 3.5 69.86 3.37103 69.86 3.21353C69.86 2.98585 69.8313 2.91935 69.72 2.8903C69.6139 2.86248 69.58 2.79475 69.58 2.6103C69.58 2.42585 69.546 2.35812 69.44 2.3303C69.3625 2.31 69.3 2.23475 69.3 2.16177C69.3 2.07673 69.2505 2.03 69.16 2.03C69.0574 2.03 69.02 1.98327 69.02 1.85552C69.02 1.757 68.9591 1.64325 68.88 1.59373C68.803 1.5456 68.74 1.46562 68.74 1.41592C68.74 1.36622 68.6849 1.30498 68.6175 1.27995C68.5501 1.25475 68.4539 1.17705 68.4035 1.10705C68.3532 1.03723 68.2351 0.98 68.141 0.98C68.0167 0.98 67.97 0.94185 67.97 0.84C67.97 0.749525 67.9233 0.7 67.8382 0.7C67.7653 0.7 67.69 0.637525 67.6697 0.56C67.6419 0.45395 67.5742 0.42 67.3897 0.42C67.2053 0.42 67.1375 0.38605 67.1097 0.28C67.0807 0.1687 67.0141 0.14 66.7865 0.14C66.629 0.14 66.5 0.1085 66.5 0.07C66.5 0.02345 55.9533 0 35 0C14.0467 0 3.5 0.02345 3.5 0.07ZM22.1272 15.666L27.6491 21.182L27.667 26.5685L27.685 31.955L35.5351 31.99C43.2595 32.0245 43.3879 32.0273 43.5459 32.165C43.7323 32.3274 47.2871 35.83 51.6374 40.1378L54.67 43.1408V50.9663C54.67 55.2702 54.6448 58.8073 54.6142 58.8262C54.4883 58.9039 52.384 56.8409 39.8681 44.3706C27.2452 31.7933 27.7947 32.3244 27.6895 32.5985C27.6678 32.6552 27.65 38.5383 27.65 45.6722C27.65 56.4282 27.6339 58.6561 27.5562 58.7207C27.461 58.7998 26.7421 58.1045 18.9042 50.3535L16.415 47.8919L16.3972 29.2015C16.3802 11.526 16.3921 10.15 16.5609 10.15C16.5853 10.15 19.09 12.6322 22.1272 15.666ZM43.785 10.3295C43.862 10.3873 46.3426 12.848 49.2975 15.7974L54.67 21.1603V31.5101C54.67 41.2109 54.6625 41.86 54.5508 41.86C54.4852 41.86 53.3591 40.7921 52.0483 39.4872C50.7376 38.182 48.2702 35.7329 46.5658 34.0447L43.4663 30.975L43.4683 20.7083C43.4691 15.0616 43.4891 10.3917 43.5125 10.3308C43.5645 10.1952 43.6058 10.195 43.785 10.3295Z" fill="#EB5757"/>
</svg>
