<svg width="70" height="70" viewBox="0 0 70 70" fill="none" xmlns="http://www.w3.org/2000/svg">
<path fill-rule="evenodd" clip-rule="evenodd" d="M27.3752 14.2147C27.205 14.2489 26.9215 14.3224 26.7452 14.378C26.5692 14.4337 26.236 14.5003 26.005 14.5262C25.774 14.5523 25.5535 14.5983 25.515 14.6288C25.4765 14.6592 25.3032 14.7058 25.13 14.7322C24.9567 14.7585 24.6337 14.8409 24.4121 14.9151C24.1908 14.9893 23.9342 15.05 23.8423 15.05C23.7505 15.05 23.538 15.1123 23.3702 15.1884C23.2024 15.2646 22.9763 15.3276 22.8679 15.3284C22.7594 15.3293 22.6035 15.3661 22.5211 15.4102C22.4388 15.4541 22.2283 15.5309 22.0531 15.5806C21.5092 15.7353 19.6261 16.3982 19.3851 16.52C19.3245 16.5505 19.0568 16.6598 18.7901 16.7629C18.1363 17.0156 17.4954 17.2932 17.325 17.3976C17.248 17.4447 17.1062 17.5039 17.01 17.5291C16.8521 17.5702 16.1931 18.3757 16.1077 18.6321C16.0907 18.6828 15.9759 18.868 15.8525 19.0437C15.729 19.2192 15.607 19.429 15.5813 19.5101C15.5557 19.5909 15.4885 19.6747 15.4324 19.6963C15.376 19.718 15.33 19.7918 15.3298 19.8602C15.3298 19.9288 15.2075 20.1611 15.0582 20.3763C14.9088 20.5916 14.7658 20.8329 14.7406 20.9125C14.7152 20.9921 14.6485 21.0956 14.5924 21.1423C14.536 21.189 14.49 21.2814 14.49 21.3477C14.49 21.4141 14.427 21.5254 14.35 21.595C14.273 21.6647 14.21 21.7779 14.21 21.8467C14.21 21.9154 14.1802 21.9902 14.1438 22.0126C14.1074 22.0351 13.9006 22.407 13.6839 22.8393C13.4673 23.2713 13.262 23.6723 13.2277 23.73C13.1934 23.7878 13.0835 24.024 12.9834 24.255C12.8833 24.486 12.7718 24.7223 12.7356 24.78C12.6994 24.8378 12.6374 24.9638 12.5979 25.06C12.5585 25.1563 12.4756 25.3453 12.4136 25.48C11.9612 26.464 11.7738 26.9535 11.7323 27.2594C11.7117 27.4103 11.6695 27.552 11.6384 27.5744C11.5512 27.6369 11.2 28.3498 11.2 28.4643C11.2 28.5199 11.137 28.6892 11.06 28.84C10.983 28.9909 10.92 29.1874 10.92 29.2766C10.92 29.3659 10.8754 29.5026 10.8208 29.5804C10.7662 29.6585 10.6997 29.8466 10.6729 29.9985C10.6461 30.1506 10.5814 30.3436 10.5287 30.4276C10.4762 30.5114 10.4123 30.7162 10.3869 30.8826C10.3614 31.0489 10.3021 31.2638 10.255 31.36C10.2079 31.4563 10.1489 31.6685 10.1241 31.8315C10.0991 31.9946 10.035 32.2308 9.98165 32.3565C9.92827 32.4823 9.85232 32.7425 9.81277 32.935C9.77322 33.1275 9.7083 33.411 9.66857 33.565C9.4724 34.3229 9.31 35.095 9.31 35.2699C9.31 35.377 9.2477 35.6986 9.17157 35.9847C9.09562 36.2709 9.03192 36.631 9.03017 36.785C9.02842 36.939 8.97942 37.2698 8.92115 37.52C8.85552 37.8018 8.79007 38.6416 8.74912 39.725C8.7129 40.6875 8.65165 41.6798 8.61297 41.93C8.50587 42.6242 8.52512 45.462 8.6443 46.585C8.7017 47.124 8.74877 47.8532 8.7493 48.2055L8.75 48.8462L9.1525 49.188C9.37387 49.3759 9.681 49.6141 9.835 49.7172C9.989 49.8204 10.2499 50.0005 10.4149 50.1174C10.58 50.2343 10.7404 50.33 10.7716 50.33C10.8027 50.33 10.8853 50.393 10.955 50.47C11.0246 50.547 11.1079 50.61 11.1401 50.61C11.1722 50.61 11.3799 50.736 11.6018 50.8898C11.8235 51.0438 12.029 51.1698 12.0582 51.1698C12.0874 51.17 12.2607 51.2731 12.4432 51.3991C12.6257 51.5251 12.8537 51.6675 12.95 51.7155C13.0462 51.7634 13.251 51.8788 13.405 51.9715C13.559 52.0644 13.7795 52.1892 13.895 52.2487C14.0105 52.3084 14.1601 52.3894 14.2275 52.4286C14.4676 52.5686 14.6072 52.6398 15.61 53.1342C16.1682 53.4095 16.6722 53.6631 16.73 53.6977C16.7877 53.7325 16.8822 53.7805 16.94 53.8043C16.9977 53.8283 17.2084 53.9226 17.4081 54.0139C17.608 54.1053 17.8022 54.18 17.84 54.18C17.8778 54.18 17.9979 54.2257 18.1069 54.2815C18.4842 54.4751 18.9359 54.662 19.145 54.7113C19.2605 54.7386 19.4171 54.8035 19.4931 54.8555C19.569 54.9075 19.6805 54.95 19.7407 54.95C19.8011 54.95 19.9703 55.0113 20.1169 55.086C20.2636 55.1607 20.4773 55.2424 20.5915 55.2675C20.7058 55.2927 20.884 55.3572 20.9872 55.4111C21.0905 55.465 21.238 55.5095 21.315 55.51C21.392 55.5105 21.5386 55.5545 21.6407 55.6078C22.2978 55.9507 22.5041 55.9181 22.8233 55.4213C22.9526 55.2199 23.0827 55.0449 23.1121 55.0324C23.1415 55.02 23.2668 54.831 23.3907 54.6124C23.5144 54.3939 23.6337 54.1993 23.6556 54.18C23.7491 54.0978 24.08 53.5712 24.08 53.5045C24.08 53.4644 24.143 53.3747 24.22 53.305C24.297 53.2354 24.36 53.1241 24.36 53.0577C24.36 52.9914 24.406 52.899 24.4622 52.8523C24.5184 52.8057 24.6617 52.5735 24.7803 52.3362C25.0204 51.8571 25.1006 51.7139 25.2859 51.4336C25.431 51.2143 25.3489 50.992 25.0952 50.917C24.931 50.8683 24.4288 50.649 24.08 50.4737C23.9452 50.406 23.7407 50.3276 23.6253 50.2996C23.51 50.2716 23.384 50.2224 23.3453 50.1904C23.3067 50.1582 22.834 49.9076 22.295 49.6332C20.8451 48.8954 20.7879 48.8005 21.4877 48.2935C21.8613 48.023 22.1427 48.0141 22.6093 48.258C22.8007 48.3581 22.9948 48.44 23.0407 48.44C23.0865 48.44 23.1737 48.4817 23.2346 48.5324C23.2953 48.5833 23.4552 48.6595 23.59 48.7018C23.7247 48.744 24.0555 48.8616 24.325 48.9631C24.5945 49.0646 24.9252 49.1785 25.06 49.2163C25.1947 49.2539 25.3837 49.3269 25.48 49.3784C25.5762 49.4298 25.781 49.4946 25.935 49.5222C26.089 49.5499 26.25 49.6015 26.2929 49.6368C26.3357 49.6722 26.5475 49.734 26.7636 49.7739C26.9796 49.8138 27.2438 49.892 27.3507 49.9478C27.4575 50.0035 27.6323 50.0493 27.7392 50.0497C27.846 50.0498 28.1127 50.113 28.3318 50.19C28.5509 50.267 28.8325 50.33 28.9576 50.33C29.0827 50.33 29.3209 50.376 29.487 50.4326C29.6529 50.4889 30.0557 50.5664 30.3819 50.6048C30.7081 50.6431 31.0852 50.7078 31.22 50.7484C31.3547 50.789 31.906 50.8536 32.445 50.8919C32.984 50.9304 33.7242 50.992 34.09 51.029C34.9478 51.1158 36.4548 51.1151 37.345 51.0277C37.73 50.9899 38.4702 50.928 38.99 50.8902C39.5097 50.8524 40.0452 50.7882 40.18 50.7476C40.3147 50.7068 40.6819 50.6457 40.996 50.6118C41.3101 50.5778 41.7128 50.5005 41.891 50.4399C42.0691 50.3795 42.3477 50.3298 42.5099 50.3297C42.6722 50.3293 42.8949 50.2822 43.0048 50.225C43.1147 50.1676 43.3825 50.0915 43.5998 50.0556C43.8172 50.0199 44.1121 49.941 44.2552 49.8803C44.3984 49.8197 44.5874 49.7698 44.6752 49.7697C44.7631 49.7693 44.923 49.7233 45.0305 49.6671C45.1379 49.6111 45.3427 49.5448 45.4855 49.5198C45.6283 49.4947 45.8085 49.4347 45.886 49.3864C45.9636 49.3379 46.1368 49.2755 46.271 49.2473C46.4053 49.2193 46.5785 49.1563 46.656 49.1073C46.7336 49.0585 46.9068 48.9944 47.041 48.9652C47.1753 48.936 47.3471 48.8689 47.4231 48.8161C47.499 48.7632 47.6033 48.72 47.6549 48.72C47.7064 48.72 47.9278 48.6378 48.1469 48.5371C49.0157 48.1383 49.1099 48.0996 49.245 48.087C49.5295 48.0604 49.6195 48.0961 49.9709 48.376C50.5804 48.8614 50.5601 48.8836 48.6309 49.8477C47.4346 50.4453 47.078 50.61 46.9796 50.61C46.9355 50.61 46.7819 50.673 46.6382 50.75C46.4947 50.827 46.3395 50.89 46.2936 50.89C46.0819 50.89 45.9081 51.2528 46.0451 51.4089C46.1156 51.4892 46.2108 51.6338 46.2569 51.73C46.4273 52.087 46.8513 52.8115 46.9441 52.9041C46.9969 52.9569 47.04 53.0427 47.04 53.095C47.04 53.1473 47.0809 53.2317 47.1308 53.2824C47.2188 53.3719 47.5792 53.955 47.8242 54.4042C47.8898 54.5244 47.9685 54.6413 47.9992 54.6639C48.03 54.6865 48.0865 54.7554 48.125 54.8172C48.7909 55.8845 48.8596 55.9368 49.3542 55.7527C49.5252 55.689 49.8067 55.5935 49.98 55.5405C50.508 55.3786 51.131 55.1504 51.205 55.0916C51.2435 55.0611 51.3852 55.0127 51.52 54.9838C51.6547 54.9549 51.8747 54.8725 52.0089 54.8007C52.1432 54.7288 52.3024 54.67 52.3631 54.67C52.4237 54.67 52.5343 54.6238 52.6092 54.5673C52.6839 54.5108 52.7863 54.4635 52.8369 54.4623C52.8873 54.4611 53.1078 54.3795 53.3269 54.2813C53.5458 54.183 53.8195 54.061 53.935 54.0101C55.038 53.5245 56.8417 52.6178 57.89 52.0219C58.1017 51.9015 58.3695 51.7508 58.485 51.6871C58.6005 51.6233 58.8682 51.4609 59.08 51.3261C59.2917 51.1912 59.6225 50.9807 59.815 50.8582C60.0075 50.7357 60.3629 50.5036 60.6048 50.3426C60.8464 50.1818 61.0734 50.05 61.1088 50.05C61.1441 50.05 61.1982 50.0096 61.229 49.9601C61.2598 49.9105 61.4582 49.7565 61.67 49.6178C61.8817 49.479 62.1898 49.2438 62.3546 49.0952L62.6542 48.825L62.7651 47.915C63.0142 45.8719 62.9244 41.2143 62.5807 38.36C62.4948 37.6451 62.2814 36.2751 62.1558 35.63C62.0002 34.8304 61.7951 33.8361 61.737 33.6C61.5534 32.8524 61.509 32.6884 61.3853 32.305C61.3109 32.074 61.25 31.7896 61.25 31.6731C61.25 31.5565 61.2068 31.399 61.1541 31.3231C61.1012 31.2471 61.0216 31.0139 60.977 30.8047C60.9325 30.5956 60.869 30.3909 60.8361 30.3497C60.803 30.3086 60.743 30.1333 60.7024 29.96C60.6007 29.525 60.4182 28.9814 60.2994 28.7592C60.2448 28.657 60.2 28.5297 60.2 28.4765C60.2 28.4232 60.1387 28.2597 60.064 28.1131C59.9893 27.9664 59.9065 27.747 59.8801 27.6257C59.8537 27.5042 59.7889 27.3429 59.7361 27.2669C59.6832 27.191 59.64 27.0802 59.64 27.0209C59.64 26.9616 59.577 26.7953 59.5 26.6518C59.423 26.5081 59.36 26.3475 59.36 26.2946C59.36 26.242 59.297 26.1188 59.22 26.0209C59.143 25.9229 59.08 25.7912 59.08 25.7278C59.08 25.6645 59.0194 25.4963 58.9454 25.3538C58.8712 25.2116 58.6801 24.8115 58.5203 24.465C58.3607 24.1185 58.2027 23.7878 58.1693 23.73C58.1357 23.6723 57.9253 23.2689 57.7017 22.8335C57.2647 21.9832 57.1389 21.7513 56.8774 21.315C56.7852 21.161 56.6603 20.9405 56.5999 20.825C56.5397 20.7095 56.4272 20.5205 56.35 20.405C56.2728 20.2895 56.1643 20.0981 56.1088 19.9794C56.0534 19.8609 55.959 19.7232 55.899 19.6733C55.839 19.6236 55.79 19.5491 55.79 19.5078C55.79 19.4663 55.7153 19.3205 55.6241 19.1839C55.5327 19.047 55.3371 18.746 55.189 18.515C54.6308 17.6433 54.6796 17.682 53.375 17.0781C53.221 17.0069 52.906 16.8784 52.675 16.7928C52.444 16.7073 52.1269 16.5793 51.9704 16.5086C51.8138 16.4379 51.6484 16.38 51.6026 16.38C51.5569 16.38 51.4019 16.317 51.2582 16.24C51.1147 16.163 50.9404 16.1 50.8711 16.1C50.8018 16.1 50.6753 16.0563 50.59 16.0029C50.5048 15.9495 50.309 15.8835 50.155 15.8566C50.001 15.8296 49.8374 15.7764 49.7913 15.7383C49.7451 15.7003 49.5404 15.6275 49.3363 15.5768C49.1321 15.5258 48.8705 15.4529 48.755 15.4145C47.9573 15.1492 47.6192 15.05 47.5128 15.05C47.4455 15.05 47.2092 14.9896 46.9878 14.9158C46.7663 14.8421 46.4361 14.7614 46.2541 14.7368C46.0721 14.7121 45.9065 14.6647 45.8859 14.6314C45.8654 14.5982 45.6361 14.5486 45.3768 14.5212C45.1173 14.4939 44.7198 14.4127 44.4934 14.3407C43.7818 14.1148 43.3641 14.1565 43.1734 14.4725C42.8571 14.9968 42.07 16.6492 42.07 16.7888C42.07 17.0345 41.3892 17.0427 39.865 16.8154C38.7165 16.6443 32.7306 16.6434 31.57 16.8142C29.7554 17.0812 29.26 17.0412 29.26 16.6271C29.26 16.5344 29.1307 16.2383 28.8771 15.75C27.9641 13.9932 28.0488 14.0796 27.3752 14.2147ZM27.5184 31.7076C27.8117 31.7452 28.1424 31.8224 28.2534 31.8791C28.3643 31.9356 28.5966 32.0504 28.7696 32.1339C29.0953 32.291 29.6553 32.7189 29.96 33.0433C30.3215 33.4285 30.5592 33.7209 30.6441 33.8853C30.6924 33.9787 30.8243 34.2246 30.9374 34.4318C31.0504 34.639 31.164 34.9067 31.1895 35.0268C31.2153 35.1468 31.2653 35.2812 31.3008 35.3255C31.4207 35.4746 31.5159 36.7084 31.4727 37.5505C31.4195 38.5868 31.2265 39.2266 30.6705 40.2091C30.3296 40.8116 29.0125 42.07 28.7229 42.07C28.6995 42.07 28.5509 42.1299 28.3927 42.2032C28.0542 42.3598 26.964 42.63 26.67 42.63C26.0263 42.63 24.1556 41.948 24.0509 41.6754C24.0308 41.6229 23.9704 41.58 23.9167 41.58C23.8257 41.58 23.5179 41.2725 22.9794 40.6441C22.754 40.3811 22.5354 40.0202 22.4014 39.69C22.3624 39.5938 22.3011 39.4678 22.2652 39.41C21.774 38.6169 21.6883 36.2999 22.107 35.14C22.7986 33.225 24.2557 31.9274 25.9903 31.6818C26.3448 31.6316 26.7137 31.6015 26.81 31.6148C26.9062 31.6281 27.2251 31.6698 27.5184 31.7076ZM45.5784 31.7076C46.1116 31.776 46.1865 31.8021 46.8918 32.1647C47.3476 32.3992 47.3984 32.4403 48.0898 33.1338C48.4556 33.5006 48.7098 33.8307 48.8568 34.1292C48.9778 34.3749 49.1067 34.5945 49.1433 34.6171C49.1801 34.6397 49.21 34.7211 49.21 34.7981C49.21 34.8749 49.2723 35.0746 49.3486 35.2417C49.638 35.8773 49.6347 38.2587 49.3435 38.8987C49.2702 39.0602 49.21 39.2443 49.21 39.3076C49.21 39.371 49.147 39.5029 49.07 39.6009C48.993 39.6988 48.93 39.8221 48.93 39.8752C48.93 40.1086 47.9741 41.3021 47.5713 41.5718C47.4208 41.6726 47.216 41.81 47.1163 41.8772C45.6074 42.8934 43.4609 42.7669 41.9898 41.5748C41.5285 41.201 40.8735 40.4649 40.7624 40.1954C40.7171 40.0855 40.6304 39.9544 40.5699 39.9042C40.5095 39.854 40.46 39.7418 40.46 39.655C40.46 39.5682 40.4136 39.4587 40.3569 39.4116C40.3 39.3645 40.2321 39.211 40.2059 39.0705C40.1795 38.93 40.1151 38.7119 40.0626 38.5861C39.7556 37.8509 39.9635 35.1643 40.362 34.7146C40.4159 34.6537 40.46 34.5555 40.46 34.4964C40.46 34.4372 40.5228 34.3089 40.5998 34.2113C40.6766 34.1135 40.765 33.9645 40.7962 33.8802C40.9601 33.4369 41.9687 32.4954 42.63 32.1682C42.8417 32.0633 43.1007 31.9319 43.2056 31.8761C43.4185 31.7625 44.5986 31.5772 44.87 31.6148C44.9662 31.6281 45.2851 31.6698 45.5784 31.7076Z" fill="#FBFBFB"/>
<path fill-rule="evenodd" clip-rule="evenodd" d="M3.5 0.07C3.5 0.1085 3.37103 0.14 3.21353 0.14C2.98585 0.14 2.91935 0.1687 2.8903 0.28C2.86248 0.38605 2.79475 0.42 2.6103 0.42C2.42585 0.42 2.35812 0.45395 2.3303 0.56C2.31 0.637525 2.23475 0.7 2.16177 0.7C2.07673 0.7 2.03 0.749525 2.03 0.84C2.03 0.94185 1.98327 0.98 1.85903 0.98C1.76488 0.98 1.64675 1.03723 1.59652 1.10705C1.54613 1.17705 1.44987 1.25475 1.3825 1.27995C1.31512 1.30498 1.26 1.36622 1.26 1.41592C1.26 1.46562 1.197 1.5456 1.12 1.59373C1.0409 1.64325 0.98 1.757 0.98 1.85552C0.98 1.98327 0.94255 2.03 0.84 2.03C0.749525 2.03 0.7 2.07673 0.7 2.16177C0.7 2.23475 0.637525 2.31 0.56 2.3303C0.452725 2.3583 0.42 2.42585 0.42 2.61853C0.42 2.82328 0.3941 2.87 0.28 2.87C0.160825 2.87 0.14 2.91673 0.14 3.185C0.14 3.35825 0.1085 3.5 0.07 3.5C0.02345 3.5 0 14.0467 0 35C0 55.9533 0.02345 66.5 0.07 66.5C0.1085 66.5 0.14 66.629 0.14 66.7865C0.14 67.0141 0.1687 67.0807 0.28 67.1097C0.38605 67.1375 0.42 67.2053 0.42 67.3897C0.42 67.5742 0.45395 67.6419 0.56 67.6697C0.637525 67.69 0.7 67.7653 0.7 67.8382C0.7 67.9233 0.749525 67.97 0.84 67.97C0.9499 67.97 0.98 68.0167 0.98 68.1865C0.98 68.3441 1.01797 68.4131 1.12 68.4397C1.197 68.4598 1.26 68.5228 1.26 68.5797C1.26 68.6366 1.323 68.6996 1.4 68.7197C1.477 68.7398 1.54 68.7965 1.54 68.8457C1.54 68.9454 1.69225 69.02 1.89577 69.02C1.98328 69.02 2.03 69.0686 2.03 69.16C2.03 69.2505 2.07673 69.3 2.16177 69.3C2.23475 69.3 2.31 69.3625 2.3303 69.44C2.35812 69.546 2.42585 69.58 2.6103 69.58C2.79475 69.58 2.86248 69.6139 2.8903 69.72C2.91935 69.8313 2.98585 69.86 3.21353 69.86C3.37103 69.86 3.5 69.8915 3.5 69.93C3.5 69.9765 14.0467 70 35 70C55.9533 70 66.5 69.9765 66.5 69.93C66.5 69.8915 66.629 69.86 66.7865 69.86C67.0141 69.86 67.0807 69.8313 67.1097 69.72C67.1375 69.6139 67.2053 69.58 67.3897 69.58C67.5742 69.58 67.6419 69.546 67.6697 69.44C67.69 69.3625 67.7653 69.3 67.8382 69.3C67.9233 69.3 67.97 69.2505 67.97 69.16C67.97 69.0686 68.0167 69.02 68.1042 69.02C68.3077 69.02 68.46 68.9454 68.46 68.8457C68.46 68.7965 68.523 68.7398 68.6 68.7197C68.677 68.6996 68.74 68.6366 68.74 68.5797C68.74 68.5228 68.803 68.4598 68.88 68.4397C68.982 68.4131 69.02 68.3441 69.02 68.1865C69.02 68.0167 69.0501 67.97 69.16 67.97C69.2505 67.97 69.3 67.9233 69.3 67.8382C69.3 67.7653 69.3625 67.69 69.44 67.6697C69.546 67.6419 69.58 67.5742 69.58 67.3897C69.58 67.2053 69.6139 67.1375 69.72 67.1097C69.8313 67.0807 69.86 67.0141 69.86 66.7865C69.86 66.629 69.8915 66.5 69.93 66.5C69.9765 66.5 70 55.9533 70 35C70 14.0467 69.9765 3.5 69.93 3.5C69.8915 3.5 69.86 3.37103 69.86 3.21353C69.86 2.98585 69.8313 2.91935 69.72 2.8903C69.6139 2.86248 69.58 2.79475 69.58 2.6103C69.58 2.42585 69.546 2.35812 69.44 2.3303C69.3625 2.31 69.3 2.23475 69.3 2.16177C69.3 2.07673 69.2505 2.03 69.16 2.03C69.0574 2.03 69.02 1.98327 69.02 1.85552C69.02 1.757 68.9591 1.64325 68.88 1.59373C68.803 1.5456 68.74 1.46562 68.74 1.41592C68.74 1.36622 68.6849 1.30498 68.6175 1.27995C68.5501 1.25475 68.4539 1.17705 68.4035 1.10705C68.3532 1.03723 68.2351 0.98 68.141 0.98C68.0167 0.98 67.97 0.94185 67.97 0.84C67.97 0.749525 67.9233 0.7 67.8382 0.7C67.7653 0.7 67.69 0.637525 67.6697 0.56C67.6419 0.45395 67.5742 0.42 67.3897 0.42C67.2053 0.42 67.1375 0.38605 67.1097 0.28C67.0807 0.1687 67.0141 0.14 66.7865 0.14C66.629 0.14 66.5 0.1085 66.5 0.07C66.5 0.02345 55.9533 0 35 0C14.0467 0 3.5 0.02345 3.5 0.07ZM28.0816 14.2674C28.1206 14.3075 28.3391 14.7149 28.8771 15.75C29.1307 16.2382 29.26 16.5343 29.26 16.6271C29.26 17.0411 29.7554 17.0812 31.57 16.8142C32.7306 16.6434 38.7165 16.6442 39.865 16.8154C41.3893 17.0427 42.07 17.0345 42.07 16.7888C42.07 16.6491 42.8572 14.9968 43.1734 14.4725C43.3641 14.1564 43.7818 14.1148 44.4934 14.3407C44.7198 14.4126 45.1173 14.4938 45.3768 14.5211C45.6361 14.5486 45.8654 14.5982 45.8859 14.6314C45.9065 14.6646 46.0721 14.7121 46.2541 14.7367C46.4361 14.7614 46.7663 14.8421 46.9879 14.9158C47.2092 14.9896 47.4455 15.05 47.5129 15.05C47.6193 15.05 47.9574 15.1492 48.755 15.4145C48.8705 15.4528 49.1321 15.5258 49.3363 15.5767C49.5404 15.6275 49.7452 15.7003 49.7914 15.7383C49.8374 15.7764 50.001 15.8296 50.155 15.8566C50.309 15.8835 50.5048 15.9495 50.59 16.0029C50.6753 16.0562 50.8018 16.1 50.8711 16.1C50.9404 16.1 51.1147 16.163 51.2582 16.24C51.4019 16.317 51.5569 16.38 51.6026 16.38C51.6484 16.38 51.8138 16.4379 51.9704 16.5086C52.1269 16.5793 52.444 16.7073 52.675 16.7928C52.906 16.8784 53.221 17.0068 53.375 17.0781C54.6796 17.682 54.6308 17.6433 55.189 18.515C55.3371 18.746 55.5327 19.047 55.6241 19.1838C55.7153 19.3205 55.79 19.4663 55.79 19.5078C55.79 19.5491 55.839 19.6236 55.899 19.6733C55.959 19.7232 56.0534 19.8609 56.1089 19.9794C56.1643 20.098 56.2728 20.2895 56.35 20.405C56.4272 20.5205 56.5397 20.7095 56.5999 20.825C56.6603 20.9405 56.7852 21.161 56.8774 21.315C57.1389 21.7513 57.2647 21.9832 57.7017 22.8335C57.9254 23.2689 58.1357 23.6723 58.1693 23.73C58.2027 23.7878 58.3608 24.1185 58.5204 24.465C58.6801 24.8115 58.8712 25.2115 58.9454 25.3538C59.0194 25.4963 59.08 25.6645 59.08 25.7278C59.08 25.7912 59.143 25.9229 59.22 26.0209C59.297 26.1187 59.36 26.242 59.36 26.2946C59.36 26.3475 59.423 26.5081 59.5 26.6518C59.577 26.7953 59.64 26.9615 59.64 27.0209C59.64 27.0802 59.6832 27.191 59.7361 27.2669C59.7889 27.3429 59.8537 27.5042 59.8801 27.6257C59.9065 27.7469 59.9893 27.9664 60.064 28.113C60.1387 28.2597 60.2 28.4232 60.2 28.4765C60.2 28.5297 60.2448 28.6569 60.2994 28.7591C60.4182 28.9814 60.6007 29.5249 60.7024 29.96C60.743 30.1332 60.8031 30.3086 60.8361 30.3497C60.869 30.3909 60.9325 30.5956 60.977 30.8047C61.0216 31.0138 61.1012 31.2471 61.1541 31.3231C61.2068 31.399 61.25 31.5565 61.25 31.6731C61.25 31.7896 61.3109 32.074 61.3853 32.305C61.509 32.6884 61.5534 32.8524 61.737 33.6C61.7951 33.8361 62.0002 34.8304 62.1558 35.63C62.2814 36.2751 62.4948 37.6451 62.5807 38.36C62.9244 41.2142 63.0142 45.8719 62.7651 47.915L62.6542 48.825L62.3546 49.0952C62.1898 49.2438 61.8817 49.479 61.67 49.6177C61.4582 49.7565 61.2598 49.9105 61.229 49.96C61.1982 50.0096 61.1441 50.05 61.1088 50.05C61.0734 50.05 60.8464 50.1818 60.6048 50.3426C60.3629 50.5036 60.0075 50.7357 59.815 50.8582C59.6225 50.9807 59.2918 51.1912 59.08 51.3261C58.8683 51.4608 58.6005 51.6233 58.485 51.6871C58.3695 51.7508 58.1017 51.9015 57.89 52.0219C56.8417 52.6178 55.038 53.5244 53.935 54.0101C53.8195 54.061 53.5458 54.183 53.3269 54.2813C53.1078 54.3795 52.8873 54.4611 52.8369 54.4623C52.7863 54.4635 52.6839 54.5107 52.6092 54.5673C52.5343 54.6238 52.4237 54.67 52.3631 54.67C52.3024 54.67 52.1432 54.7288 52.0089 54.8007C51.8747 54.8725 51.6547 54.9549 51.52 54.9838C51.3852 55.0126 51.2435 55.0611 51.205 55.0916C51.131 55.1504 50.508 55.3786 49.98 55.5404C49.8068 55.5935 49.5252 55.689 49.3542 55.7527C48.8596 55.9368 48.7909 55.8845 48.125 54.8172C48.0865 54.7554 48.03 54.6864 47.9992 54.6639C47.9686 54.6413 47.8898 54.5244 47.8242 54.4042C47.5792 53.955 47.2188 53.3718 47.1308 53.2824C47.0809 53.2317 47.04 53.1473 47.04 53.095C47.04 53.0427 46.997 52.9569 46.9441 52.9041C46.8514 52.8115 46.4273 52.087 46.2569 51.73C46.2108 51.6338 46.1156 51.4892 46.0451 51.4089C45.9081 51.2528 46.0819 50.89 46.2936 50.89C46.3395 50.89 46.4947 50.827 46.6382 50.75C46.7819 50.673 46.9355 50.61 46.9796 50.61C47.078 50.61 47.4346 50.4453 48.6309 49.8477C50.5601 48.8836 50.5804 48.8614 49.9709 48.3759C49.6195 48.0961 49.5295 48.0604 49.245 48.087C49.1099 48.0996 49.0158 48.1383 48.1469 48.5371C47.9278 48.6378 47.7064 48.72 47.6549 48.72C47.6033 48.72 47.499 48.7632 47.4231 48.8161C47.3471 48.8689 47.1753 48.9359 47.041 48.9652C46.9068 48.9944 46.7336 49.0584 46.656 49.1073C46.5785 49.1563 46.4053 49.2193 46.271 49.2473C46.1368 49.2754 45.9636 49.3379 45.886 49.3864C45.8085 49.4347 45.6283 49.4947 45.4855 49.5197C45.3427 49.5448 45.1379 49.6111 45.0305 49.6671C44.923 49.7233 44.7631 49.7693 44.6752 49.7696C44.5874 49.7698 44.3984 49.8197 44.2552 49.8802C44.1121 49.941 43.8172 50.0199 43.5998 50.0556C43.3825 50.0915 43.1147 50.1676 43.0048 50.225C42.895 50.2822 42.6722 50.3293 42.5099 50.3296C42.3477 50.3298 42.0691 50.3795 41.891 50.4399C41.7128 50.5005 41.3102 50.5778 40.996 50.6117C40.6819 50.6457 40.3148 50.7068 40.18 50.7475C40.0452 50.7881 39.5098 50.8524 38.99 50.8902C38.4702 50.928 37.73 50.9899 37.345 51.0277C36.4548 51.1151 34.9478 51.1157 34.09 51.0289C33.7243 50.992 32.984 50.9304 32.445 50.8919C31.906 50.8536 31.3547 50.789 31.22 50.7484C31.0852 50.7078 30.7081 50.6431 30.3819 50.6048C30.0557 50.5664 29.6529 50.4889 29.487 50.4325C29.3209 50.376 29.0827 50.33 28.9576 50.33C28.8325 50.33 28.5509 50.267 28.3318 50.19C28.1127 50.113 27.846 50.0498 27.7392 50.0496C27.6323 50.0493 27.4575 50.0034 27.3507 49.9478C27.2438 49.892 26.9796 49.8137 26.7636 49.7738C26.5475 49.7339 26.3357 49.6722 26.2929 49.6368C26.25 49.6015 26.089 49.5499 25.935 49.5222C25.781 49.4945 25.5763 49.4298 25.48 49.3783C25.3838 49.3269 25.1947 49.2539 25.06 49.2163C24.9252 49.1785 24.5945 49.0646 24.325 48.9631C24.0555 48.8616 23.7248 48.744 23.59 48.7018C23.4552 48.6594 23.2953 48.5833 23.2346 48.5324C23.1737 48.4817 23.0865 48.44 23.0407 48.44C22.9948 48.44 22.8007 48.3581 22.6093 48.258C22.1427 48.014 21.8614 48.023 21.4877 48.2935C20.7879 48.8005 20.8451 48.8954 22.295 49.6332C22.834 49.9076 23.3067 50.1581 23.3453 50.1903C23.384 50.2224 23.51 50.2715 23.6253 50.2995C23.7407 50.3275 23.9453 50.4059 24.08 50.4737C24.4288 50.649 24.931 50.8683 25.0952 50.917C25.3489 50.992 25.431 51.2143 25.2859 51.4336C25.1006 51.7139 25.0205 51.857 24.7803 52.3362C24.6617 52.5735 24.5184 52.8057 24.4622 52.8523C24.406 52.899 24.36 52.9914 24.36 53.0577C24.36 53.1241 24.297 53.2354 24.22 53.305C24.143 53.3746 24.08 53.4644 24.08 53.5045C24.08 53.5712 23.7491 54.0978 23.6556 54.18C23.6338 54.1992 23.5144 54.3939 23.3907 54.6124C23.2668 54.831 23.1415 55.02 23.1121 55.0324C23.0827 55.0448 22.9527 55.2198 22.8233 55.4213C22.5041 55.9181 22.2978 55.9506 21.6407 55.6078C21.5387 55.5545 21.392 55.5105 21.315 55.51C21.238 55.5095 21.0905 55.465 20.9872 55.4111C20.884 55.3572 20.7058 55.2926 20.5915 55.2674C20.4773 55.2424 20.2636 55.1607 20.117 55.086C19.9703 55.0112 19.8011 54.95 19.7407 54.95C19.6805 54.95 19.569 54.9075 19.4931 54.8555C19.4171 54.8035 19.2605 54.7386 19.145 54.7113C18.9359 54.6619 18.4842 54.475 18.1069 54.2815C17.9979 54.2257 17.8778 54.18 17.84 54.18C17.8022 54.18 17.608 54.1053 17.4081 54.0139C17.2085 53.9226 16.9977 53.8283 16.94 53.8043C16.8822 53.7805 16.7878 53.7325 16.73 53.6977C16.6722 53.663 16.1682 53.4095 15.61 53.1342C14.6072 52.6398 14.4676 52.5686 14.2275 52.4286C14.1601 52.3894 14.0105 52.3084 13.895 52.2487C13.7795 52.1892 13.559 52.0644 13.405 51.9715C13.251 51.8787 13.0462 51.7634 12.95 51.7155C12.8538 51.6675 12.6257 51.5251 12.4432 51.3991C12.2607 51.2731 12.0874 51.17 12.0582 51.1698C12.029 51.1698 11.8235 51.0438 11.6018 50.8898C11.3799 50.736 11.1722 50.61 11.1402 50.61C11.108 50.61 11.0246 50.547 10.955 50.47C10.8853 50.393 10.8027 50.33 10.7716 50.33C10.7404 50.33 10.58 50.2343 10.4149 50.1174C10.2499 50.0005 9.989 49.8204 9.835 49.7171C9.681 49.6141 9.37387 49.3759 9.1525 49.188L8.75 48.8462L8.7493 48.2055C8.74877 47.8532 8.7017 47.124 8.6443 46.585C8.52512 45.462 8.50587 42.6242 8.61298 41.93C8.65165 41.6797 8.7129 40.6875 8.74912 39.725C8.79007 38.6416 8.85553 37.8018 8.92115 37.52C8.97943 37.2697 9.02843 36.939 9.03018 36.785C9.03193 36.631 9.09562 36.2708 9.17157 35.9847C9.2477 35.6986 9.31 35.3769 9.31 35.2699C9.31 35.095 9.4724 34.3229 9.66858 33.565C9.7083 33.411 9.77322 33.1275 9.81278 32.935C9.85233 32.7425 9.92827 32.4823 9.98165 32.3564C10.035 32.2308 10.0991 31.9945 10.1241 31.8314C10.1489 31.6685 10.2079 31.4562 10.255 31.36C10.3021 31.2637 10.3614 31.0488 10.3869 30.8826C10.4123 30.7162 10.4762 30.5114 10.5287 30.4276C10.5814 30.3436 10.6461 30.1506 10.6729 29.9985C10.6997 29.8466 10.7662 29.6585 10.8208 29.5804C10.8754 29.5026 10.92 29.3659 10.92 29.2766C10.92 29.1874 10.983 28.9909 11.06 28.84C11.137 28.6891 11.2 28.5199 11.2 28.4643C11.2 28.3498 11.5512 27.6369 11.6384 27.5744C11.6695 27.552 11.7117 27.4102 11.7323 27.2594C11.7738 26.9535 11.9612 26.464 12.4136 25.48C12.4756 25.3453 12.5585 25.1562 12.5979 25.06C12.6374 24.9637 12.6994 24.8378 12.7356 24.78C12.7718 24.7222 12.8833 24.486 12.9834 24.255C13.0835 24.024 13.1934 23.7878 13.2277 23.73C13.262 23.6723 13.4673 23.2713 13.6839 22.8392C13.9006 22.407 14.1074 22.0351 14.1438 22.0126C14.1802 21.9902 14.21 21.9154 14.21 21.8466C14.21 21.7779 14.273 21.6646 14.35 21.595C14.427 21.5254 14.49 21.414 14.49 21.3477C14.49 21.2814 14.536 21.189 14.5924 21.1423C14.6486 21.0956 14.7152 20.9921 14.7406 20.9125C14.7658 20.8329 14.9088 20.5915 15.0582 20.3763C15.2075 20.161 15.3298 19.9288 15.3298 19.8602C15.33 19.7918 15.376 19.718 15.4324 19.6963C15.4885 19.6747 15.5557 19.5909 15.5813 19.51C15.607 19.429 15.729 19.2192 15.8525 19.0437C15.9759 18.868 16.0907 18.6828 16.1077 18.6321C16.1931 18.3757 16.8521 17.5702 17.01 17.529C17.1062 17.5038 17.248 17.4447 17.325 17.3976C17.4954 17.2931 18.1363 17.0156 18.7901 16.7629C19.0568 16.6598 19.3246 16.5504 19.3851 16.52C19.6261 16.3982 21.5092 15.7353 22.0532 15.5806C22.2283 15.5309 22.4389 15.4541 22.5211 15.4101C22.6035 15.366 22.7594 15.3293 22.8679 15.3284C22.9763 15.3275 23.2024 15.2646 23.3702 15.1884C23.538 15.1123 23.7505 15.05 23.8424 15.05C23.9342 15.05 24.1908 14.9893 24.4121 14.9151C24.6337 14.8409 24.9568 14.7584 25.13 14.7322C25.3033 14.7058 25.4765 14.6592 25.515 14.6288C25.5535 14.5983 25.774 14.5523 26.005 14.5262C26.236 14.5003 26.5692 14.4337 26.7453 14.378C27.4316 14.1614 27.9368 14.1195 28.0816 14.2674ZM25.9903 31.6818C24.2557 31.9273 22.7986 33.225 22.107 35.14C21.6883 36.2999 21.774 38.6169 22.2653 39.41C22.3011 39.4678 22.3624 39.5938 22.4014 39.69C22.5354 40.0202 22.754 40.3811 22.9794 40.6441C23.5179 41.2725 23.8257 41.58 23.9167 41.58C23.9705 41.58 24.0308 41.6229 24.051 41.6754C24.1556 41.948 26.0263 42.63 26.67 42.63C26.964 42.63 28.0543 42.3598 28.3927 42.2032C28.5509 42.1298 28.6995 42.07 28.7229 42.07C29.0125 42.07 30.3296 40.8116 30.6705 40.209C31.2265 39.2266 31.4195 38.5868 31.4727 37.5504C31.5159 36.7084 31.4207 35.4746 31.3008 35.3255C31.2653 35.2812 31.2153 35.1468 31.1895 35.0268C31.164 34.9067 31.0504 34.639 30.9374 34.4318C30.8243 34.2246 30.6924 33.9787 30.6441 33.8853C30.5592 33.7209 30.3215 33.4285 29.96 33.0433C29.6553 32.7189 29.0953 32.291 28.7696 32.1339C28.5966 32.0504 28.3643 31.9356 28.2534 31.879C28.1424 31.8223 27.8117 31.7452 27.5184 31.7076C27.2251 31.6698 26.9062 31.6281 26.81 31.6148C26.7137 31.6015 26.3449 31.6316 25.9903 31.6818ZM44.0456 31.6824C43.6884 31.7329 43.3104 31.8201 43.2056 31.8761C43.1007 31.9319 42.8418 32.0633 42.63 32.1681C41.9687 32.4954 40.9601 33.4369 40.7962 33.8802C40.765 33.9645 40.6766 34.1134 40.5998 34.2113C40.5228 34.3089 40.46 34.4372 40.46 34.4963C40.46 34.5555 40.4159 34.6537 40.362 34.7146C39.9635 35.1643 39.7556 37.8509 40.0626 38.5861C40.1151 38.7119 40.1795 38.93 40.2059 39.0705C40.2322 39.211 40.3 39.3645 40.3569 39.4116C40.4136 39.4586 40.46 39.5682 40.46 39.655C40.46 39.7418 40.5095 39.854 40.5699 39.9042C40.6305 39.9544 40.7171 40.0855 40.7624 40.1954C40.8735 40.4649 41.5285 41.201 41.9898 41.5747C43.4609 42.7668 45.6074 42.8934 47.1163 41.8772C47.216 41.81 47.4208 41.6726 47.5713 41.5718C47.9741 41.3021 48.93 40.1086 48.93 39.8751C48.93 39.8221 48.993 39.6987 49.07 39.6009C49.147 39.5029 49.21 39.371 49.21 39.3076C49.21 39.2443 49.2702 39.0602 49.3435 38.8987C49.6347 38.2587 49.6381 35.8773 49.3486 35.2417C49.2723 35.0746 49.21 34.8749 49.21 34.798C49.21 34.721 49.1801 34.6397 49.1433 34.6171C49.1068 34.5945 48.9778 34.3749 48.8568 34.1292C48.7099 33.8307 48.4556 33.5006 48.0898 33.1338C47.3984 32.4403 47.3476 32.3992 46.8918 32.1646C46.1865 31.802 46.1116 31.776 45.5784 31.7076C45.2851 31.6698 44.9662 31.6281 44.87 31.6148C44.7737 31.6015 44.4027 31.632 44.0456 31.6824Z" fill="#EB5757"/>
</svg>
