<svg width="46" height="46" viewBox="0 0 46 46" fill="none" xmlns="http://www.w3.org/2000/svg">
<path d="M2.16675 10.5C2.16675 8.28986 3.04472 6.17024 4.60752 4.60744C6.17033 3.04464 8.28994 2.16666 10.5001 2.16666H35.5001C37.7102 2.16666 39.8298 3.04464 41.3926 4.60744C42.9554 6.17024 43.8334 8.28986 43.8334 10.5V35.5C43.8334 37.7101 42.9554 39.8297 41.3926 41.3926C39.8298 42.9554 37.7102 43.8333 35.5001 43.8333H10.5001C8.28994 43.8333 6.17033 42.9554 4.60752 41.3926C3.04472 39.8297 2.16675 37.7101 2.16675 35.5V10.5Z" stroke="#EB5757" stroke-width="3" stroke-linecap="round" stroke-linejoin="round"/>
<path d="M15.7083 20.9167C18.5848 20.9167 20.9167 18.5848 20.9167 15.7083C20.9167 12.8319 18.5848 10.5 15.7083 10.5C12.8319 10.5 10.5 12.8319 10.5 15.7083C10.5 18.5848 12.8319 20.9167 15.7083 20.9167Z" stroke="#EB5757" stroke-width="3" stroke-linecap="round" stroke-linejoin="round"/>
<path d="M28.2625 24.2937L10.5 43.8333H35.7771C37.9137 43.8333 39.9629 42.9845 41.4737 41.4737C42.9846 39.9629 43.8333 37.9137 43.8333 35.7771V35.5C43.8333 34.5292 43.4687 34.1562 42.8125 33.4375L34.4167 24.2812C34.0254 23.8544 33.5494 23.5138 33.0191 23.2812C32.4888 23.0486 31.9159 22.929 31.3368 22.9302C30.7578 22.9314 30.1853 23.0533 29.656 23.288C29.1266 23.5228 28.6521 23.8653 28.2625 24.2937V24.2937Z" stroke="#EB5757" stroke-width="3" stroke-linecap="round" stroke-linejoin="round"/>
</svg>
