<svg width="51" height="50" viewBox="0 0 51 50" fill="none" xmlns="http://www.w3.org/2000/svg">
<g clip-path="url(#clip0_222_302)">
<path d="M25.6245 0C15.1844 0 12.1311 0.0107701 11.5376 0.0600051C9.39508 0.238097 8.06189 0.575433 6.60946 1.29857C5.49014 1.85439 4.60737 2.49867 3.73615 3.40182C2.14947 5.04889 1.18785 7.07521 0.839748 9.48388C0.670503 10.6532 0.621268 10.8917 0.611268 16.8645C0.607421 18.8554 0.611268 21.4757 0.611268 24.9902C0.611268 35.4218 0.622807 38.4721 0.672811 39.0644C0.845903 41.1492 1.17285 42.4609 1.86522 43.8956C3.18841 46.642 5.71554 48.7037 8.69272 49.473C9.72357 49.7384 10.8621 49.8846 12.3238 49.9538C12.9431 49.9808 19.2551 50 25.5711 50C31.887 50 38.2029 49.9923 38.8068 49.9615C40.4992 49.8819 41.482 49.75 42.5686 49.4692C44.0448 49.0906 45.4206 48.3943 46.5999 47.429C47.7791 46.4637 48.7334 45.2526 49.3961 43.8802C50.075 42.4801 50.4193 41.1185 50.5751 39.1425C50.6089 38.7117 50.6232 31.8431 50.6232 24.9836C50.6232 18.1231 50.6078 11.2671 50.5739 10.8363C50.4162 8.82844 50.072 7.47832 49.3711 6.05128C48.7961 4.8831 48.1576 4.01072 47.2306 3.11872C45.5766 1.53859 43.5533 0.576972 41.142 0.22925C39.9738 0.0603897 39.7411 0.0103855 33.7637 0H25.6245Z" fill="url(#paint0_radial_222_302)"/>
<path d="M25.6245 0C15.1844 0 12.1311 0.0107701 11.5376 0.0600051C9.39508 0.238097 8.06189 0.575433 6.60946 1.29857C5.49014 1.85439 4.60737 2.49867 3.73615 3.40182C2.14947 5.04889 1.18785 7.07521 0.839748 9.48388C0.670503 10.6532 0.621268 10.8917 0.611268 16.8645C0.607421 18.8554 0.611268 21.4757 0.611268 24.9902C0.611268 35.4218 0.622807 38.4721 0.672811 39.0644C0.845903 41.1492 1.17285 42.4609 1.86522 43.8956C3.18841 46.642 5.71554 48.7037 8.69272 49.473C9.72357 49.7384 10.8621 49.8846 12.3238 49.9538C12.9431 49.9808 19.2551 50 25.5711 50C31.887 50 38.2029 49.9923 38.8068 49.9615C40.4992 49.8819 41.482 49.75 42.5686 49.4692C44.0448 49.0906 45.4206 48.3943 46.5999 47.429C47.7791 46.4637 48.7334 45.2526 49.3961 43.8802C50.075 42.4801 50.4193 41.1185 50.5751 39.1425C50.6089 38.7117 50.6232 31.8431 50.6232 24.9836C50.6232 18.1231 50.6078 11.2671 50.5739 10.8363C50.4162 8.82844 50.072 7.47832 49.3711 6.05128C48.7961 4.8831 48.1576 4.01072 47.2306 3.11872C45.5766 1.53859 43.5533 0.576972 41.142 0.22925C39.9738 0.0603897 39.7411 0.0103855 33.7637 0H25.6245Z" fill="url(#paint1_radial_222_302)"/>
<path d="M25.6129 6.53906C20.5987 6.53906 19.9694 6.56099 18 6.65061C16.0344 6.74062 14.6928 7.0518 13.5188 7.50838C12.3045 7.97995 11.2744 8.61078 10.2482 9.6374C9.22116 10.6636 8.59034 11.6937 8.11722 12.9077C7.65949 14.082 7.34793 15.424 7.25946 17.3888C7.17176 19.3582 7.14868 19.9879 7.14868 25.0022C7.14868 30.0164 7.17099 30.6438 7.26023 32.6132C7.35062 34.5787 7.6618 35.9204 8.11799 37.0943C8.58996 38.3087 9.22078 39.3388 10.2474 40.365C11.2733 41.392 12.3033 42.0244 13.5169 42.4959C14.6916 42.9525 16.0337 43.2637 17.9988 43.3537C19.9682 43.4433 20.5971 43.4653 25.611 43.4653C30.6257 43.4653 31.253 43.4433 33.2224 43.3537C35.188 43.2637 36.5312 42.9525 37.7059 42.4959C38.9198 42.0244 39.9484 41.392 40.9742 40.365C42.0012 39.3388 42.6321 38.3087 43.1052 37.0947C43.5591 35.9204 43.8706 34.5784 43.9629 32.6136C44.0514 30.6442 44.0745 30.0164 44.0745 25.0022C44.0745 19.9879 44.0514 19.3586 43.9629 17.3892C43.8706 15.4237 43.5591 14.082 43.1052 12.9081C42.6321 11.6937 42.0012 10.6636 40.9742 9.6374C39.9472 8.61039 38.9202 7.97957 37.7047 7.50838C36.5277 7.0518 35.1853 6.74062 33.2197 6.65061C31.2503 6.56099 30.6234 6.53906 25.6075 6.53906H25.6129ZM23.9566 9.86627C24.4482 9.8655 24.9967 9.86627 25.6129 9.86627C30.5426 9.86627 31.1269 9.88396 33.0736 9.97243C34.8737 10.0547 35.8507 10.3555 36.5015 10.6083C37.3631 10.9429 37.9774 11.3429 38.6233 11.9891C39.2695 12.6353 39.6695 13.2508 40.0049 14.1124C40.2576 14.7624 40.5588 15.7395 40.6407 17.5396C40.7292 19.4859 40.7484 20.0706 40.7484 24.9979C40.7484 29.9253 40.7292 30.5099 40.6407 32.4562C40.5584 34.2564 40.2576 35.2334 40.0049 35.8835C39.6703 36.7451 39.2695 37.3586 38.6233 38.0044C37.977 38.6506 37.3635 39.0506 36.5015 39.3853C35.8515 39.6392 34.8737 39.9392 33.0736 40.0215C31.1272 40.11 30.5426 40.1292 25.6129 40.1292C20.6829 40.1292 20.0986 40.11 18.1523 40.0215C16.3521 39.9384 15.3751 39.6376 14.7239 39.3849C13.8623 39.0503 13.2469 38.6502 12.6007 38.004C11.9545 37.3578 11.5544 36.7439 11.219 35.8819C10.9663 35.2319 10.6651 34.2549 10.5832 32.4547C10.4947 30.5084 10.477 29.9237 10.477 24.9933C10.477 20.0629 10.4947 19.4813 10.5832 17.535C10.6655 15.7348 10.9663 14.7578 11.219 14.107C11.5537 13.2454 11.9545 12.63 12.6007 11.9838C13.2469 11.3375 13.8623 10.9375 14.7239 10.6021C15.3748 10.3482 16.3521 10.0482 18.1523 9.96551C19.8555 9.88858 20.5156 9.8655 23.9566 9.86165V9.86627ZM35.4684 12.9319C35.0301 12.9319 34.6018 13.0619 34.2374 13.3054C33.873 13.5488 33.589 13.8949 33.4214 14.2998C33.2537 14.7047 33.2099 15.1502 33.2954 15.58C33.381 16.0098 33.5921 16.4046 33.902 16.7144C34.2119 17.0242 34.6068 17.2352 35.0366 17.3206C35.4664 17.406 35.9119 17.362 36.3168 17.1942C36.7216 17.0264 37.0676 16.7423 37.3109 16.3778C37.5543 16.0134 37.6841 15.5849 37.6839 15.1467C37.6839 13.9235 36.6916 12.9311 35.4684 12.9311V12.9319ZM25.6129 15.5206C20.3767 15.5206 16.1314 19.7659 16.1314 25.0022C16.1314 30.2384 20.3767 34.4818 25.6129 34.4818C30.8491 34.4818 35.0933 30.2384 35.0933 25.0022C35.0933 19.7659 30.8488 15.5206 25.6125 15.5206H25.6129ZM25.6129 18.8478C29.0117 18.8478 31.7673 21.603 31.7673 25.0022C31.7673 28.4009 29.0117 31.1565 25.6129 31.1565C22.2138 31.1565 19.4586 28.4009 19.4586 25.0022C19.4586 21.603 22.2138 18.8478 25.6129 18.8478V18.8478Z" fill="white"/>
</g>
<defs>
<radialGradient id="paint0_radial_222_302" cx="0" cy="0" r="1" gradientUnits="userSpaceOnUse" gradientTransform="translate(13.8945 53.851) rotate(-90) scale(49.5537 46.1014)">
<stop stop-color="#FFDD55"/>
<stop offset="0.1" stop-color="#FFDD55"/>
<stop offset="0.5" stop-color="#FF543E"/>
<stop offset="1" stop-color="#C837AB"/>
</radialGradient>
<radialGradient id="paint1_radial_222_302" cx="0" cy="0" r="1" gradientUnits="userSpaceOnUse" gradientTransform="translate(-7.76799 3.60191) rotate(78.6776) scale(22.1509 91.33)">
<stop stop-color="#3771C8"/>
<stop offset="0.128" stop-color="#3771C8"/>
<stop offset="1" stop-color="#6600FF" stop-opacity="0"/>
</radialGradient>
<clipPath id="clip0_222_302">
<rect width="50.0134" height="50" fill="white" transform="translate(0.609741)"/>
</clipPath>
</defs>
</svg>
