<svg width="68" height="67" viewBox="0 0 68 67" fill="none" xmlns="http://www.w3.org/2000/svg">
<path d="M29.4112 7.78857L32.7633 0.68237C32.8538 0.479225 33.0012 0.306659 33.1878 0.185555C33.3743 0.0644515 33.5919 0 33.8143 0C34.0367 0 34.2543 0.0644515 34.4408 0.185555C34.6274 0.306659 34.7748 0.479225 34.8653 0.68237L38.2211 7.78857L45.7145 8.93544C46.677 9.08295 47.0605 10.322 46.3636 11.0301L40.9426 16.5616L42.2223 24.3722C42.3845 25.3752 41.3815 26.1423 40.5185 25.6665L33.8143 21.9788L27.1101 25.6665C26.2508 26.1386 25.2441 25.3752 25.4064 24.3722L26.686 16.5616L21.2651 11.0301C20.5644 10.322 20.9516 9.08295 21.9104 8.93544L29.4112 7.79226V7.78857Z" fill="white"/>
<path d="M22.7512 66.3751H44.8774V55.6808V35.3984C44.8774 34.8116 44.6443 34.2488 44.2294 33.8338C43.8144 33.4189 43.2516 33.1858 42.6648 33.1858H24.9638C24.377 33.1858 23.8142 33.4189 23.3993 33.8338C22.9843 34.2488 22.7512 34.8116 22.7512 35.3984V48.3053V66.3751Z" fill="white"/>
<path d="M44.8774 55.6808V66.3751H64.791C65.3778 66.3751 65.9406 66.142 66.3556 65.727C66.7705 65.3121 67.0036 64.7493 67.0036 64.1625V55.6808C67.0036 55.0939 66.7705 54.5311 66.3556 54.1162C65.9406 53.7012 65.3778 53.4681 64.791 53.4681H47.09C46.5032 53.4681 45.9404 53.7012 45.5255 54.1162C45.1105 54.5311 44.8774 55.0939 44.8774 55.6808Z" fill="white"/>
<path d="M22.7512 66.3751V48.3053C22.7512 47.7185 22.5181 47.1557 22.1031 46.7408C21.6882 46.3258 21.1254 46.0927 20.5386 46.0927H2.83762C2.2508 46.0927 1.68801 46.3258 1.27306 46.7408C0.858115 47.1557 0.625 47.7185 0.625 48.3053V64.1625C0.625 64.7493 0.858115 65.3121 1.27306 65.727C1.68801 66.142 2.2508 66.3751 2.83762 66.3751H22.7512Z" fill="white"/>
</svg>
