<svg width="442" height="158" viewBox="0 0 442 158" fill="none" xmlns="http://www.w3.org/2000/svg">
<path d="M148.576 107.124C148.576 107.997 149.283 108.704 150.156 108.704H160.372C161.245 108.704 161.952 107.997 161.952 107.124V57.3993C161.952 56.5267 162.66 55.8193 163.532 55.8193H178.886C179.759 55.8193 180.466 55.1119 180.466 54.2393V46.3705C180.466 45.4979 179.759 44.7905 178.886 44.7905H131.686C130.813 44.7905 130.106 45.4979 130.106 46.3705V54.2393C130.106 55.1119 130.813 55.8193 131.686 55.8193H146.996C147.868 55.8193 148.576 56.5267 148.576 57.3993V107.124Z" fill="white"/>
<path d="M187.066 107.124C187.066 107.997 187.773 108.704 188.646 108.704H198.419C199.292 108.704 199.999 107.997 199.999 107.124V81.5087C199.999 75.3078 203.675 70.9672 209.389 70.9672C215.28 70.9672 218.557 74.9092 218.557 81.553V107.124C218.557 107.997 219.265 108.704 220.137 108.704H229.911C230.783 108.704 231.491 107.997 231.491 107.124V78.8955C231.491 67.4238 225.113 60.2485 214.837 60.2485C207.746 60.2485 202.757 63.4894 200.306 69.3181C200.281 69.3775 200.223 69.4169 200.158 69.4169C200.07 69.4169 199.999 69.3456 199.999 69.2577V46.3705C199.999 45.4979 199.292 44.7905 198.419 44.7905H188.646C187.773 44.7905 187.066 45.4979 187.066 46.3705V107.124Z" fill="white"/>
<path d="M261.609 109.678C275.96 109.678 285.128 100.466 285.128 84.9635V84.8749C285.128 69.5055 275.783 60.2485 261.565 60.2485C247.392 60.2485 238.09 69.5941 238.09 84.8749V84.9635C238.09 100.421 247.17 109.678 261.609 109.678ZM261.654 99.5356C255.276 99.5356 251.245 94.2648 251.245 84.9635V84.8749C251.245 75.7064 255.32 70.3914 261.565 70.3914C267.855 70.3914 271.974 75.7064 271.974 84.8749V84.9635C271.974 94.2205 267.943 99.5356 261.654 99.5356Z" fill="white"/>
<path d="M310.685 109.678C312.644 109.678 314.278 109.539 315.585 109.377C316.36 109.282 316.93 108.614 316.93 107.833V101.478C316.93 100.536 316.114 99.833 315.175 99.8981C314.857 99.9201 314.515 99.9342 314.14 99.9342C310.242 99.9342 308.249 98.4283 308.249 93.9991V72.5472C308.249 71.6746 308.956 70.9672 309.829 70.9672H315.35C316.223 70.9672 316.93 70.2598 316.93 69.3872V62.8029C316.93 61.9303 316.223 61.2229 315.35 61.2229H309.829C308.956 61.2229 308.249 60.5155 308.249 59.6429V51.1984C308.249 50.3258 307.542 49.6184 306.669 49.6184H296.763C295.89 49.6184 295.183 50.3258 295.183 51.1984V59.6429C295.183 60.5155 294.475 61.2229 293.603 61.2229H290.163C289.291 61.2229 288.583 61.9303 288.583 62.8029V69.3872C288.583 70.2598 289.291 70.9672 290.163 70.9672H293.603C294.475 70.9672 295.183 71.6746 295.183 72.5472V95.4164C295.183 105.604 300.143 109.678 310.685 109.678Z" fill="white"/>
<path d="M324.371 107.124C324.371 107.997 325.079 108.704 325.951 108.704H335.725C336.597 108.704 337.305 107.997 337.305 107.124V81.5087C337.305 75.3078 340.981 70.9672 346.695 70.9672C352.585 70.9672 355.863 74.9092 355.863 81.553V107.124C355.863 107.997 356.57 108.704 357.443 108.704H367.216C368.089 108.704 368.796 107.997 368.796 107.124V78.8955C368.796 67.4238 362.418 60.2485 352.142 60.2485C345.051 60.2485 340.063 63.4894 337.612 69.3181C337.587 69.3775 337.528 69.4169 337.464 69.4169C337.376 69.4169 337.305 69.3456 337.305 69.2577V46.3705C337.305 45.4979 336.597 44.7905 335.725 44.7905H325.951C325.079 44.7905 324.371 45.4979 324.371 46.3705V107.124Z" fill="white"/>
<path d="M398.738 109.678C412.291 109.678 418.846 101.662 420.308 94.6634C420.375 94.4181 420.19 94.1762 419.936 94.1762H408.851C408.683 94.1762 408.535 94.2833 408.482 94.442C407.552 97.0995 404.319 100.023 399.004 100.023C392.885 100.023 388.899 96.2162 388.244 89.6264C388.157 88.7473 388.876 88.0196 389.76 88.0196H419.26C420.132 88.0196 420.84 87.3122 420.84 86.4396V84.0333C420.84 69.6827 412.114 60.2485 398.206 60.2485C384.299 60.2485 375.396 69.9042 375.396 85.0078V85.0521C375.396 100.244 384.21 109.678 398.738 109.678ZM398.428 69.9042C403.286 69.9042 406.906 72.7063 408.135 78.1126C408.345 79.0373 407.602 79.8699 406.654 79.8699H390.085C389.131 79.8699 388.387 79.0268 388.613 78.0998C389.904 72.7996 393.623 69.9042 398.428 69.9042Z" fill="white"/>
<g clip-path="url(#clip0_1_335)">
<circle cx="69.994" cy="76.946" r="51.666" fill="#56CCF2"/>
<path fill-rule="evenodd" clip-rule="evenodd" d="M60.6424 39.5398C54.6886 39.5398 49.8663 43.8633 48.66 49.4774C41.3907 50.7741 35.705 56.8402 35.705 64.4773C35.705 65.2441 35.7891 65.9267 35.9013 66.6219C33.8908 69.577 32.5878 73.0589 32.5878 76.946C32.5878 82.5476 35.3776 87.2607 39.3084 90.6803C39.0279 91.79 38.8221 92.8966 38.8221 94.0905C38.8221 101.799 45.1407 108.118 52.8495 108.118H53.0458C54.86 111.637 58.0022 114.352 62.201 114.352C63.6555 114.349 65.0946 114.054 66.4331 113.485C67.7717 112.916 68.9825 112.084 69.994 111.039C71.0054 112.084 72.2163 112.916 73.5548 113.485C74.8933 114.054 76.3324 114.349 77.7869 114.352C81.9889 114.352 85.1279 111.637 86.9452 108.118H87.1385C94.4576 108.118 100.458 102.42 101.069 95.2594H101.166C101.166 95.1534 101.141 95.0484 101.117 94.9432C101.096 94.8535 101.075 94.7638 101.069 94.6734C101.075 94.5846 101.096 94.4951 101.117 94.4055C101.141 94.3003 101.166 94.1949 101.166 94.0905C101.166 93.2445 100.944 92.4886 100.72 91.7252C100.638 91.445 100.555 91.1637 100.483 90.8767C104.526 87.4415 107.4 82.6473 107.4 76.946C107.4 73.062 106.097 69.5801 104.087 66.6188C104.199 65.9267 104.283 65.2472 104.283 64.4773C104.283 56.8402 98.5972 50.7772 91.3279 49.4743C90.1216 43.8664 85.2993 39.5398 79.3455 39.5398C75.6049 39.5398 72.282 41.2823 69.994 43.9226C67.7059 41.2854 64.383 39.5398 60.6424 39.5398ZM60.6424 45.7742C64.1243 45.7742 66.8768 48.5266 66.8768 52.0085H73.1111C73.1111 48.5266 75.8636 45.7742 79.3455 45.7742C82.8274 45.7742 85.5799 48.5266 85.5799 52.0085V55.1257H88.697C93.8965 55.1257 98.0486 59.2778 98.0486 64.4773C98.0486 65.1474 97.9239 65.7927 97.7556 66.5221L97.4657 68.0807L98.4382 69.2497C100.208 71.4239 101.171 74.1428 101.166 76.946C101.166 80.6866 99.5698 84.022 96.9763 86.2975C94.8472 84.4116 92.1322 83.1803 89.0867 83.1803C88.004 83.1803 86.9604 83.3218 85.9695 83.589L89.0867 89.4147C92.0948 89.4147 94.4919 91.6684 94.8348 94.5768C94.5792 98.6821 91.303 101.883 87.1385 101.883C86.8579 101.883 86.515 101.871 85.9695 101.787L82.949 101.297L82.366 104.321C82.1793 105.395 81.6156 106.368 80.7763 107.063C79.937 107.759 78.8771 108.133 77.7869 108.118C75.1685 108.118 73.1111 106.06 73.1111 103.442H66.8768C66.8768 106.06 64.8194 108.118 62.201 108.118C61.1104 108.133 60.0501 107.759 59.2107 107.062C58.3714 106.366 57.808 105.393 57.6219 104.318L57.0389 101.301L54.0184 101.787C52.9085 101.962 51.7738 101.894 50.6928 101.587C49.6119 101.281 48.6105 100.743 47.7581 100.011C46.9056 99.2786 46.2225 98.37 45.756 97.3477C45.2896 96.3255 45.0509 95.2141 45.0565 94.0905C45.0565 93.1273 45.2124 92.2264 45.5428 91.3629C45.5547 91.3286 45.5724 91.2985 45.59 91.2686C45.6091 91.2362 45.628 91.2039 45.6394 91.1666C46.6057 88.7695 48.6974 87.0145 51.2909 86.4908L50.0253 80.3562C46.8439 80.9846 43.983 82.7073 41.9393 85.2252C39.9125 82.9457 38.802 79.9962 38.8221 76.946C38.8168 74.1428 39.7804 71.4239 41.5497 69.2497L42.5253 68.0807L42.2323 66.5221C42.0557 65.8542 41.9574 65.1679 41.9393 64.4773C41.9393 59.2778 46.0914 55.1257 51.2909 55.1257H54.408V52.0085C54.408 48.5266 57.1605 45.7742 60.6424 45.7742Z" fill="white"/>
<path d="M57.5005 91.213C57.3307 91.6993 57.6917 92.2078 58.2068 92.2078H61.9871C62.3146 92.2078 62.604 91.9948 62.7014 91.6821L64.2255 86.7883C64.3229 86.4756 64.6123 86.2626 64.9398 86.2626H72.5016C72.8291 86.2626 73.1185 86.4756 73.2159 86.7883L74.74 91.6821C74.8373 91.9948 75.1268 92.2078 75.4542 92.2078H79.2352C79.7502 92.2078 80.1112 91.6997 79.9417 91.2134L71.9192 68.1986C71.8144 67.898 71.531 67.6967 71.2127 67.6967H66.2453C65.9272 67.6967 65.6439 67.8978 65.539 68.1981L57.5005 91.213ZM68.6546 72.5015C68.6636 72.4725 68.6904 72.4528 68.7207 72.4528C68.751 72.4528 68.7778 72.4725 68.7867 72.5015L71.5625 81.454C71.7117 81.9355 71.3519 82.4237 70.8479 82.4237H66.5934C66.0894 82.4237 65.7296 81.9355 65.8789 81.454L68.6546 72.5015Z" fill="white"/>
<path d="M73.4134 64.0991C73.4134 64.5123 73.7483 64.8473 74.1615 64.8473H77.246C77.6592 64.8473 77.9941 65.1822 77.9941 65.5954V68.3377C77.9941 68.7509 78.3291 69.0858 78.7422 69.0858H80.0607C80.4739 69.0858 80.8088 68.7509 80.8088 68.3377V65.5954C80.8088 65.1822 81.1438 64.8473 81.5569 64.8473H84.6525C85.0657 64.8473 85.4006 64.5123 85.4006 64.0991V62.7807C85.4006 62.3675 85.0657 62.0326 84.6525 62.0326H81.5569C81.1438 62.0326 80.8088 61.6976 80.8088 61.2845V58.5311C80.8088 58.1179 80.4739 57.783 80.0607 57.783H78.7422C78.3291 57.783 77.9941 58.1179 77.9941 58.5311V61.2845C77.9941 61.6976 77.6592 62.0326 77.246 62.0326H74.1615C73.7483 62.0326 73.4134 62.3675 73.4134 62.7807V64.0991Z" fill="white"/>
</g>
<defs>
<clipPath id="clip0_1_335">
<rect width="103.332" height="103.332" fill="white" transform="translate(18.328 25.28)"/>
</clipPath>
</defs>
</svg>
