<svg width="1612" height="500" viewBox="0 0 1612 500" fill="none" xmlns="http://www.w3.org/2000/svg">
<rect width="1612" height="500" rx="100" fill="white"/>
<path d="M583.382 319C582.029 314.571 580.491 310.02 578.769 305.345C577.169 300.67 575.57 295.996 573.971 291.321H524.149C522.55 295.996 520.889 300.67 519.167 305.345C517.568 310.02 516.092 314.571 514.738 319H484.845C489.643 305.222 494.195 292.49 498.5 280.803C502.806 269.117 506.988 258.107 511.048 247.773C515.23 237.44 519.29 227.66 523.227 218.434C527.286 209.084 531.469 199.981 535.774 191.124H563.269C567.451 199.981 571.572 209.084 575.632 218.434C579.691 227.66 583.751 237.44 587.81 247.773C591.993 258.107 596.237 269.117 600.543 280.803C604.848 292.49 609.4 305.222 614.198 319H583.382ZM548.876 220.094C548.261 221.94 547.338 224.461 546.108 227.66C544.878 230.858 543.463 234.549 541.864 238.731C540.264 242.914 538.481 247.527 536.512 252.571C534.667 257.615 532.76 262.904 530.792 268.44H567.144C565.175 262.904 563.269 257.615 561.423 252.571C559.578 247.527 557.794 242.914 556.072 238.731C554.473 234.549 553.058 230.858 551.828 227.66C550.598 224.461 549.614 221.94 548.876 220.094ZM687.399 246.297C684.939 245.682 682.048 245.067 678.727 244.452C675.405 243.714 671.838 243.345 668.024 243.345C666.302 243.345 664.211 243.529 661.75 243.898C659.413 244.144 657.629 244.452 656.399 244.821V319H628.905V227.106C633.826 225.384 639.607 223.785 646.25 222.309C653.016 220.709 660.52 219.91 668.762 219.91C670.239 219.91 672.022 220.033 674.114 220.279C676.205 220.402 678.296 220.648 680.387 221.017C682.479 221.263 684.57 221.632 686.661 222.124C688.753 222.493 690.536 222.985 692.013 223.6L687.399 246.297ZM728.384 271.208C728.384 288.799 734.904 297.595 747.944 297.595C750.773 297.595 753.541 297.226 756.248 296.488C759.077 295.75 761.353 294.827 763.075 293.72V244.083C761.722 243.837 760 243.652 757.908 243.529C755.817 243.283 753.541 243.16 751.081 243.16C743.577 243.16 737.918 245.743 734.105 250.91C730.291 255.954 728.384 262.72 728.384 271.208ZM700.336 270.47C700.336 262.966 701.444 256.138 703.658 249.987C705.995 243.714 709.317 238.362 713.622 233.934C717.928 229.382 723.218 225.876 729.491 223.416C735.765 220.955 742.9 219.725 750.896 219.725C754.218 219.725 757.662 219.91 761.23 220.279C764.92 220.525 768.488 220.894 771.932 221.386C775.5 221.878 778.883 222.493 782.081 223.231C785.28 223.846 788.109 224.523 790.569 225.261V353.137H763.075V316.601C760 317.954 756.801 319 753.48 319.738C750.158 320.476 746.591 320.845 742.777 320.845C728.999 320.845 718.481 316.355 711.223 307.375C703.965 298.272 700.336 285.97 700.336 270.47ZM899.165 315.679C894.491 317.032 888.463 318.262 881.082 319.369C873.701 320.599 865.951 321.214 857.832 321.214C849.59 321.214 842.701 320.107 837.165 317.893C831.752 315.679 827.447 312.603 824.248 308.667C821.05 304.607 818.774 299.809 817.421 294.274C816.067 288.738 815.391 282.648 815.391 276.006V221.94H842.885V272.684C842.885 281.541 844.054 287.938 846.391 291.875C848.728 295.811 853.096 297.78 859.492 297.78C861.461 297.78 863.552 297.718 865.766 297.595C867.981 297.349 869.949 297.103 871.671 296.857V221.94H899.165V315.679ZM952.469 319H924.974V221.94H952.469V319ZM955.052 193.892C955.052 198.935 953.391 202.933 950.07 205.886C946.872 208.715 943.058 210.13 938.629 210.13C934.201 210.13 930.326 208.715 927.004 205.886C923.806 202.933 922.207 198.935 922.207 193.892C922.207 188.848 923.806 184.911 927.004 182.082C930.326 179.13 934.201 177.653 938.629 177.653C943.058 177.653 946.872 179.13 950.07 182.082C953.391 184.911 955.052 188.848 955.052 193.892ZM1031.64 267.517C1031.64 258.66 1030.47 252.386 1028.14 248.696C1025.92 245.005 1022.05 243.16 1016.51 243.16C1014.79 243.16 1013 243.283 1011.16 243.529C1009.31 243.652 1007.53 243.837 1005.81 244.083V319H978.314V225.261C980.651 224.646 983.358 224.031 986.433 223.416C989.631 222.678 992.953 222.063 996.397 221.571C999.965 220.955 1003.59 220.525 1007.28 220.279C1010.97 219.91 1014.6 219.725 1018.17 219.725C1025.18 219.725 1030.84 220.648 1035.15 222.493C1039.58 224.215 1043.21 226.307 1046.03 228.767C1049.97 225.938 1054.46 223.723 1059.51 222.124C1064.67 220.525 1069.41 219.725 1073.71 219.725C1081.46 219.725 1087.8 220.832 1092.72 223.047C1097.76 225.138 1101.76 228.152 1104.71 232.089C1107.67 236.025 1109.7 240.7 1110.8 246.112C1111.91 251.525 1112.46 257.553 1112.46 264.196V319H1084.97V267.517C1084.97 258.66 1083.8 252.386 1081.46 248.696C1079.25 245.005 1075.37 243.16 1069.84 243.16C1068.36 243.16 1066.27 243.529 1063.56 244.267C1060.98 245.005 1058.83 245.928 1057.11 247.035C1057.97 249.864 1058.52 252.878 1058.77 256.077C1059.01 259.152 1059.14 262.474 1059.14 266.041V319H1031.64V267.517ZM1132.82 271.208C1132.82 262.597 1134.11 255.093 1136.69 248.696C1139.4 242.176 1142.91 236.763 1147.21 232.458C1151.52 228.152 1156.44 224.892 1161.97 222.678C1167.63 220.463 1173.41 219.356 1179.32 219.356C1193.1 219.356 1203.98 223.6 1211.98 232.089C1219.98 240.454 1223.97 252.817 1223.97 269.178C1223.97 270.777 1223.91 272.561 1223.79 274.529C1223.67 276.375 1223.54 278.035 1223.42 279.512H1161.05C1161.67 285.17 1164.31 289.66 1168.98 292.982C1173.66 296.303 1179.93 297.964 1187.81 297.964C1192.85 297.964 1197.77 297.534 1202.57 296.672C1207.49 295.688 1211.49 294.52 1214.56 293.166L1218.25 315.494C1216.78 316.232 1214.81 316.97 1212.35 317.708C1209.89 318.446 1207.12 319.062 1204.04 319.554C1201.09 320.169 1197.89 320.661 1194.45 321.03C1191 321.399 1187.56 321.583 1184.12 321.583C1175.38 321.583 1167.75 320.292 1161.23 317.708C1154.84 315.125 1149.49 311.619 1145.18 307.19C1141 302.639 1137.86 297.288 1135.77 291.137C1133.8 284.986 1132.82 278.343 1132.82 271.208ZM1197.4 260.69C1197.28 258.353 1196.85 256.077 1196.11 253.863C1195.5 251.648 1194.45 249.68 1192.97 247.958C1191.62 246.235 1189.84 244.821 1187.62 243.714C1185.53 242.606 1182.89 242.053 1179.69 242.053C1176.61 242.053 1173.97 242.606 1171.75 243.714C1169.54 244.698 1167.69 246.051 1166.22 247.773C1164.74 249.495 1163.57 251.525 1162.71 253.863C1161.97 256.077 1161.42 258.353 1161.05 260.69H1197.4ZM1268.63 269.732C1268.63 278.22 1270.53 285.047 1274.35 290.214C1278.16 295.381 1283.82 297.964 1291.32 297.964C1293.78 297.964 1296.06 297.903 1298.15 297.78C1300.24 297.534 1301.96 297.288 1303.32 297.041V247.035C1301.59 245.928 1299.32 245.005 1296.49 244.267C1293.78 243.529 1291.01 243.16 1288.19 243.16C1275.15 243.16 1268.63 252.017 1268.63 269.732ZM1330.81 315.863C1328.35 316.601 1325.52 317.339 1322.32 318.077C1319.12 318.692 1315.74 319.246 1312.17 319.738C1308.73 320.23 1305.16 320.599 1301.47 320.845C1297.9 321.214 1294.46 321.399 1291.14 321.399C1283.14 321.399 1276.01 320.23 1269.73 317.893C1263.46 315.556 1258.17 312.234 1253.86 307.928C1249.56 303.5 1246.24 298.21 1243.9 292.059C1241.69 285.785 1240.58 278.773 1240.58 271.023C1240.58 263.15 1241.56 256.077 1243.53 249.803C1245.5 243.406 1248.33 237.993 1252.02 233.565C1255.71 229.136 1260.2 225.753 1265.49 223.416C1270.9 221.078 1277.05 219.91 1283.94 219.91C1287.75 219.91 1291.14 220.279 1294.09 221.017C1297.17 221.755 1300.24 222.801 1303.32 224.154V180.237L1330.81 175.808V315.863ZM1384.05 319H1356.56V221.94H1384.05V319ZM1386.63 193.892C1386.63 198.935 1384.97 202.933 1381.65 205.886C1378.45 208.715 1374.64 210.13 1370.21 210.13C1365.78 210.13 1361.91 208.715 1358.58 205.886C1355.39 202.933 1353.79 198.935 1353.79 193.892C1353.79 188.848 1355.39 184.911 1358.58 182.082C1361.91 179.13 1365.78 177.653 1370.21 177.653C1374.64 177.653 1378.45 179.13 1381.65 182.082C1384.97 184.911 1386.63 188.848 1386.63 193.892ZM1446.98 299.809C1449.69 299.809 1452.27 299.748 1454.73 299.625C1457.19 299.502 1459.16 299.317 1460.64 299.071V278.22C1459.53 277.974 1457.87 277.728 1455.66 277.482C1453.44 277.236 1451.41 277.113 1449.57 277.113C1446.98 277.113 1444.52 277.297 1442.19 277.666C1439.97 277.912 1438 278.466 1436.28 279.327C1434.56 280.188 1433.21 281.357 1432.22 282.833C1431.24 284.309 1430.75 286.154 1430.75 288.369C1430.75 292.674 1432.16 295.688 1434.99 297.411C1437.94 299.01 1441.94 299.809 1446.98 299.809ZM1444.77 219.356C1452.89 219.356 1459.65 220.279 1465.07 222.124C1470.48 223.969 1474.79 226.614 1477.98 230.059C1481.31 233.503 1483.64 237.686 1485 242.606C1486.35 247.527 1487.03 253.001 1487.03 259.029V316.232C1483.09 317.093 1477.62 318.077 1470.6 319.185C1463.59 320.415 1455.1 321.03 1445.14 321.03C1438.86 321.03 1433.14 320.476 1427.98 319.369C1422.93 318.262 1418.57 316.478 1414.88 314.018C1411.19 311.434 1408.36 308.113 1406.39 304.053C1404.42 299.994 1403.44 295.012 1403.44 289.107C1403.44 283.448 1404.54 278.65 1406.76 274.714C1409.09 270.777 1412.17 267.64 1415.98 265.303C1419.8 262.966 1424.16 261.305 1429.09 260.321C1434.01 259.214 1439.11 258.66 1444.4 258.66C1447.97 258.66 1451.11 258.845 1453.81 259.214C1456.64 259.46 1458.92 259.829 1460.64 260.321V257.738C1460.64 253.063 1459.22 249.311 1456.39 246.481C1453.57 243.652 1448.64 242.237 1441.63 242.237C1436.96 242.237 1432.34 242.606 1427.79 243.345C1423.24 243.96 1419.31 244.882 1415.98 246.112L1412.48 223.969C1414.08 223.477 1416.05 222.985 1418.38 222.493C1420.84 221.878 1423.49 221.386 1426.32 221.017C1429.15 220.525 1432.1 220.156 1435.17 219.91C1438.37 219.541 1441.57 219.356 1444.77 219.356Z" fill="black"/>
<circle cx="277.5" cy="249.5" r="163.5" fill="#56CCF2"/>
<path fill-rule="evenodd" clip-rule="evenodd" d="M247.906 131.126C229.065 131.126 213.805 144.808 209.987 162.574C186.983 166.678 168.99 185.874 168.99 210.042C168.99 212.469 169.257 214.629 169.612 216.829C163.249 226.18 159.126 237.199 159.126 249.5C159.126 267.226 167.955 282.142 180.394 292.963C179.506 296.475 178.855 299.977 178.855 303.755C178.855 328.15 198.85 348.145 223.245 348.145H223.867C229.608 359.282 239.551 367.874 252.839 367.874C257.442 367.863 261.996 366.93 266.232 365.129C270.467 363.328 274.299 360.696 277.5 357.388C280.701 360.696 284.533 363.328 288.768 365.129C293.004 366.93 297.558 367.863 302.161 367.874C315.459 367.874 325.392 359.282 331.143 348.145H331.755C354.917 348.145 373.906 330.113 375.839 307.454H376.145C376.145 307.119 376.067 306.786 375.99 306.453C375.924 306.169 375.857 305.885 375.839 305.599C375.857 305.318 375.923 305.035 375.989 304.752C376.067 304.419 376.145 304.085 376.145 303.755C376.145 301.078 375.443 298.685 374.734 296.27C374.474 295.383 374.212 294.493 373.985 293.584C386.779 282.714 395.874 267.542 395.874 249.5C395.874 237.209 391.751 226.19 385.388 216.819C385.743 214.629 386.009 212.479 386.009 210.042C386.009 185.874 368.017 166.687 345.013 162.564C341.195 144.818 325.935 131.126 307.093 131.126C295.256 131.126 284.741 136.64 277.5 144.995C270.259 136.65 259.744 131.126 247.906 131.126ZM247.906 150.855C258.925 150.855 267.635 159.565 267.635 170.584H287.364C287.364 159.565 296.075 150.855 307.093 150.855C318.112 150.855 326.822 159.565 326.822 170.584V180.448H336.687C353.141 180.448 366.28 193.588 366.28 210.042C366.28 212.163 365.886 214.205 365.353 216.513L364.436 221.445L367.514 225.145C373.113 232.025 376.162 240.629 376.145 249.5C376.145 261.337 371.094 271.892 362.887 279.093C356.15 273.125 347.558 269.229 337.92 269.229C334.494 269.229 331.191 269.677 328.056 270.522L337.92 288.958C347.439 288.958 355.025 296.09 356.11 305.294C355.301 318.285 344.934 328.416 331.755 328.416C330.867 328.416 329.782 328.377 328.056 328.11L318.497 326.561L316.652 336.13C316.061 339.529 314.277 342.606 311.621 344.808C308.965 347.011 305.611 348.194 302.161 348.145C293.875 348.145 287.364 341.634 287.364 333.348H267.635C267.635 341.634 261.125 348.145 252.839 348.145C249.387 348.193 246.032 347.009 243.376 344.805C240.72 342.601 238.937 339.521 238.348 336.12L236.503 326.571L226.944 328.11C223.432 328.665 219.841 328.45 216.421 327.479C213 326.509 209.831 324.806 207.133 322.489C204.436 320.173 202.274 317.297 200.798 314.063C199.322 310.828 198.566 307.31 198.584 303.755C198.584 300.707 199.077 297.856 200.123 295.123C200.161 295.015 200.217 294.919 200.272 294.825C200.333 294.722 200.393 294.62 200.429 294.502C203.487 286.916 210.106 281.362 218.313 279.705L214.308 260.292C204.24 262.28 195.187 267.732 188.719 275.7C182.306 268.486 178.791 259.152 178.855 249.5C178.838 240.629 181.887 232.025 187.486 225.145L190.574 221.445L189.647 216.513C189.088 214.399 188.777 212.228 188.719 210.042C188.719 193.588 201.859 180.448 218.313 180.448H228.177V170.584C228.177 159.565 236.888 150.855 247.906 150.855Z" fill="white"/>
<path d="M237.964 294.648C237.426 296.187 238.568 297.796 240.199 297.796H252.162C253.198 297.796 254.114 297.122 254.422 296.133L259.245 280.646C259.553 279.657 260.469 278.983 261.505 278.983H285.435C286.472 278.983 287.388 279.657 287.696 280.646L292.519 296.133C292.827 297.122 293.743 297.796 294.779 297.796H306.744C308.374 297.796 309.516 296.188 308.98 294.65L283.592 221.818C283.261 220.867 282.364 220.23 281.357 220.23H265.637C264.63 220.23 263.734 220.866 263.402 221.817L237.964 294.648ZM273.261 235.435C273.29 235.343 273.374 235.281 273.47 235.281V235.281C273.566 235.281 273.651 235.343 273.679 235.435L282.463 263.766C282.936 265.289 281.797 266.834 280.202 266.834H266.739C265.144 266.834 264.005 265.289 264.477 263.766L273.261 235.435Z" fill="white"/>
<path d="M288.321 208.845C288.321 210.153 289.381 211.213 290.688 211.213H300.449C301.757 211.213 302.817 212.273 302.817 213.58V222.258C302.817 223.566 303.877 224.626 305.184 224.626H309.356C310.664 224.626 311.724 223.566 311.724 222.258V213.58C311.724 212.273 312.784 211.213 314.091 211.213H323.887C325.195 211.213 326.255 210.153 326.255 208.845V204.673C326.255 203.365 325.195 202.305 323.887 202.305H314.091C312.784 202.305 311.724 201.245 311.724 199.938V191.225C311.724 189.917 310.664 188.857 309.356 188.857H305.184C303.877 188.857 302.817 189.917 302.817 191.225V199.938C302.817 201.245 301.757 202.305 300.449 202.305H290.688C289.381 202.305 288.321 203.365 288.321 204.673V208.845Z" fill="white"/>
</svg>
