<svg width="442" height="158" viewBox="0 0 1385 327" fill="none" xmlns="http://www.w3.org/2000/svg">
<path fill-rule="evenodd" clip-rule="evenodd" d="M122.625 0C96.6012 0 75.5234 18.8979 70.2505 43.4365C38.477 49.1045 13.625 75.6188 13.625 109C13.625 112.352 13.9929 115.336 14.4834 118.374C5.69525 131.29 0 146.51 0 163.5C0 187.984 12.1944 208.585 29.3755 223.532C28.1493 228.382 27.25 233.219 27.25 238.438C27.25 272.132 54.8679 299.75 88.5625 299.75H89.4209C97.3506 315.133 111.085 327 129.438 327C135.795 326.986 142.085 325.696 147.936 323.209C153.786 320.721 159.079 317.085 163.5 312.517C167.921 317.085 173.214 320.721 179.064 323.209C184.915 325.696 191.205 326.986 197.563 327C215.929 327 229.649 315.133 237.593 299.75H238.438C270.429 299.75 296.657 274.844 299.328 243.547H299.75C299.75 243.084 299.643 242.624 299.536 242.165C299.444 241.773 299.353 241.381 299.328 240.985C299.353 240.597 299.444 240.206 299.535 239.815C299.643 239.354 299.75 238.894 299.75 238.438C299.75 234.74 298.78 231.436 297.801 228.099C297.441 226.874 297.081 225.645 296.766 224.39C314.438 209.375 327 188.42 327 163.5C327 146.523 321.305 131.304 312.517 118.36C313.007 115.336 313.375 112.365 313.375 109C313.375 75.6188 288.523 49.1181 256.75 43.4229C251.477 18.9115 230.399 0 204.375 0C188.025 0 173.501 7.61638 163.5 19.1568C153.499 7.63 138.975 0 122.625 0ZM122.625 27.25C137.844 27.25 149.875 39.2809 149.875 54.5H177.125C177.125 39.2809 189.156 27.25 204.375 27.25C219.594 27.25 231.625 39.2809 231.625 54.5V68.125H245.25C267.976 68.125 286.125 86.2735 286.125 109C286.125 111.929 285.58 114.75 284.844 117.938L283.577 124.751L287.828 129.86C295.562 139.363 299.773 151.247 299.75 163.5C299.75 179.85 292.774 194.429 281.438 204.375C272.132 196.132 260.265 190.75 246.953 190.75C242.221 190.75 237.659 191.368 233.328 192.536L246.953 218C260.101 218 270.579 227.851 272.078 240.563C270.96 258.507 256.641 272.5 238.438 272.5C237.211 272.5 235.713 272.446 233.328 272.078L220.126 269.939L217.578 283.155C216.761 287.85 214.297 292.1 210.629 295.142C206.96 298.183 202.328 299.817 197.563 299.75C186.118 299.75 177.125 290.757 177.125 279.312H149.875C149.875 290.757 140.882 299.75 129.438 299.75C124.671 299.817 120.036 298.181 116.367 295.136C112.698 292.092 110.236 287.839 109.422 283.141L106.875 269.952L93.6719 272.078C88.8207 272.844 83.8609 272.547 79.1361 271.206C74.4113 269.865 70.0343 267.514 66.3083 264.314C62.5824 261.114 59.5966 257.143 57.5576 252.675C55.5187 248.207 54.4754 243.349 54.5 238.438C54.5 234.227 55.1813 230.29 56.6255 226.516C56.6777 226.365 56.755 226.234 56.8318 226.103C56.9153 225.961 56.9982 225.82 57.0479 225.657C61.2716 215.18 70.414 207.509 81.75 205.22L76.2182 178.406C62.3124 181.152 49.8076 188.682 40.875 199.688C32.0161 189.724 27.1622 176.832 27.25 163.5C27.2267 151.247 31.4384 139.363 39.1719 129.86L43.4365 124.751L42.1558 117.938C41.3837 115.018 40.9539 112.019 40.875 109C40.875 86.2735 59.0235 68.125 81.75 68.125H95.375V54.5C95.375 39.2809 107.406 27.25 122.625 27.25Z" fill="white"/>
<path d="M108.892 225.86C108.149 227.985 109.727 230.208 111.979 230.208H128.502C129.934 230.208 131.199 229.277 131.624 227.91L138.286 206.52C138.712 205.153 139.977 204.222 141.408 204.222H174.46C175.892 204.222 177.157 205.153 177.582 206.52L184.244 227.91C184.67 229.277 185.935 230.208 187.366 230.208H203.893C206.143 230.208 207.721 227.987 206.98 225.862L171.914 125.265C171.457 123.952 170.218 123.072 168.827 123.072H147.114C145.724 123.072 144.486 123.951 144.027 125.263L108.892 225.86ZM157.645 144.073C157.685 143.947 157.802 143.86 157.934 143.86V143.86C158.067 143.86 158.184 143.947 158.223 144.073L170.355 183.204C171.008 185.308 169.435 187.443 167.232 187.443H148.636C146.433 187.443 144.86 185.308 145.513 183.204L157.645 144.073Z" fill="white"/>
<path d="M178.446 107.347C178.446 109.153 179.91 110.617 181.716 110.617H195.198C197.004 110.617 198.468 112.081 198.468 113.887V125.874C198.468 127.679 199.932 129.144 201.738 129.144H207.501C209.306 129.144 210.771 127.679 210.771 125.874V113.887C210.771 112.081 212.235 110.617 214.041 110.617H227.571C229.377 110.617 230.841 109.153 230.841 107.347V101.584C230.841 99.7782 229.377 98.3142 227.571 98.3142H214.041C212.235 98.3142 210.771 96.8502 210.771 95.0442V83.0094C210.771 81.2034 209.306 79.7394 207.501 79.7394H201.738C199.932 79.7394 198.468 81.2034 198.468 83.0094V95.0442C198.468 96.8502 197.004 98.3142 195.198 98.3142H181.716C179.91 98.3142 178.446 99.7782 178.446 101.584V107.347Z" fill="white"/>
<path d="M469.382 233C468.029 228.571 466.491 224.02 464.769 219.345C463.169 214.67 461.57 209.996 459.971 205.321H410.149C408.55 209.996 406.889 214.67 405.167 219.345C403.568 224.02 402.092 228.571 400.738 233H370.845C375.643 219.222 380.195 206.49 384.5 194.803C388.806 183.117 392.988 172.107 397.048 161.773C401.23 151.44 405.29 141.66 409.227 132.434C413.286 123.084 417.469 113.981 421.774 105.124H449.269C453.451 113.981 457.572 123.084 461.632 132.434C465.691 141.66 469.751 151.44 473.81 161.773C477.993 172.107 482.237 183.117 486.543 194.803C490.848 206.49 495.4 219.222 500.198 233H469.382ZM434.876 134.094C434.261 135.94 433.338 138.461 432.108 141.66C430.878 144.858 429.463 148.549 427.864 152.731C426.264 156.914 424.481 161.527 422.512 166.571C420.667 171.615 418.76 176.904 416.792 182.44H453.144C451.175 176.904 449.269 171.615 447.423 166.571C445.578 161.527 443.794 156.914 442.072 152.731C440.473 148.549 439.058 144.858 437.828 141.66C436.598 138.461 435.614 135.94 434.876 134.094ZM573.399 160.297C570.939 159.682 568.048 159.067 564.727 158.452C561.405 157.714 557.838 157.345 554.024 157.345C552.302 157.345 550.211 157.529 547.75 157.898C545.413 158.144 543.629 158.452 542.399 158.821V233H514.905V141.106C519.826 139.384 525.607 137.785 532.25 136.309C539.016 134.709 546.52 133.91 554.762 133.91C556.239 133.91 558.022 134.033 560.114 134.279C562.205 134.402 564.296 134.648 566.387 135.017C568.479 135.263 570.57 135.632 572.661 136.124C574.753 136.493 576.536 136.985 578.013 137.6L573.399 160.297ZM614.384 185.208C614.384 202.799 620.904 211.595 633.944 211.595C636.773 211.595 639.541 211.226 642.248 210.488C645.077 209.75 647.353 208.827 649.075 207.72V158.083C647.722 157.837 646 157.652 643.908 157.529C641.817 157.283 639.541 157.16 637.081 157.16C629.577 157.16 623.918 159.743 620.105 164.91C616.291 169.954 614.384 176.72 614.384 185.208ZM586.336 184.47C586.336 176.966 587.444 170.138 589.658 163.987C591.995 157.714 595.317 152.362 599.622 147.934C603.928 143.382 609.218 139.876 615.491 137.416C621.765 134.955 628.9 133.725 636.896 133.725C640.218 133.725 643.662 133.91 647.23 134.279C650.92 134.525 654.488 134.894 657.932 135.386C661.5 135.878 664.883 136.493 668.081 137.231C671.28 137.846 674.109 138.523 676.569 139.261V267.137H649.075V230.601C646 231.954 642.801 233 639.48 233.738C636.158 234.476 632.591 234.845 628.777 234.845C614.999 234.845 604.481 230.355 597.223 221.375C589.965 212.272 586.336 199.97 586.336 184.47ZM785.165 229.679C780.491 231.032 774.463 232.262 767.082 233.369C759.701 234.599 751.951 235.214 743.832 235.214C735.59 235.214 728.701 234.107 723.165 231.893C717.752 229.679 713.447 226.603 710.248 222.667C707.05 218.607 704.774 213.809 703.421 208.274C702.067 202.738 701.391 196.648 701.391 190.006V135.94H728.885V186.684C728.885 195.541 730.054 201.938 732.391 205.875C734.728 209.811 739.096 211.78 745.492 211.78C747.461 211.78 749.552 211.718 751.766 211.595C753.981 211.349 755.949 211.103 757.671 210.857V135.94H785.165V229.679ZM838.469 233H810.974V135.94H838.469V233ZM841.052 107.892C841.052 112.935 839.391 116.933 836.07 119.886C832.872 122.715 829.058 124.13 824.629 124.13C820.201 124.13 816.326 122.715 813.004 119.886C809.806 116.933 808.207 112.935 808.207 107.892C808.207 102.848 809.806 98.9115 813.004 96.0821C816.326 93.1297 820.201 91.6535 824.629 91.6535C829.058 91.6535 832.872 93.1297 836.07 96.0821C839.391 98.9115 841.052 102.848 841.052 107.892ZM917.642 181.517C917.642 172.66 916.473 166.386 914.136 162.696C911.921 159.005 908.046 157.16 902.511 157.16C900.788 157.16 899.005 157.283 897.159 157.529C895.314 157.652 893.53 157.837 891.808 158.083V233H864.314V139.261C866.651 138.646 869.358 138.031 872.433 137.416C875.631 136.678 878.953 136.063 882.397 135.571C885.965 134.955 889.594 134.525 893.284 134.279C896.975 133.91 900.604 133.725 904.171 133.725C911.183 133.725 916.842 134.648 921.148 136.493C925.576 138.215 929.205 140.307 932.035 142.767C935.971 139.938 940.461 137.723 945.505 136.124C950.672 134.525 955.408 133.725 959.714 133.725C967.464 133.725 973.799 134.832 978.72 137.047C983.763 139.138 987.761 142.152 990.714 146.089C993.666 150.025 995.696 154.7 996.803 160.112C997.91 165.525 998.464 171.553 998.464 178.196V233H970.97V181.517C970.97 172.66 969.801 166.386 967.464 162.696C965.249 159.005 961.374 157.16 955.839 157.16C954.362 157.16 952.271 157.529 949.565 158.267C946.981 159.005 944.828 159.928 943.106 161.035C943.967 163.864 944.521 166.878 944.767 170.077C945.013 173.152 945.136 176.474 945.136 180.041V233H917.642V181.517ZM1018.82 185.208C1018.82 176.597 1020.11 169.093 1022.69 162.696C1025.4 156.176 1028.91 150.763 1033.21 146.458C1037.52 142.152 1042.44 138.892 1047.97 136.678C1053.63 134.463 1059.41 133.356 1065.32 133.356C1079.1 133.356 1089.98 137.6 1097.98 146.089C1105.98 154.454 1109.97 166.817 1109.97 183.178C1109.97 184.777 1109.91 186.561 1109.79 188.529C1109.67 190.375 1109.54 192.035 1109.42 193.512H1047.05C1047.67 199.17 1050.31 203.66 1054.98 206.982C1059.66 210.303 1065.93 211.964 1073.81 211.964C1078.85 211.964 1083.77 211.534 1088.57 210.672C1093.49 209.688 1097.49 208.52 1100.56 207.166L1104.25 229.494C1102.78 230.232 1100.81 230.97 1098.35 231.708C1095.89 232.446 1093.12 233.062 1090.04 233.554C1087.09 234.169 1083.89 234.661 1080.45 235.03C1077 235.399 1073.56 235.583 1070.12 235.583C1061.38 235.583 1053.75 234.292 1047.23 231.708C1040.84 229.125 1035.49 225.619 1031.18 221.19C1027 216.639 1023.86 211.288 1021.77 205.137C1019.8 198.986 1018.82 192.343 1018.82 185.208ZM1083.4 174.69C1083.28 172.353 1082.85 170.077 1082.11 167.863C1081.5 165.648 1080.45 163.68 1078.97 161.958C1077.62 160.235 1075.84 158.821 1073.62 157.714C1071.53 156.606 1068.89 156.053 1065.69 156.053C1062.61 156.053 1059.97 156.606 1057.75 157.714C1055.54 158.698 1053.69 160.051 1052.22 161.773C1050.74 163.495 1049.57 165.525 1048.71 167.863C1047.97 170.077 1047.42 172.353 1047.05 174.69H1083.4ZM1154.63 183.732C1154.63 192.22 1156.53 199.047 1160.35 204.214C1164.16 209.381 1169.82 211.964 1177.32 211.964C1179.78 211.964 1182.06 211.903 1184.15 211.78C1186.24 211.534 1187.96 211.288 1189.32 211.041V161.035C1187.59 159.928 1185.32 159.005 1182.49 158.267C1179.78 157.529 1177.01 157.16 1174.19 157.16C1161.15 157.16 1154.63 166.017 1154.63 183.732ZM1216.81 229.863C1214.35 230.601 1211.52 231.339 1208.32 232.077C1205.12 232.692 1201.74 233.246 1198.17 233.738C1194.73 234.23 1191.16 234.599 1187.47 234.845C1183.9 235.214 1180.46 235.399 1177.14 235.399C1169.14 235.399 1162.01 234.23 1155.73 231.893C1149.46 229.556 1144.17 226.234 1139.86 221.928C1135.56 217.5 1132.24 212.21 1129.9 206.059C1127.69 199.785 1126.58 192.773 1126.58 185.023C1126.58 177.15 1127.56 170.077 1129.53 163.803C1131.5 157.406 1134.33 151.993 1138.02 147.565C1141.71 143.136 1146.2 139.753 1151.49 137.416C1156.9 135.078 1163.05 133.91 1169.94 133.91C1173.75 133.91 1177.14 134.279 1180.09 135.017C1183.17 135.755 1186.24 136.801 1189.32 138.154V94.2369L1216.81 89.8082V229.863ZM1270.05 233H1242.56V135.94H1270.05V233ZM1272.63 107.892C1272.63 112.935 1270.97 116.933 1267.65 119.886C1264.45 122.715 1260.64 124.13 1256.21 124.13C1251.78 124.13 1247.91 122.715 1244.58 119.886C1241.39 116.933 1239.79 112.935 1239.79 107.892C1239.79 102.848 1241.39 98.9115 1244.58 96.0821C1247.91 93.1297 1251.78 91.6535 1256.21 91.6535C1260.64 91.6535 1264.45 93.1297 1267.65 96.0821C1270.97 98.9115 1272.63 102.848 1272.63 107.892ZM1332.98 213.809C1335.69 213.809 1338.27 213.748 1340.73 213.625C1343.19 213.502 1345.16 213.317 1346.64 213.071V192.22C1345.53 191.974 1343.87 191.728 1341.66 191.482C1339.44 191.236 1337.41 191.113 1335.57 191.113C1332.98 191.113 1330.52 191.297 1328.19 191.666C1325.97 191.912 1324 192.466 1322.28 193.327C1320.56 194.188 1319.21 195.357 1318.22 196.833C1317.24 198.309 1316.75 200.154 1316.75 202.369C1316.75 206.674 1318.16 209.688 1320.99 211.411C1323.94 213.01 1327.94 213.809 1332.98 213.809ZM1330.77 133.356C1338.89 133.356 1345.65 134.279 1351.07 136.124C1356.48 137.969 1360.79 140.614 1363.98 144.059C1367.31 147.503 1369.64 151.686 1371 156.606C1372.35 161.527 1373.03 167.001 1373.03 173.029V230.232C1369.09 231.093 1363.62 232.077 1356.6 233.185C1349.59 234.415 1341.1 235.03 1331.14 235.03C1324.86 235.03 1319.14 234.476 1313.98 233.369C1308.93 232.262 1304.57 230.478 1300.88 228.018C1297.19 225.434 1294.36 222.113 1292.39 218.053C1290.42 213.994 1289.44 209.012 1289.44 203.107C1289.44 197.448 1290.54 192.65 1292.76 188.714C1295.09 184.777 1298.17 181.64 1301.98 179.303C1305.8 176.966 1310.16 175.305 1315.09 174.321C1320.01 173.214 1325.11 172.66 1330.4 172.66C1333.97 172.66 1337.11 172.845 1339.81 173.214C1342.64 173.46 1344.92 173.829 1346.64 174.321V171.738C1346.64 167.063 1345.22 163.311 1342.39 160.481C1339.57 157.652 1334.64 156.237 1327.63 156.237C1322.96 156.237 1318.34 156.606 1313.79 157.345C1309.24 157.96 1305.31 158.882 1301.98 160.112L1298.48 137.969C1300.08 137.477 1302.05 136.985 1304.38 136.493C1306.84 135.878 1309.49 135.386 1312.32 135.017C1315.15 134.525 1318.1 134.156 1321.17 133.91C1324.37 133.541 1327.57 133.356 1330.77 133.356Z" fill="white"/>
</svg>
