<svg width="1397" height="500" viewBox="0 0 1397 500" fill="none" xmlns="http://www.w3.org/2000/svg">
<path d="M470.177 339C470.177 341.761 472.415 344 475.177 344H507.506C510.268 344 512.506 341.761 512.506 339V181.643C512.506 178.882 514.745 176.643 517.506 176.643H566.095C568.857 176.643 571.095 174.405 571.095 171.643V146.742C571.095 143.981 568.857 141.742 566.095 141.742H416.728C413.966 141.742 411.728 143.981 411.728 146.742V171.643C411.728 174.405 413.966 176.643 416.728 176.643H465.177C467.938 176.643 470.177 178.882 470.177 181.643V339Z" fill="black"/>
<path d="M591.98 339C591.98 341.761 594.219 344 596.98 344H627.908C630.67 344 632.908 341.761 632.908 339V257.939C632.908 238.316 644.542 224.58 662.623 224.58C681.265 224.58 691.637 237.054 691.637 258.079V339C691.637 341.761 693.876 344 696.637 344H727.565C730.327 344 732.565 341.761 732.565 339V249.669C732.565 213.366 712.382 190.66 679.863 190.66C657.423 190.66 641.636 200.916 633.88 219.361C633.8 219.549 633.616 219.674 633.412 219.674C633.134 219.674 632.908 219.448 632.908 219.17V146.742C632.908 143.981 630.67 141.742 627.908 141.742H596.98C594.219 141.742 591.98 143.981 591.98 146.742V339Z" fill="black"/>
<path d="M827.878 347.084C873.291 347.084 902.305 317.929 902.305 268.872V268.591C902.305 219.954 872.73 190.66 827.737 190.66C782.885 190.66 753.45 220.234 753.45 268.591V268.872C753.45 317.789 782.184 347.084 827.878 347.084ZM828.018 314.986C807.834 314.986 795.079 298.306 795.079 268.872V268.591C795.079 239.577 807.974 222.757 827.737 222.757C847.641 222.757 860.676 239.577 860.676 268.591V268.872C860.676 298.166 847.921 314.986 828.018 314.986Z" fill="black"/>
<path d="M983.18 347.084C989.381 347.084 994.549 346.641 998.686 346.131C1001.14 345.828 1002.94 343.715 1002.94 341.242V321.133C1002.94 318.153 1000.36 315.927 997.389 316.133C996.382 316.203 995.299 316.247 994.113 316.247C981.779 316.247 975.471 311.482 975.471 297.465V229.58C975.471 226.818 977.71 224.58 980.471 224.58H997.943C1000.7 224.58 1002.94 222.341 1002.94 219.58V198.743C1002.94 195.982 1000.7 193.743 997.943 193.743H980.471C977.71 193.743 975.471 191.505 975.471 188.743V162.02C975.471 159.259 973.233 157.02 970.471 157.02H939.122C936.361 157.02 934.122 159.259 934.122 162.02V188.743C934.122 191.505 931.884 193.743 929.122 193.743H918.238C915.477 193.743 913.238 195.982 913.238 198.743V219.58C913.238 222.341 915.477 224.58 918.238 224.58H929.122C931.884 224.58 934.122 226.818 934.122 229.58V301.951C934.122 334.188 949.821 347.084 983.18 347.084Z" fill="black"/>
<path d="M1026.49 339C1026.49 341.761 1028.73 344 1031.49 344H1062.42C1065.18 344 1067.42 341.761 1067.42 339V257.939C1067.42 238.316 1079.05 224.58 1097.13 224.58C1115.78 224.58 1126.15 237.054 1126.15 258.079V339C1126.15 341.761 1128.39 344 1131.15 344H1162.08C1164.84 344 1167.08 341.761 1167.08 339V249.669C1167.08 213.366 1146.89 190.66 1114.37 190.66C1091.93 190.66 1076.15 200.916 1068.39 219.361C1068.31 219.549 1068.13 219.674 1067.92 219.674C1067.65 219.674 1067.42 219.448 1067.42 219.17V146.742C1067.42 143.981 1065.18 141.742 1062.42 141.742H1031.49C1028.73 141.742 1026.49 143.981 1026.49 146.742V339Z" fill="black"/>
<path d="M1261.83 347.084C1304.72 347.084 1325.46 321.714 1330.09 299.568C1330.3 298.791 1329.72 298.026 1328.91 298.026H1293.83C1293.3 298.026 1292.83 298.365 1292.66 298.867C1289.72 307.277 1279.49 316.528 1262.67 316.528C1243.31 316.528 1230.69 304.482 1228.62 283.628C1228.34 280.846 1230.62 278.543 1233.42 278.543H1326.77C1329.53 278.543 1331.77 276.304 1331.77 273.543V265.928C1331.77 220.515 1304.16 190.66 1260.15 190.66C1216.13 190.66 1187.96 221.216 1187.96 269.012V269.152C1187.96 317.229 1215.85 347.084 1261.83 347.084ZM1260.85 221.216C1276.22 221.216 1287.68 230.083 1291.57 247.192C1292.23 250.118 1289.88 252.753 1286.88 252.753H1234.45C1231.43 252.753 1229.07 250.085 1229.79 247.151C1233.87 230.378 1245.64 221.216 1260.85 221.216Z" fill="black"/>
<circle cx="221.5" cy="243.5" r="163.5" fill="#56CCF2"/>
<path fill-rule="evenodd" clip-rule="evenodd" d="M191.906 125.126C173.065 125.126 157.805 138.808 153.987 156.574C130.983 160.678 112.99 179.874 112.99 204.042C112.99 206.469 113.257 208.629 113.612 210.829C107.249 220.18 103.126 231.199 103.126 243.5C103.126 261.226 111.955 276.142 124.394 286.963C123.506 290.475 122.855 293.977 122.855 297.755C122.855 322.15 142.85 342.145 167.245 342.145H167.867C173.608 353.282 183.551 361.874 196.839 361.874C201.442 361.863 205.996 360.93 210.232 359.129C214.467 357.328 218.299 354.696 221.5 351.388C224.701 354.696 228.533 357.328 232.768 359.129C237.004 360.93 241.558 361.863 246.161 361.874C259.459 361.874 269.392 353.282 275.143 342.145H275.755C298.917 342.145 317.906 324.113 319.839 301.454H320.145C320.145 301.119 320.067 300.786 319.99 300.453C319.924 300.169 319.857 299.885 319.839 299.599C319.857 299.318 319.923 299.035 319.989 298.752C320.067 298.419 320.145 298.085 320.145 297.755C320.145 295.078 319.443 292.685 318.734 290.27C318.474 289.383 318.212 288.493 317.985 287.584C330.779 276.714 339.874 261.542 339.874 243.5C339.874 231.209 335.751 220.19 329.388 210.819C329.743 208.629 330.009 206.479 330.009 204.042C330.009 179.874 312.017 160.687 289.013 156.564C285.195 138.818 269.935 125.126 251.093 125.126C239.256 125.126 228.741 130.64 221.5 138.995C214.259 130.65 203.744 125.126 191.906 125.126ZM191.906 144.855C202.925 144.855 211.635 153.565 211.635 164.584H231.364C231.364 153.565 240.075 144.855 251.093 144.855C262.112 144.855 270.822 153.565 270.822 164.584V174.448H280.687C297.141 174.448 310.28 187.588 310.28 204.042C310.28 206.163 309.886 208.205 309.353 210.513L308.436 215.445L311.514 219.145C317.113 226.025 320.162 234.629 320.145 243.5C320.145 255.337 315.094 265.892 306.887 273.093C300.15 267.125 291.558 263.229 281.92 263.229C278.494 263.229 275.191 263.677 272.056 264.522L281.92 282.958C291.439 282.958 299.025 290.09 300.11 299.294C299.301 312.285 288.934 322.416 275.755 322.416C274.867 322.416 273.782 322.377 272.056 322.11L262.497 320.561L260.652 330.13C260.061 333.529 258.277 336.606 255.621 338.808C252.965 341.011 249.611 342.194 246.161 342.145C237.875 342.145 231.364 335.634 231.364 327.348H211.635C211.635 335.634 205.125 342.145 196.839 342.145C193.387 342.193 190.032 341.009 187.376 338.805C184.72 336.601 182.937 333.521 182.348 330.12L180.503 320.571L170.944 322.11C167.432 322.665 163.841 322.45 160.421 321.479C157 320.509 153.831 318.806 151.133 316.489C148.436 314.173 146.274 311.297 144.798 308.062C143.322 304.828 142.566 301.31 142.584 297.755C142.584 294.707 143.077 291.856 144.123 289.123C144.161 289.015 144.217 288.919 144.272 288.825C144.333 288.722 144.393 288.62 144.429 288.502C147.487 280.916 154.106 275.362 162.313 273.705L158.308 254.292C148.24 256.28 139.187 261.732 132.719 269.7C126.306 262.486 122.791 253.152 122.855 243.5C122.838 234.629 125.887 226.025 131.486 219.145L134.574 215.445L133.647 210.513C133.088 208.399 132.777 206.228 132.719 204.042C132.719 187.588 145.859 174.448 162.313 174.448H172.177V164.584C172.177 153.565 180.888 144.855 191.906 144.855Z" fill="white"/>
<path d="M181.964 288.648C181.426 290.187 182.568 291.797 184.199 291.797H196.162C197.198 291.797 198.114 291.123 198.422 290.133L203.245 274.646C203.553 273.657 204.469 272.983 205.505 272.983H229.435C230.472 272.983 231.388 273.657 231.696 274.646L236.519 290.133C236.827 291.123 237.743 291.797 238.779 291.797H250.744C252.374 291.797 253.516 290.189 252.98 288.65L227.592 215.818C227.261 214.867 226.364 214.23 225.357 214.23H209.637C208.63 214.23 207.734 214.866 207.402 215.817L181.964 288.648ZM217.261 229.435C217.29 229.343 217.374 229.281 217.47 229.281C217.566 229.281 217.651 229.343 217.679 229.435L226.463 257.766C226.936 259.289 225.797 260.834 224.202 260.834H210.739C209.144 260.834 208.005 259.289 208.477 257.766L217.261 229.435Z" fill="white"/>
<path d="M232.321 202.845C232.321 204.153 233.381 205.213 234.688 205.213H244.449C245.757 205.213 246.817 206.273 246.817 207.58V216.258C246.817 217.566 247.877 218.626 249.184 218.626H253.356C254.664 218.626 255.724 217.566 255.724 216.258V207.58C255.724 206.273 256.784 205.213 258.091 205.213H267.887C269.195 205.213 270.255 204.153 270.255 202.845V198.673C270.255 197.365 269.195 196.305 267.887 196.305H258.091C256.784 196.305 255.724 195.246 255.724 193.938V185.225C255.724 183.917 254.664 182.857 253.356 182.857H249.184C247.877 182.857 246.817 183.917 246.817 185.225V193.938C246.817 195.245 245.757 196.305 244.449 196.305H234.688C233.381 196.305 232.321 197.365 232.321 198.673V202.845Z" fill="white"/>
</svg>
