<svg width="1385" height="327" viewBox="0 0 1385 327" fill="none" xmlns="http://www.w3.org/2000/svg">
<path d="M469.382 233C468.029 228.571 466.491 224.02 464.769 219.345C463.169 214.67 461.57 209.996 459.971 205.321H410.149C408.55 209.996 406.889 214.67 405.167 219.345C403.568 224.02 402.092 228.571 400.738 233H370.845C375.643 219.222 380.195 206.49 384.5 194.803C388.806 183.117 392.988 172.107 397.048 161.773C401.23 151.44 405.29 141.66 409.227 132.434C413.286 123.084 417.469 113.981 421.774 105.124H449.269C453.451 113.981 457.572 123.084 461.632 132.434C465.691 141.66 469.751 151.44 473.81 161.773C477.993 172.107 482.237 183.117 486.543 194.803C490.848 206.49 495.4 219.222 500.198 233H469.382ZM434.876 134.094C434.261 135.94 433.338 138.461 432.108 141.66C430.878 144.858 429.463 148.549 427.864 152.731C426.264 156.914 424.481 161.527 422.512 166.571C420.667 171.615 418.76 176.904 416.792 182.44H453.144C451.175 176.904 449.269 171.615 447.423 166.571C445.578 161.527 443.794 156.914 442.072 152.731C440.473 148.549 439.058 144.858 437.828 141.66C436.598 138.461 435.614 135.94 434.876 134.094ZM573.399 160.297C570.939 159.682 568.048 159.067 564.727 158.452C561.405 157.714 557.838 157.345 554.024 157.345C552.302 157.345 550.211 157.529 547.75 157.898C545.413 158.144 543.629 158.452 542.399 158.821V233H514.905V141.106C519.826 139.384 525.607 137.785 532.25 136.309C539.016 134.709 546.52 133.91 554.762 133.91C556.239 133.91 558.022 134.033 560.114 134.279C562.205 134.402 564.296 134.648 566.387 135.017C568.479 135.263 570.57 135.632 572.661 136.124C574.753 136.493 576.536 136.985 578.013 137.6L573.399 160.297ZM614.384 185.208C614.384 202.799 620.904 211.595 633.944 211.595C636.773 211.595 639.541 211.226 642.248 210.488C645.077 209.75 647.353 208.827 649.075 207.72V158.083C647.722 157.837 646 157.652 643.908 157.529C641.817 157.283 639.541 157.16 637.081 157.16C629.577 157.16 623.918 159.743 620.105 164.91C616.291 169.954 614.384 176.72 614.384 185.208ZM586.336 184.47C586.336 176.966 587.444 170.138 589.658 163.987C591.995 157.714 595.317 152.362 599.622 147.934C603.928 143.382 609.218 139.876 615.491 137.416C621.765 134.955 628.9 133.725 636.896 133.725C640.218 133.725 643.662 133.91 647.23 134.279C650.92 134.525 654.488 134.894 657.932 135.386C661.5 135.878 664.883 136.493 668.081 137.231C671.28 137.846 674.109 138.523 676.569 139.261V267.137H649.075V230.601C646 231.954 642.801 233 639.48 233.738C636.158 234.476 632.591 234.845 628.777 234.845C614.999 234.845 604.481 230.355 597.223 221.375C589.965 212.272 586.336 199.97 586.336 184.47ZM785.165 229.679C780.491 231.032 774.463 232.262 767.082 233.369C759.701 234.599 751.951 235.214 743.832 235.214C735.59 235.214 728.701 234.107 723.165 231.893C717.752 229.679 713.447 226.603 710.248 222.667C707.05 218.607 704.774 213.809 703.421 208.274C702.067 202.738 701.391 196.648 701.391 190.006V135.94H728.885V186.684C728.885 195.541 730.054 201.938 732.391 205.875C734.728 209.811 739.096 211.78 745.492 211.78C747.461 211.78 749.552 211.718 751.766 211.595C753.981 211.349 755.949 211.103 757.671 210.857V135.94H785.165V229.679ZM838.469 233H810.974V135.94H838.469V233ZM841.052 107.892C841.052 112.935 839.391 116.933 836.07 119.886C832.872 122.715 829.058 124.13 824.629 124.13C820.201 124.13 816.326 122.715 813.004 119.886C809.806 116.933 808.207 112.935 808.207 107.892C808.207 102.848 809.806 98.9115 813.004 96.0821C816.326 93.1297 820.201 91.6535 824.629 91.6535C829.058 91.6535 832.872 93.1297 836.07 96.0821C839.391 98.9115 841.052 102.848 841.052 107.892ZM917.642 181.517C917.642 172.66 916.473 166.386 914.136 162.696C911.921 159.005 908.046 157.16 902.511 157.16C900.788 157.16 899.005 157.283 897.159 157.529C895.314 157.652 893.53 157.837 891.808 158.083V233H864.314V139.261C866.651 138.646 869.358 138.031 872.433 137.416C875.631 136.678 878.953 136.063 882.397 135.571C885.965 134.955 889.594 134.525 893.284 134.279C896.975 133.91 900.604 133.725 904.171 133.725C911.183 133.725 916.842 134.648 921.148 136.493C925.576 138.215 929.205 140.307 932.035 142.767C935.971 139.938 940.461 137.723 945.505 136.124C950.672 134.525 955.408 133.725 959.714 133.725C967.464 133.725 973.799 134.832 978.72 137.047C983.763 139.138 987.761 142.152 990.714 146.089C993.666 150.025 995.696 154.7 996.803 160.112C997.91 165.525 998.464 171.553 998.464 178.196V233H970.97V181.517C970.97 172.66 969.801 166.386 967.464 162.696C965.249 159.005 961.374 157.16 955.839 157.16C954.362 157.16 952.271 157.529 949.565 158.267C946.981 159.005 944.828 159.928 943.106 161.035C943.967 163.864 944.521 166.878 944.767 170.077C945.013 173.152 945.136 176.474 945.136 180.041V233H917.642V181.517ZM1018.82 185.208C1018.82 176.597 1020.11 169.093 1022.69 162.696C1025.4 156.176 1028.91 150.763 1033.21 146.458C1037.52 142.152 1042.44 138.892 1047.97 136.678C1053.63 134.463 1059.41 133.356 1065.32 133.356C1079.1 133.356 1089.98 137.6 1097.98 146.089C1105.98 154.454 1109.97 166.817 1109.97 183.178C1109.97 184.777 1109.91 186.561 1109.79 188.529C1109.67 190.375 1109.54 192.035 1109.42 193.512H1047.05C1047.67 199.17 1050.31 203.66 1054.98 206.982C1059.66 210.303 1065.93 211.964 1073.81 211.964C1078.85 211.964 1083.77 211.534 1088.57 210.672C1093.49 209.688 1097.49 208.52 1100.56 207.166L1104.25 229.494C1102.78 230.232 1100.81 230.97 1098.35 231.708C1095.89 232.446 1093.12 233.062 1090.04 233.554C1087.09 234.169 1083.89 234.661 1080.45 235.03C1077 235.399 1073.56 235.583 1070.12 235.583C1061.38 235.583 1053.75 234.292 1047.23 231.708C1040.84 229.125 1035.49 225.619 1031.18 221.19C1027 216.639 1023.86 211.288 1021.77 205.137C1019.8 198.986 1018.82 192.343 1018.82 185.208ZM1083.4 174.69C1083.28 172.353 1082.85 170.077 1082.11 167.863C1081.5 165.648 1080.45 163.68 1078.97 161.958C1077.62 160.235 1075.84 158.821 1073.62 157.714C1071.53 156.606 1068.89 156.053 1065.69 156.053C1062.61 156.053 1059.97 156.606 1057.75 157.714C1055.54 158.698 1053.69 160.051 1052.22 161.773C1050.74 163.495 1049.57 165.525 1048.71 167.863C1047.97 170.077 1047.42 172.353 1047.05 174.69H1083.4ZM1154.63 183.732C1154.63 192.22 1156.53 199.047 1160.35 204.214C1164.16 209.381 1169.82 211.964 1177.32 211.964C1179.78 211.964 1182.06 211.903 1184.15 211.78C1186.24 211.534 1187.96 211.288 1189.32 211.041V161.035C1187.59 159.928 1185.32 159.005 1182.49 158.267C1179.78 157.529 1177.01 157.16 1174.19 157.16C1161.15 157.16 1154.63 166.017 1154.63 183.732ZM1216.81 229.863C1214.35 230.601 1211.52 231.339 1208.32 232.077C1205.12 232.692 1201.74 233.246 1198.17 233.738C1194.73 234.23 1191.16 234.599 1187.47 234.845C1183.9 235.214 1180.46 235.399 1177.14 235.399C1169.14 235.399 1162.01 234.23 1155.73 231.893C1149.46 229.556 1144.17 226.234 1139.86 221.928C1135.56 217.5 1132.24 212.21 1129.9 206.059C1127.69 199.785 1126.58 192.773 1126.58 185.023C1126.58 177.15 1127.56 170.077 1129.53 163.803C1131.5 157.406 1134.33 151.993 1138.02 147.565C1141.71 143.136 1146.2 139.753 1151.49 137.416C1156.9 135.078 1163.05 133.91 1169.94 133.91C1173.75 133.91 1177.14 134.279 1180.09 135.017C1183.17 135.755 1186.24 136.801 1189.32 138.154V94.2369L1216.81 89.8082V229.863ZM1270.05 233H1242.56V135.94H1270.05V233ZM1272.63 107.892C1272.63 112.935 1270.97 116.933 1267.65 119.886C1264.45 122.715 1260.64 124.13 1256.21 124.13C1251.78 124.13 1247.91 122.715 1244.58 119.886C1241.39 116.933 1239.79 112.935 1239.79 107.892C1239.79 102.848 1241.39 98.9115 1244.58 96.0821C1247.91 93.1297 1251.78 91.6535 1256.21 91.6535C1260.64 91.6535 1264.45 93.1297 1267.65 96.0821C1270.97 98.9115 1272.63 102.848 1272.63 107.892ZM1332.98 213.809C1335.69 213.809 1338.27 213.748 1340.73 213.625C1343.19 213.502 1345.16 213.317 1346.64 213.071V192.22C1345.53 191.974 1343.87 191.728 1341.66 191.482C1339.44 191.236 1337.41 191.113 1335.57 191.113C1332.98 191.113 1330.52 191.297 1328.19 191.666C1325.97 191.912 1324 192.466 1322.28 193.327C1320.56 194.188 1319.21 195.357 1318.22 196.833C1317.24 198.309 1316.75 200.154 1316.75 202.369C1316.75 206.674 1318.16 209.688 1320.99 211.411C1323.94 213.01 1327.94 213.809 1332.98 213.809ZM1330.77 133.356C1338.89 133.356 1345.65 134.279 1351.07 136.124C1356.48 137.969 1360.79 140.614 1363.98 144.059C1367.31 147.503 1369.64 151.686 1371 156.606C1372.35 161.527 1373.03 167.001 1373.03 173.029V230.232C1369.09 231.093 1363.62 232.077 1356.6 233.185C1349.59 234.415 1341.1 235.03 1331.14 235.03C1324.86 235.03 1319.14 234.476 1313.98 233.369C1308.93 232.262 1304.57 230.478 1300.88 228.018C1297.19 225.434 1294.36 222.113 1292.39 218.053C1290.42 213.994 1289.44 209.012 1289.44 203.107C1289.44 197.448 1290.54 192.65 1292.76 188.714C1295.09 184.777 1298.17 181.64 1301.98 179.303C1305.8 176.966 1310.16 175.305 1315.09 174.321C1320.01 173.214 1325.11 172.66 1330.4 172.66C1333.97 172.66 1337.11 172.845 1339.81 173.214C1342.64 173.46 1344.92 173.829 1346.64 174.321V171.738C1346.64 167.063 1345.22 163.311 1342.39 160.481C1339.57 157.652 1334.64 156.237 1327.63 156.237C1322.96 156.237 1318.34 156.606 1313.79 157.345C1309.24 157.96 1305.31 158.882 1301.98 160.112L1298.48 137.969C1300.08 137.477 1302.05 136.985 1304.38 136.493C1306.84 135.878 1309.49 135.386 1312.32 135.017C1315.15 134.525 1318.1 134.156 1321.17 133.91C1324.37 133.541 1327.57 133.356 1330.77 133.356Z" fill="black"/>
<circle cx="163.5" cy="163.5" r="163.5" fill="#56CCF2"/>
<path fill-rule="evenodd" clip-rule="evenodd" d="M133.906 45.126C115.065 45.126 99.8049 58.808 95.9873 76.574C72.9833 80.6776 54.9905 99.8739 54.9905 124.042C54.9905 126.469 55.2568 128.629 55.6119 130.829C49.2493 140.18 45.126 151.199 45.126 163.5C45.126 181.226 53.9547 196.142 66.3938 206.963C65.506 210.475 64.855 213.977 64.855 217.755C64.855 242.15 84.8503 262.145 109.245 262.145H109.867C115.608 273.282 125.551 281.874 138.839 281.874C143.442 281.863 147.996 280.93 152.232 279.129C156.467 277.328 160.299 274.696 163.5 271.388C166.701 274.696 170.533 277.328 174.768 279.129C179.004 280.93 183.558 281.863 188.161 281.874C201.459 281.874 211.392 273.282 217.143 262.145H217.755C240.917 262.145 259.906 244.113 261.839 221.454H262.145C262.145 221.119 262.067 220.786 261.99 220.453C261.924 220.169 261.857 219.885 261.839 219.599C261.857 219.318 261.923 219.035 261.989 218.752C262.067 218.419 262.145 218.085 262.145 217.755C262.145 215.078 261.443 212.685 260.734 210.27C260.474 209.383 260.212 208.493 259.985 207.584C272.779 196.714 281.874 181.542 281.874 163.5C281.874 151.209 277.751 140.19 271.388 130.819C271.743 128.629 272.009 126.479 272.009 124.042C272.009 99.8739 254.017 80.6875 231.013 76.5641C227.195 58.8179 211.935 45.126 193.093 45.126C181.256 45.126 170.741 50.6402 163.5 58.9955C156.259 50.6501 145.744 45.126 133.906 45.126ZM133.906 64.855C144.925 64.855 153.635 73.5653 153.635 84.584H173.364C173.364 73.5653 182.075 64.855 193.093 64.855C204.112 64.855 212.822 73.5653 212.822 84.584V94.4485H222.687C239.141 94.4485 252.28 107.588 252.28 124.042C252.28 126.163 251.886 128.205 251.353 130.513L250.436 135.445L253.514 139.145C259.113 146.025 262.162 154.629 262.145 163.5C262.145 175.337 257.094 185.892 248.887 193.093C242.15 187.125 233.558 183.229 223.92 183.229C220.494 183.229 217.191 183.677 214.056 184.522L223.92 202.958C233.439 202.958 241.025 210.09 242.11 219.294C241.301 232.285 230.934 242.416 217.755 242.416C216.867 242.416 215.782 242.377 214.056 242.11L204.497 240.561L202.652 250.13C202.061 253.529 200.277 256.606 197.621 258.808C194.965 261.011 191.611 262.194 188.161 262.145C179.875 262.145 173.364 255.634 173.364 247.348H153.635C153.635 255.634 147.125 262.145 138.839 262.145C135.387 262.193 132.032 261.009 129.376 258.805C126.72 256.601 124.937 253.521 124.348 250.12L122.503 240.571L112.944 242.11C109.432 242.665 105.841 242.45 102.421 241.479C98.9997 240.509 95.8308 238.806 93.1332 236.489C90.4356 234.173 88.2739 231.297 86.7977 228.062C85.3215 224.828 84.5662 221.31 84.584 217.755C84.584 214.707 85.0772 211.856 86.1228 209.123C86.1607 209.015 86.2166 208.919 86.2722 208.825C86.3326 208.722 86.3927 208.62 86.4286 208.502C89.4866 200.916 96.1057 195.362 104.313 193.705L100.308 174.292C90.2402 176.28 81.1867 181.732 74.7195 189.7C68.3057 182.486 64.7914 173.152 64.855 163.5C64.8381 154.629 67.8874 146.025 73.4864 139.145L76.574 135.445L75.6467 130.513C75.0878 128.399 74.7766 126.228 74.7195 124.042C74.7195 107.588 87.859 94.4485 104.313 94.4485H114.177V84.584C114.177 73.5653 122.888 64.855 133.906 64.855Z" fill="white"/>
<path d="M123.964 208.648C123.426 210.187 124.568 211.797 126.199 211.797H138.162C139.198 211.797 140.114 211.123 140.422 210.133L145.245 194.646C145.553 193.657 146.469 192.983 147.505 192.983H171.435C172.472 192.983 173.388 193.657 173.696 194.646L178.519 210.133C178.827 211.123 179.743 211.797 180.779 211.797H192.744C194.374 211.797 195.516 210.189 194.98 208.65L169.592 135.818C169.261 134.867 168.364 134.23 167.357 134.23H151.637C150.63 134.23 149.734 134.866 149.402 135.817L123.964 208.648ZM159.261 149.435C159.29 149.343 159.374 149.281 159.47 149.281C159.566 149.281 159.651 149.343 159.679 149.435L168.463 177.766C168.936 179.289 167.797 180.834 166.202 180.834H152.739C151.144 180.834 150.005 179.289 150.477 177.766L159.261 149.435Z" fill="white"/>
<path d="M174.321 122.845C174.321 124.153 175.381 125.213 176.688 125.213H186.449C187.757 125.213 188.817 126.273 188.817 127.58V136.258C188.817 137.566 189.877 138.626 191.184 138.626H195.356C196.664 138.626 197.724 137.566 197.724 136.258V127.58C197.724 126.273 198.784 125.213 200.091 125.213H209.887C211.195 125.213 212.255 124.153 212.255 122.845V118.673C212.255 117.365 211.195 116.305 209.887 116.305H200.091C198.784 116.305 197.724 115.246 197.724 113.938V105.225C197.724 103.917 196.664 102.857 195.356 102.857H191.184C189.877 102.857 188.817 103.917 188.817 105.225V113.938C188.817 115.245 187.757 116.305 186.449 116.305H176.688C175.381 116.305 174.321 117.365 174.321 118.673V122.845Z" fill="white"/>
</svg>
