<svg width="1470" height="500" viewBox="0 0 1470 500" fill="none" xmlns="http://www.w3.org/2000/svg">
<rect width="1470" height="500" rx="100" fill="white"/>
<path d="M510.177 346C510.177 348.761 512.415 351 515.177 351H547.507C550.268 351 552.507 348.761 552.507 346V188.643C552.507 185.882 554.745 183.643 557.507 183.643H606.096C608.857 183.643 611.096 181.404 611.096 178.643V153.742C611.096 150.981 608.857 148.742 606.096 148.742H456.728C453.967 148.742 451.728 150.981 451.728 153.742V178.643C451.728 181.404 453.967 183.643 456.728 183.643H505.177C507.938 183.643 510.177 185.882 510.177 188.643V346Z" fill="black"/>
<path d="M631.98 346C631.98 348.761 634.219 351 636.98 351H667.908C670.67 351 672.908 348.761 672.908 346V264.939C672.908 245.316 684.542 231.579 702.623 231.579C721.265 231.579 731.637 244.054 731.637 265.079V346C731.637 348.761 733.876 351 736.637 351H767.565C770.327 351 772.565 348.761 772.565 346V256.669C772.565 220.366 752.382 197.659 719.863 197.659C697.423 197.659 681.636 207.916 673.88 226.361C673.801 226.549 673.616 226.674 673.412 226.674V226.674C673.134 226.674 672.908 226.448 672.908 226.17V153.742C672.908 150.981 670.67 148.742 667.908 148.742H636.98C634.219 148.742 631.98 150.981 631.98 153.742V346Z" fill="black"/>
<path d="M867.878 354.084C913.291 354.084 942.305 324.929 942.305 275.872V275.591C942.305 226.954 912.73 197.659 867.737 197.659C822.885 197.659 793.45 227.234 793.45 275.591V275.872C793.45 324.789 822.184 354.084 867.878 354.084ZM868.018 321.986C847.834 321.986 835.079 305.306 835.079 275.872V275.591C835.079 246.577 847.974 229.757 867.737 229.757C887.641 229.757 900.676 246.577 900.676 275.591V275.872C900.676 305.166 887.921 321.986 868.018 321.986Z" fill="black"/>
<path d="M1023.18 354.084C1029.38 354.084 1034.55 353.641 1038.69 353.131C1041.14 352.828 1042.94 350.714 1042.94 348.242V328.133C1042.94 325.153 1040.36 322.927 1037.39 323.133C1036.38 323.203 1035.3 323.247 1034.11 323.247C1021.78 323.247 1015.47 318.482 1015.47 304.465V236.579C1015.47 233.818 1017.71 231.579 1020.47 231.579H1037.94C1040.71 231.579 1042.94 229.341 1042.94 226.579V205.743C1042.94 202.982 1040.71 200.743 1037.94 200.743H1020.47C1017.71 200.743 1015.47 198.505 1015.47 195.743V169.02C1015.47 166.258 1013.23 164.02 1010.47 164.02H979.123C976.361 164.02 974.123 166.258 974.123 169.02V195.743C974.123 198.505 971.884 200.743 969.123 200.743H958.238C955.477 200.743 953.238 202.982 953.238 205.743V226.579C953.238 229.341 955.477 231.579 958.238 231.579H969.123C971.884 231.579 974.123 233.818 974.123 236.579V308.95C974.123 341.188 989.821 354.084 1023.18 354.084Z" fill="black"/>
<path d="M1066.49 346C1066.49 348.761 1068.73 351 1071.49 351H1102.42C1105.18 351 1107.42 348.761 1107.42 346V264.939C1107.42 245.316 1119.05 231.579 1137.13 231.579C1155.78 231.579 1166.15 244.054 1166.15 265.079V346C1166.15 348.761 1168.39 351 1171.15 351H1202.08C1204.84 351 1207.08 348.761 1207.08 346V256.669C1207.08 220.366 1186.89 197.659 1154.37 197.659C1131.93 197.659 1116.15 207.916 1108.39 226.361C1108.31 226.549 1108.13 226.674 1107.92 226.674V226.674C1107.65 226.674 1107.42 226.448 1107.42 226.17V153.742C1107.42 150.981 1105.18 148.742 1102.42 148.742H1071.49C1068.73 148.742 1066.49 150.981 1066.49 153.742V346Z" fill="black"/>
<path d="M1301.83 354.084C1344.72 354.084 1365.46 328.714 1370.09 306.568V306.568C1370.3 305.791 1369.72 305.026 1368.91 305.026H1333.83C1333.3 305.026 1332.83 305.365 1332.66 305.867V305.867C1329.72 314.277 1319.49 323.528 1302.67 323.528C1283.31 323.528 1270.69 311.481 1268.62 290.628C1268.34 287.846 1270.62 285.543 1273.42 285.543H1366.77C1369.53 285.543 1371.77 283.304 1371.77 280.543V272.928C1371.77 227.515 1344.16 197.659 1300.15 197.659C1256.13 197.659 1227.96 228.215 1227.96 276.012V276.152C1227.96 324.228 1255.85 354.084 1301.83 354.084ZM1300.85 228.215C1316.22 228.215 1327.68 237.083 1331.57 254.192C1332.23 257.118 1329.88 259.753 1326.88 259.753H1274.45C1271.43 259.753 1269.07 257.085 1269.79 254.151C1273.87 237.378 1285.64 228.215 1300.85 228.215Z" fill="black"/>
<circle cx="261.5" cy="250.5" r="163.5" fill="#56CCF2"/>
<path fill-rule="evenodd" clip-rule="evenodd" d="M231.906 132.126C213.065 132.126 197.805 145.808 193.987 163.574C170.983 167.678 152.99 186.874 152.99 211.042C152.99 213.469 153.257 215.629 153.612 217.829C147.249 227.18 143.126 238.199 143.126 250.5C143.126 268.226 151.955 283.142 164.394 293.963C163.506 297.475 162.855 300.977 162.855 304.755C162.855 329.15 182.85 349.145 207.245 349.145H207.867C213.608 360.282 223.551 368.874 236.839 368.874C241.442 368.863 245.996 367.93 250.232 366.129C254.467 364.328 258.299 361.696 261.5 358.388C264.701 361.696 268.533 364.328 272.768 366.129C277.004 367.93 281.558 368.863 286.161 368.874C299.459 368.874 309.392 360.282 315.143 349.145H315.755C338.917 349.145 357.906 331.113 359.839 308.454H360.145C360.145 308.119 360.067 307.786 359.99 307.453C359.924 307.169 359.857 306.885 359.839 306.599C359.857 306.318 359.923 306.035 359.989 305.752C360.067 305.419 360.145 305.085 360.145 304.755C360.145 302.078 359.443 299.685 358.734 297.27C358.474 296.383 358.212 295.493 357.985 294.584C370.779 283.714 379.874 268.542 379.874 250.5C379.874 238.209 375.751 227.19 369.388 217.819C369.743 215.629 370.009 213.479 370.009 211.042C370.009 186.874 352.017 167.687 329.013 163.564C325.195 145.818 309.935 132.126 291.093 132.126C279.256 132.126 268.741 137.64 261.5 145.995C254.259 137.65 243.744 132.126 231.906 132.126ZM231.906 151.855C242.925 151.855 251.635 160.565 251.635 171.584H271.364C271.364 160.565 280.075 151.855 291.093 151.855C302.112 151.855 310.822 160.565 310.822 171.584V181.448H320.687C337.141 181.448 350.28 194.588 350.28 211.042C350.28 213.163 349.886 215.205 349.353 217.513L348.436 222.445L351.514 226.145C357.113 233.025 360.162 241.629 360.145 250.5C360.145 262.337 355.094 272.892 346.887 280.093C340.15 274.125 331.558 270.229 321.92 270.229C318.494 270.229 315.191 270.677 312.056 271.522L321.92 289.958C331.439 289.958 339.025 297.09 340.11 306.294C339.301 319.285 328.934 329.416 315.755 329.416C314.867 329.416 313.782 329.377 312.056 329.11L302.497 327.561L300.652 337.13C300.061 340.529 298.277 343.606 295.621 345.808C292.965 348.011 289.611 349.194 286.161 349.145C277.875 349.145 271.364 342.634 271.364 334.348H251.635C251.635 342.634 245.125 349.145 236.839 349.145C233.387 349.193 230.032 348.009 227.376 345.805C224.72 343.601 222.937 340.521 222.348 337.12L220.503 327.571L210.944 329.11C207.432 329.665 203.841 329.45 200.421 328.479C197 327.509 193.831 325.806 191.133 323.489C188.436 321.173 186.274 318.297 184.798 315.063C183.322 311.828 182.566 308.31 182.584 304.755C182.584 301.707 183.077 298.856 184.123 296.123C184.161 296.015 184.217 295.919 184.272 295.825C184.333 295.722 184.393 295.62 184.429 295.502C187.487 287.916 194.106 282.362 202.313 280.705L198.308 261.292C188.24 263.28 179.187 268.732 172.719 276.7C166.306 269.486 162.791 260.152 162.855 250.5C162.838 241.629 165.887 233.025 171.486 226.145L174.574 222.445L173.647 217.513C173.088 215.399 172.777 213.228 172.719 211.042C172.719 194.588 185.859 181.448 202.313 181.448H212.177V171.584C212.177 160.565 220.888 151.855 231.906 151.855Z" fill="white"/>
<path d="M221.964 295.648C221.426 297.187 222.568 298.796 224.199 298.796H236.162C237.198 298.796 238.114 298.122 238.422 297.133L243.245 281.646C243.553 280.657 244.469 279.983 245.505 279.983H269.435C270.472 279.983 271.388 280.657 271.696 281.646L276.519 297.133C276.827 298.122 277.743 298.796 278.779 298.796H290.744C292.374 298.796 293.516 297.188 292.98 295.65L267.592 222.818C267.261 221.867 266.364 221.23 265.357 221.23H249.637C248.63 221.23 247.734 221.866 247.402 222.817L221.964 295.648ZM257.261 236.435C257.29 236.343 257.374 236.281 257.47 236.281V236.281C257.566 236.281 257.651 236.343 257.679 236.435L266.463 264.766C266.936 266.289 265.797 267.834 264.202 267.834H250.739C249.144 267.834 248.005 266.289 248.477 264.766L257.261 236.435Z" fill="white"/>
<path d="M272.321 209.845C272.321 211.153 273.381 212.213 274.688 212.213H284.449C285.757 212.213 286.817 213.273 286.817 214.58V223.258C286.817 224.566 287.877 225.626 289.184 225.626H293.356C294.664 225.626 295.724 224.566 295.724 223.258V214.58C295.724 213.273 296.784 212.213 298.091 212.213H307.887C309.195 212.213 310.255 211.153 310.255 209.845V205.673C310.255 204.365 309.195 203.305 307.887 203.305H298.091C296.784 203.305 295.724 202.245 295.724 200.938V192.225C295.724 190.917 294.664 189.857 293.356 189.857H289.184C287.877 189.857 286.817 190.917 286.817 192.225V200.938C286.817 202.245 285.757 203.305 284.449 203.305H274.688C273.381 203.305 272.321 204.365 272.321 205.673V209.845Z" fill="white"/>
</svg>
