<svg width="168" height="168" viewBox="0 0 168 168" fill="none" xmlns="http://www.w3.org/2000/svg">
<g clip-path="url(#clip0_505_171)">
<circle cx="83.92" cy="83.92" r="83.92" fill="#56CCF2"/>
<path fill-rule="evenodd" clip-rule="evenodd" d="M68.7304 23.1619C59.0598 23.1619 51.227 30.1845 49.2676 39.3033C37.4603 41.4095 28.225 51.2625 28.225 63.6672C28.225 64.9128 28.3617 66.0216 28.544 67.1507C25.2783 71.9506 23.1619 77.6062 23.1619 83.9199C23.1619 93.0185 27.6934 100.674 34.0781 106.228C33.6224 108.031 33.2882 109.828 33.2882 111.767C33.2882 124.289 43.5513 134.552 56.0725 134.552H56.3915C59.3382 140.268 64.4419 144.678 71.262 144.678C73.6245 144.673 75.962 144.194 78.1361 143.269C80.3103 142.345 82.277 140.994 83.9199 139.296C85.5629 140.994 87.5296 142.345 89.7037 143.269C91.8779 144.194 94.2153 144.673 96.5779 144.678C103.403 144.678 108.502 140.268 111.453 134.552H111.767C123.656 134.552 133.402 125.296 134.395 113.666H134.552C134.552 113.494 134.512 113.323 134.472 113.153C134.438 113.007 134.404 112.861 134.395 112.714C134.404 112.57 134.438 112.425 134.472 112.279C134.512 112.108 134.552 111.937 134.552 111.767C134.552 110.393 134.191 109.165 133.827 107.925C133.694 107.47 133.56 107.014 133.443 106.547C140.01 100.968 144.678 93.1805 144.678 83.9199C144.678 77.6112 142.562 71.9557 139.296 67.1456C139.478 66.0216 139.615 64.9178 139.615 63.6672C139.615 51.2625 130.38 41.4146 118.572 39.2982C116.613 30.1895 108.78 23.1619 99.1095 23.1619C93.0336 23.1619 87.6363 25.9922 83.9199 30.2807C80.2036 25.9972 74.8062 23.1619 68.7304 23.1619ZM68.7304 33.2882C74.386 33.2882 78.8568 37.759 78.8568 43.4146H88.9831C88.9831 37.759 93.4539 33.2882 99.1095 33.2882C104.765 33.2882 109.236 37.759 109.236 43.4146V48.4777H114.299C122.744 48.4777 129.488 55.2219 129.488 63.6672C129.488 64.7558 129.286 65.8039 129.013 66.9887L128.542 69.5203L130.121 71.419C132.995 74.9506 134.56 79.3668 134.552 83.9199C134.552 89.9957 131.959 95.4133 127.747 99.1095C124.289 96.0462 119.879 94.0463 114.932 94.0463C113.173 94.0463 111.478 94.2761 109.869 94.7101L114.932 104.173C119.818 104.173 123.711 107.833 124.268 112.557C123.853 119.225 118.532 124.425 111.767 124.425C111.312 124.425 110.755 124.405 109.869 124.268L104.962 123.473L104.016 128.385C103.712 130.129 102.797 131.709 101.433 132.839C100.07 133.969 98.3486 134.577 96.5779 134.552C92.3248 134.552 88.9831 131.21 88.9831 126.957H78.8568C78.8568 131.21 75.5151 134.552 71.262 134.552C69.4905 134.576 67.7683 133.969 66.405 132.837C65.0416 131.706 64.1265 130.125 63.8242 128.38L62.8774 123.479L57.9712 124.268C56.1684 124.553 54.3253 124.443 52.5695 123.944C50.8138 123.446 49.1872 122.572 47.8026 121.383C46.4181 120.194 45.3085 118.718 44.5508 117.058C43.7931 115.398 43.4054 113.592 43.4146 111.767C43.4146 110.203 43.6677 108.74 44.2044 107.337C44.2238 107.281 44.2525 107.232 44.2811 107.184C44.3121 107.131 44.3429 107.079 44.3614 107.018C45.931 103.125 49.3283 100.274 53.5409 99.4234L51.4853 89.459C46.3177 90.4798 41.6708 93.2779 38.3514 97.3677C35.0593 93.6651 33.2556 88.8743 33.2882 83.9199C33.2796 79.3668 34.8446 74.9506 37.7185 71.419L39.3033 69.5203L38.8273 66.9887C38.5404 65.9037 38.3807 64.7891 38.3514 63.6672C38.3514 55.2219 45.0955 48.4777 53.5409 48.4777H58.6041V43.4146C58.6041 37.759 63.0749 33.2882 68.7304 33.2882Z" fill="white"/>
<path d="M63.627 107.093C63.3511 107.883 63.9375 108.709 64.7742 108.709H70.9145C71.4464 108.709 71.9165 108.363 72.0747 107.855L74.5502 99.9065C74.7084 99.3987 75.1785 99.0527 75.7104 99.0527H87.9929C88.5248 99.0527 88.9949 99.3987 89.1531 99.9065L91.6286 107.855C91.7868 108.363 92.2569 108.709 92.7888 108.709H98.9302C99.7666 108.709 100.353 107.884 100.078 107.094L87.0469 69.7117C86.8767 69.2235 86.4164 68.8965 85.8994 68.8965H77.8309C77.3142 68.8965 76.854 69.2232 76.6837 69.7109L63.627 107.093ZM81.7444 76.7008C81.7589 76.6538 81.8024 76.6218 81.8516 76.6218V76.6218C81.9009 76.6218 81.9443 76.6538 81.9589 76.7008L86.4675 91.2423C86.71 92.0242 86.1255 92.8173 85.3069 92.8173H78.3964C77.5778 92.8173 76.9933 92.0242 77.2358 91.2423L81.7444 76.7008Z" fill="white"/>
<path d="M89.4739 63.0531C89.4739 63.7242 90.0179 64.2682 90.689 64.2682H95.6991C96.3702 64.2682 96.9143 64.8123 96.9143 65.4834V69.9377C96.9143 70.6088 97.4583 71.1529 98.1295 71.1529H100.271C100.942 71.1529 101.486 70.6088 101.486 69.9377V65.4834C101.486 64.8123 102.03 64.2682 102.701 64.2682H107.729C108.4 64.2682 108.944 63.7242 108.944 63.0531V60.9115C108.944 60.2404 108.4 59.6964 107.729 59.6964H102.701C102.03 59.6964 101.486 59.1523 101.486 58.4812V54.009C101.486 53.3379 100.942 52.7938 100.271 52.7938H98.1295C97.4583 52.7938 96.9143 53.3379 96.9143 54.009V58.4812C96.9143 59.1523 96.3702 59.6964 95.6991 59.6964H90.689C90.0179 59.6964 89.4739 60.2404 89.4739 60.9115V63.0531Z" fill="white"/>
</g>
<defs>
<clipPath id="clip0_505_171">
<rect width="167.84" height="167.84" fill="white"/>
</clipPath>
</defs>
</svg>
