<svg width="50" height="42" viewBox="0 0 50 42" fill="none" xmlns="http://www.w3.org/2000/svg">
<path fill-rule="evenodd" clip-rule="evenodd" d="M15.625 2.25C15.625 1.8356 15.7896 1.43817 16.0826 1.14515C16.3757 0.85212 16.7731 0.6875 17.1875 0.6875C19.8812 0.6875 22.1031 1.58437 23.625 2.45625C24.1687 2.76562 24.6281 3.075 25 3.35C25.3719 3.075 25.8312 2.76562 26.375 2.45625C28.3306 1.31701 30.5494 0.707368 32.8125 0.6875C33.2269 0.6875 33.6243 0.85212 33.9174 1.14515C34.2104 1.43817 34.375 1.8356 34.375 2.25C34.375 2.6644 34.2104 3.06183 33.9174 3.35485C33.6243 3.64788 33.2269 3.8125 32.8125 3.8125C30.8188 3.8125 29.1344 4.47813 27.925 5.16875C27.4484 5.4403 26.9929 5.74742 26.5625 6.0875V19.4375H28.125C28.5394 19.4375 28.9368 19.6021 29.2299 19.8951C29.5229 20.1882 29.6875 20.5856 29.6875 21C29.6875 21.4144 29.5229 21.8118 29.2299 22.1049C28.9368 22.3979 28.5394 22.5625 28.125 22.5625H26.5625V35.9125C26.875 36.1625 27.3375 36.4969 27.925 36.8313C29.1344 37.5219 30.8188 38.1875 32.8125 38.1875C33.2269 38.1875 33.6243 38.3521 33.9174 38.6451C34.2104 38.9382 34.375 39.3356 34.375 39.75C34.375 40.1644 34.2104 40.5618 33.9174 40.8549C33.6243 41.1479 33.2269 41.3125 32.8125 41.3125C30.5494 41.2926 28.3306 40.683 26.375 39.5438C25.9 39.2745 25.441 38.9782 25 38.6562C24.5591 38.9792 24.1 39.2766 23.625 39.5469C21.6694 40.6861 19.4506 41.2958 17.1875 41.3156C16.7731 41.3156 16.3757 41.151 16.0826 40.858C15.7896 40.565 15.625 40.1675 15.625 39.7531C15.625 39.3387 15.7896 38.9413 16.0826 38.6483C16.3757 38.3552 16.7731 38.1906 17.1875 38.1906C19.1813 38.1906 20.8656 37.525 22.075 36.8344C22.6625 36.5 23.1219 36.1656 23.4375 35.9156V22.5625H21.875C21.4606 22.5625 21.0632 22.3979 20.7701 22.1049C20.4771 21.8118 20.3125 21.4144 20.3125 21C20.3125 20.5856 20.4771 20.1882 20.7701 19.8951C21.0632 19.6021 21.4606 19.4375 21.875 19.4375H23.4375V6.0875C23.0071 5.74742 22.5516 5.4403 22.075 5.16875C20.5914 4.29964 18.9068 3.8322 17.1875 3.8125C16.7731 3.8125 16.3757 3.64788 16.0826 3.35485C15.7896 3.06183 15.625 2.6644 15.625 2.25Z" fill="#EB5757"/>
<path d="M31.25 11.625H43.75C44.5788 11.625 45.3737 11.9542 45.9597 12.5403C46.5458 13.1263 46.875 13.9212 46.875 14.75V27.25C46.875 28.0788 46.5458 28.8737 45.9597 29.4597C45.3737 30.0458 44.5788 30.375 43.75 30.375H31.25V33.5H43.75C45.4076 33.5 46.9973 32.8415 48.1694 31.6694C49.3415 30.4973 50 28.9076 50 27.25V14.75C50 13.0924 49.3415 11.5027 48.1694 10.3306C46.9973 9.15848 45.4076 8.5 43.75 8.5H31.25V11.625ZM18.75 11.625V8.5H6.25C4.5924 8.5 3.00269 9.15848 1.83058 10.3306C0.65848 11.5027 0 13.0924 0 14.75L0 27.25C0 28.9076 0.65848 30.4973 1.83058 31.6694C3.00269 32.8415 4.5924 33.5 6.25 33.5H18.75V30.375H6.25C5.4212 30.375 4.62634 30.0458 4.04029 29.4597C3.45424 28.8737 3.125 28.0788 3.125 27.25V14.75C3.125 13.9212 3.45424 13.1263 4.04029 12.5403C4.62634 11.9542 5.4212 11.625 6.25 11.625H18.75Z" fill="#EB5757"/>
</svg>
