<svg width="56" height="69" viewBox="0 0 56 69" fill="none" xmlns="http://www.w3.org/2000/svg">
<path fill-rule="evenodd" clip-rule="evenodd" d="M45.228 17.2297C45.228 21.7993 43.4127 26.1818 40.1815 29.413C36.9503 32.6442 32.5679 34.4594 27.9983 34.4594C23.4287 34.4594 19.0462 32.6442 15.815 29.413C12.5838 26.1818 10.7686 21.7993 10.7686 17.2297C10.7686 12.6601 12.5838 8.27766 15.815 5.04646C19.0462 1.81527 23.4287 0 27.9983 0C32.5679 0 36.9503 1.81527 40.1815 5.04646C43.4127 8.27766 45.228 12.6601 45.228 17.2297ZM50.2289 44.4398C33.5204 42.7103 22.5839 42.5424 5.7935 44.401V44.3989C4.19779 44.5781 2.7243 45.3398 1.65528 46.5379C0.586261 47.7361 -0.00312852 49.2866 1.249e-05 50.8923C-0.00105 51.786 0.182202 52.6703 0.538318 53.49C0.894433 54.3097 1.41576 55.0472 2.06973 55.6563C11.2036 64.1312 19.0475 68.8887 27.4103 68.9189C35.7495 68.9512 43.9552 64.2733 53.8084 55.6843C54.7495 54.8582 55.4294 53.7757 55.7648 52.5692C56.1001 51.3626 56.0764 50.0845 55.6966 48.8913C55.3167 47.698 54.5972 46.6414 53.6261 45.8507C52.655 45.0601 51.4744 44.5698 50.2289 44.4398Z" fill="white"/>
</svg>
