<svg width="50" height="47" viewBox="0 0 50 47" fill="none" xmlns="http://www.w3.org/2000/svg">
<path d="M50 22C50 34.0813 38.8063 43.875 25 43.875C22.5239 43.8783 20.0581 43.5568 17.6656 42.9188C15.8406 43.8438 11.65 45.6188 4.6 46.775C3.975 46.875 3.5 46.225 3.74688 45.6437C4.85313 43.0312 5.85312 39.55 6.15312 36.375C2.325 32.5312 0 27.5 0 22C0 9.91875 11.1937 0.125 25 0.125C38.8063 0.125 50 9.91875 50 22ZM14.0625 12.625C13.6481 12.625 13.2507 12.7896 12.9576 13.0826C12.6646 13.3757 12.5 13.7731 12.5 14.1875C12.5 14.6019 12.6646 14.9993 12.9576 15.2924C13.2507 15.5854 13.6481 15.75 14.0625 15.75H35.9375C36.3519 15.75 36.7493 15.5854 37.0424 15.2924C37.3354 14.9993 37.5 14.6019 37.5 14.1875C37.5 13.7731 37.3354 13.3757 37.0424 13.0826C36.7493 12.7896 36.3519 12.625 35.9375 12.625H14.0625ZM14.0625 20.4375C13.6481 20.4375 13.2507 20.6021 12.9576 20.8951C12.6646 21.1882 12.5 21.5856 12.5 22C12.5 22.4144 12.6646 22.8118 12.9576 23.1049C13.2507 23.3979 13.6481 23.5625 14.0625 23.5625H35.9375C36.3519 23.5625 36.7493 23.3979 37.0424 23.1049C37.3354 22.8118 37.5 22.4144 37.5 22C37.5 21.5856 37.3354 21.1882 37.0424 20.8951C36.7493 20.6021 36.3519 20.4375 35.9375 20.4375H14.0625ZM14.0625 28.25C13.6481 28.25 13.2507 28.4146 12.9576 28.7076C12.6646 29.0007 12.5 29.3981 12.5 29.8125C12.5 30.2269 12.6646 30.6243 12.9576 30.9174C13.2507 31.2104 13.6481 31.375 14.0625 31.375H26.5625C26.9769 31.375 27.3743 31.2104 27.6674 30.9174C27.9604 30.6243 28.125 30.2269 28.125 29.8125C28.125 29.3981 27.9604 29.0007 27.6674 28.7076C27.3743 28.4146 26.9769 28.25 26.5625 28.25H14.0625Z" fill="#EB5757"/>
</svg>
